<?xml version="1.0" ?><!DOCTYPE svg  PUBLIC '-//W3C//DTD SVG 1.1//EN'  'http://www.w3.org/Graphics/SVG/1.1/DTD/svg11.dtd'><svg enable-background="new 0 0 512 512" height="512px" id="Calque_1" version="1.1" viewBox="0 0 512 512" width="512px" xml:space="preserve" xmlns="http://www.w3.org/2000/svg" xmlns:xlink="http://www.w3.org/1999/xlink"><path d="M183.493,151.56c2.683-2.298,5.576-4.356,8.668-6.138c3.093-1.782,6.322-3.253,9.649-4.424  c-1.988-5.861-3.017-12.052-3.017-18.422c0-8.492,1.874-16.549,5.208-23.803c-12.106-4.3-25.464-3.161-36.824,3.389  c-11.329,6.554-18.99,17.539-21.336,30.154c8.079,0.761,15.973,3.25,23.211,7.429C174.568,142.929,179.413,146.911,183.493,151.56z" fill="#A9C352"/><path d="M138.073,285.338c0.004-0.045,0.002-0.09,0.007-0.135c0.236-2.252,0.616-4.489,1.121-6.703  c-7.292,0.194-14.389,2.196-20.854,5.929c-5.371,3.1-9.928,7.208-13.498,12.056c5.43,2.387,11.424,3.722,17.726,3.722  c6.882,0,13.497-1.544,19.518-4.515c0.104-0.059,0.213-0.11,0.321-0.163c0.401-0.202,0.799-0.41,1.194-0.624  c-1.451-1.562-2.821-3.189-4.083-4.896c-0.031-0.037-0.059-0.075-0.088-0.113c-0.046-0.063-0.098-0.121-0.144-0.184  c-0.027-0.037-0.048-0.076-0.074-0.113c-0.068-0.099-0.133-0.198-0.196-0.3c-0.052-0.084-0.103-0.168-0.151-0.253  c-0.054-0.098-0.104-0.196-0.154-0.297c-0.046-0.093-0.092-0.186-0.133-0.28c-0.042-0.098-0.08-0.196-0.118-0.296  s-0.075-0.199-0.107-0.3c-0.032-0.1-0.06-0.201-0.087-0.303c-0.027-0.103-0.055-0.205-0.078-0.309  c-0.022-0.102-0.039-0.205-0.057-0.309c-0.018-0.106-0.035-0.213-0.047-0.319c-0.011-0.102-0.019-0.203-0.025-0.305  c-0.008-0.113-0.014-0.226-0.016-0.339c-0.001-0.097,0-0.193,0.003-0.291C138.056,285.578,138.062,285.458,138.073,285.338z" fill="#A9C352"/><path d="M98.76,203.964c7.376-3.379,15.454-5.17,23.811-5.17c0.001,0,0.002,0,0.004,0  c6.371,0,12.562,1.028,18.422,3.016c1.17-3.328,2.642-6.557,4.424-9.649c1.788-3.103,3.854-6.004,6.16-8.693  c-4.67-4.084-8.648-8.902-11.836-14.415c-4.134-7.167-6.645-15.076-7.417-23.21c-1.11,0.209-2.219,0.448-3.321,0.743  c-11.403,3.055-20.936,10.371-26.84,20.599c-5.906,10.228-7.476,22.142-4.42,33.545C98.043,201.826,98.388,202.902,98.76,203.964z" fill="#A9C352"/><path d="M164.924,177.34c0.386,0.257,0.784,0.496,1.178,0.74c0.025-0.082,0.058-0.162,0.083-0.244  c0.291-0.927,0.604-1.849,0.941-2.762c0.056-0.151,0.116-0.301,0.173-0.452c0.363-0.956,0.744-1.906,1.159-2.844  c0.021-0.046,0.046-0.089,0.068-0.135c0.05-0.107,0.103-0.211,0.159-0.315c0.047-0.088,0.096-0.175,0.146-0.26  c0.057-0.096,0.118-0.189,0.18-0.282c0.058-0.086,0.116-0.171,0.177-0.254c0.064-0.086,0.131-0.17,0.2-0.253  c0.066-0.081,0.133-0.161,0.203-0.238c0.072-0.08,0.147-0.156,0.223-0.231c0.074-0.074,0.148-0.146,0.225-0.216  c0.08-0.072,0.162-0.141,0.245-0.209c0.081-0.066,0.162-0.132,0.246-0.194c0.085-0.063,0.173-0.123,0.261-0.182  c0.09-0.061,0.182-0.119,0.275-0.175c0.087-0.052,0.176-0.102,0.266-0.15c0.102-0.055,0.204-0.106,0.309-0.155  c0.047-0.022,0.09-0.049,0.138-0.07c2.069-0.914,4.186-1.695,6.335-2.357c-0.168-0.274-0.343-0.544-0.517-0.814  c-0.18-0.236-0.337-0.484-0.481-0.738c-3.718-5.526-8.644-10.129-14.562-13.545c-5.375-3.103-11.216-4.996-17.204-5.663  c0.674,6.026,2.582,11.883,5.654,17.209C154.49,168.581,159.175,173.559,164.924,177.34z" fill="#A9C352"/><path d="M151.56,328.506c-2.297-2.683-4.356-5.575-6.139-8.668c-1.783-3.093-3.254-6.322-4.424-9.648  c-5.861,1.988-12.052,3.017-18.422,3.017c-8.492,0-16.549-1.874-23.803-5.208c-0.377,1.073-0.727,2.16-1.024,3.271  c-3.056,11.404-1.487,23.317,4.418,33.545c6.708,11.619,17.935,19.029,30.19,21.323c0.743-7.938,3.148-15.844,7.389-23.188  C142.928,337.434,146.911,332.587,151.56,328.506z" fill="#A9C352"/><path d="M111.847,273.17c5.516-3.184,11.389-5.389,17.455-6.599c-0.65-3.476-0.989-7.009-0.989-10.571  c0-3.561,0.338-7.093,0.988-10.567c-6.066-1.209-11.938-3.42-17.453-6.604c-7.239-4.179-13.34-9.771-18.039-16.386  c-0.854,0.733-1.69,1.492-2.494,2.295c-8.348,8.348-12.946,19.45-12.946,31.261c0,13.403,6.004,25.424,15.454,33.538  C98.52,282.929,104.615,277.345,111.847,273.17z" fill="#A9C352"/><path d="M142.484,216.506c-0.139-0.066-0.276-0.133-0.409-0.208c-6.014-2.963-12.623-4.504-19.5-4.504  c0,0-0.002,0-0.003,0c-6.209,0-12.217,1.282-17.737,3.701c3.572,4.855,8.134,8.971,13.512,12.076  c5.967,3.445,12.474,5.417,19.178,5.853c0.062,0.001,0.124,0.009,0.186,0.012c0.496,0.03,0.992,0.049,1.49,0.063  c-0.504-2.212-0.884-4.449-1.121-6.701c-0.005-0.045-0.003-0.09-0.007-0.136c-0.01-0.119-0.016-0.238-0.02-0.358  c-0.003-0.099-0.005-0.196-0.003-0.293c0.002-0.112,0.008-0.224,0.016-0.336c0.007-0.103,0.014-0.206,0.026-0.307  c0.012-0.106,0.029-0.211,0.047-0.316c0.018-0.104,0.035-0.209,0.057-0.312c0.022-0.103,0.049-0.204,0.077-0.306  c0.028-0.103,0.055-0.205,0.088-0.306c0.032-0.1,0.069-0.198,0.106-0.296c0.038-0.101,0.076-0.201,0.119-0.3  c0.041-0.094,0.086-0.186,0.131-0.278c0.049-0.101,0.1-0.201,0.155-0.298c0.048-0.086,0.099-0.17,0.151-0.254  c0.063-0.101,0.126-0.2,0.194-0.297c0.026-0.038,0.048-0.078,0.076-0.115c0.046-0.063,0.099-0.123,0.146-0.186  c0.028-0.037,0.056-0.074,0.085-0.109c1.263-1.707,2.634-3.336,4.086-4.897C143.238,216.892,142.862,216.697,142.484,216.506z" fill="#A9C352"/><path d="M177.119,347.443c0.141-0.249,0.296-0.492,0.472-0.725c0.175-0.271,0.351-0.543,0.52-0.819  c-2.148-0.663-4.263-1.444-6.328-2.358c-0.012-0.005-0.022-0.012-0.034-0.018c-0.037-0.016-0.071-0.037-0.107-0.054  c-0.218-0.104-0.428-0.218-0.629-0.341c-0.063-0.039-0.126-0.079-0.188-0.12c-0.209-0.139-0.41-0.286-0.599-0.445  c-0.022-0.019-0.046-0.034-0.068-0.054c-0.21-0.182-0.402-0.378-0.585-0.583c-0.047-0.053-0.092-0.107-0.138-0.162  c-0.162-0.194-0.314-0.395-0.451-0.604c-0.019-0.028-0.04-0.055-0.058-0.083c-0.153-0.241-0.285-0.494-0.404-0.753  c-0.014-0.031-0.034-0.058-0.047-0.089c-0.919-2.07-1.706-4.192-2.372-6.35c-0.377,0.231-0.751,0.469-1.121,0.711  c-0.092,0.063-0.185,0.124-0.28,0.182c-5.596,3.731-10.25,8.697-13.698,14.67c-3.146,5.449-4.986,11.297-5.637,17.184  c5.888-0.649,11.737-2.489,17.187-5.635C168.472,357.579,173.399,352.975,177.119,347.443z" fill="#A9C352"/><path d="M373.883,286.785c-0.009,0.062-0.018,0.123-0.028,0.185c-0.052,0.302-0.121,0.597-0.213,0.883  c-0.012,0.037-0.027,0.073-0.04,0.109c-0.087,0.256-0.19,0.503-0.308,0.743c-0.03,0.063-0.059,0.127-0.092,0.189  c-0.128,0.243-0.273,0.477-0.431,0.7c-0.025,0.037-0.044,0.078-0.07,0.114c-1.335,1.823-2.79,3.545-4.32,5.192  c0.407,0.222,0.817,0.437,1.231,0.645c0.09,0.044,0.181,0.087,0.268,0.136c6.024,2.977,12.648,4.524,19.543,4.524  c6.295,0,12.281-1.331,17.707-3.713c-3.507-4.773-8.024-8.919-13.475-12.065c-6.461-3.729-13.559-5.728-20.854-5.924  c0.504,2.207,0.884,4.436,1.119,6.677c0,0.001,0,0.003,0,0.004c0.023,0.222,0.035,0.446,0.035,0.674c0,0.001,0,0.001,0,0.001  C373.956,286.175,373.926,286.483,373.883,286.785z" fill="#A9C352"/><path d="M360.439,183.49c2.298,2.683,4.356,5.576,6.14,8.671c1.782,3.092,3.254,6.32,4.424,9.647  c5.86-1.988,12.051-3.017,18.421-3.018c8.484,0,16.534,1.871,23.782,5.199c4.142-11.76,3.336-25.187-3.372-36.806  c-5.904-10.229-15.437-17.544-26.842-20.6c-1.111-0.298-2.229-0.539-3.348-0.749c-0.74,7.948-3.146,15.863-7.392,23.218  C369.068,174.567,365.086,179.411,360.439,183.49z" fill="#A9C352"/><path d="M334.826,164.635c-0.092,0.157-0.192,0.309-0.299,0.459c-0.218,0.334-0.433,0.671-0.642,1.012  c2.141,0.661,4.25,1.441,6.314,2.353c0.02,0.008,0.036,0.021,0.055,0.03c0.305,0.138,0.601,0.298,0.885,0.486  c0.039,0.025,0.075,0.053,0.113,0.079c0.281,0.194,0.555,0.405,0.81,0.649l0.011,0.01c0.004,0.004,0.007,0.008,0.011,0.012  c0.29,0.28,0.547,0.582,0.774,0.899c0.018,0.024,0.037,0.046,0.054,0.07c0.221,0.316,0.405,0.649,0.563,0.992  c0.015,0.031,0.037,0.058,0.051,0.089c0.918,2.067,1.704,4.186,2.369,6.339c0.396-0.243,0.788-0.491,1.176-0.746  c0.086-0.057,0.17-0.117,0.257-0.169c5.58-3.728,10.225-8.685,13.668-14.646c3.15-5.458,4.991-11.315,5.64-17.211  c-5.982,0.667-11.82,2.56-17.19,5.66C343.499,154.437,338.552,159.07,334.826,164.635z" fill="#A9C352"/><path d="M278.577,137.53c-0.001,0.052-0.008,0.104-0.01,0.156c-0.03,0.503-0.05,1.007-0.063,1.512  c2.202-0.504,4.429-0.886,6.673-1.127c0.053-0.006,0.104-0.004,0.156-0.009c0.112-0.009,0.226-0.016,0.338-0.019  c0.106-0.003,0.212-0.005,0.316-0.003c0.104,0.002,0.207,0.007,0.31,0.014c0.113,0.007,0.225,0.016,0.336,0.029  c0.096,0.011,0.19,0.026,0.285,0.042c0.115,0.019,0.23,0.039,0.344,0.064c0.092,0.02,0.183,0.043,0.273,0.068  c0.113,0.03,0.227,0.062,0.338,0.098c0.09,0.029,0.178,0.062,0.267,0.095c0.11,0.042,0.221,0.084,0.328,0.131  c0.085,0.038,0.17,0.078,0.254,0.12c0.109,0.053,0.217,0.108,0.322,0.167c0.079,0.044,0.157,0.091,0.235,0.14  c0.106,0.066,0.211,0.134,0.313,0.206c0.039,0.027,0.08,0.05,0.118,0.078c0.054,0.04,0.104,0.084,0.158,0.124  c0.041,0.033,0.084,0.064,0.125,0.098c1.719,1.275,3.351,2.65,4.91,4.1c0.234-0.431,0.463-0.865,0.682-1.303  c0.033-0.065,0.063-0.133,0.099-0.197c2.976-6.024,4.522-12.646,4.522-19.535c0-6.303-1.335-12.297-3.723-17.728  c-4.848,3.57-8.957,8.127-12.059,13.499C280.982,124.313,279.011,130.822,278.577,137.53z" fill="#A9C352"/><path d="M238.825,111.849c3.18,5.515,5.365,11.368,6.576,17.466c6.997-1.303,14.217-1.302,21.215,0.003  c1.215-6.113,3.412-12.032,6.551-17.471c4.176-7.232,9.761-13.328,16.368-18.025c-8.113-9.449-20.133-15.452-33.535-15.452  c-13.408,0-25.433,6.008-33.546,15.465C229.104,98.564,234.692,104.688,238.825,111.849z" fill="#A9C352"/><path d="M310.194,140.988c3.329,1.173,6.56,2.65,9.653,4.44c3.083,1.776,5.974,3.834,8.657,6.136  c4.08-4.65,8.926-8.635,14.439-11.82c7.232-4.175,15.117-6.661,23.188-7.425c-2.301-12.242-9.708-23.452-21.314-30.153  c-10.228-5.906-22.14-7.476-33.547-4.419c-1.111,0.298-2.198,0.648-3.272,1.025c3.335,7.254,5.209,15.313,5.209,23.805  C313.207,128.942,312.179,135.13,310.194,140.988z" fill="#A9C352"/><path d="M216.479,142.43c0.199,0.396,0.405,0.789,0.616,1.179c1.548-1.439,3.163-2.797,4.854-4.05  c0.078-0.065,0.159-0.126,0.24-0.188c0.034-0.025,0.066-0.053,0.1-0.078c0.02-0.014,0.04-0.025,0.06-0.039  c0.135-0.096,0.273-0.187,0.416-0.272c0.047-0.029,0.094-0.058,0.142-0.084c0.134-0.076,0.271-0.146,0.41-0.213  c0.059-0.028,0.117-0.057,0.175-0.083c0.129-0.058,0.262-0.108,0.396-0.157c0.069-0.025,0.139-0.052,0.208-0.075  c0.124-0.041,0.25-0.075,0.377-0.108c0.082-0.021,0.164-0.043,0.246-0.062c0.116-0.025,0.233-0.045,0.351-0.064  c0.096-0.016,0.191-0.031,0.287-0.042c0.106-0.012,0.214-0.02,0.321-0.027c0.11-0.007,0.22-0.014,0.331-0.015  c0.096-0.001,0.192,0,0.289,0.003c0.123,0.003,0.245,0.009,0.367,0.02c0.043,0.003,0.086,0.002,0.13,0.007  c2.246,0.235,4.478,0.614,6.686,1.117c-0.013-0.466-0.02-0.933-0.047-1.398c-0.414-6.868-2.389-13.415-5.87-19.454  c-3.07-5.318-7.18-9.891-12.055-13.482c-2.383,5.427-3.716,11.416-3.716,17.713c0,6.881,1.544,13.495,4.513,19.515  C216.369,142.2,216.424,142.316,216.479,142.43z" fill="#A9C352"/><path d="M407.13,215.505c-5.425-2.381-11.411-3.713-17.705-3.713c-6.878,0.001-13.489,1.544-19.507,4.51  c-0.123,0.07-0.252,0.132-0.381,0.194c-0.386,0.194-0.769,0.394-1.148,0.601c1.449,1.559,2.821,3.188,4.088,4.896  c0.028,0.035,0.056,0.071,0.083,0.106c0.046,0.063,0.098,0.121,0.144,0.183c0.028,0.039,0.051,0.08,0.078,0.119  c0.067,0.096,0.131,0.194,0.192,0.294c0.054,0.085,0.105,0.171,0.154,0.258c0.054,0.096,0.104,0.193,0.151,0.292  c0.047,0.095,0.094,0.189,0.136,0.286c0.042,0.096,0.079,0.193,0.116,0.291c0.038,0.101,0.076,0.202,0.108,0.304  c0.032,0.099,0.06,0.199,0.087,0.299c0.027,0.104,0.056,0.207,0.078,0.311c0.021,0.102,0.039,0.206,0.057,0.309  c0.018,0.106,0.035,0.211,0.047,0.318c0.013,0.102,0.02,0.205,0.027,0.309c0.007,0.111,0.014,0.222,0.016,0.333  c0.001,0.099-0.001,0.198-0.004,0.298c-0.003,0.117-0.009,0.234-0.019,0.351c-0.004,0.048-0.003,0.095-0.008,0.143  c-0.236,2.252-0.616,4.49-1.122,6.703c0.461-0.012,0.922-0.031,1.381-0.058c0.102-0.006,0.202-0.016,0.303-0.017  c6.698-0.437,13.203-2.409,19.172-5.853C399.104,224.425,403.623,220.279,407.13,215.505z" fill="#A9C352"/><path d="M389.423,313.206c-6.37,0-12.561-1.027-18.42-3.015c-1.169,3.323-2.642,6.551-4.425,9.646  c-1.781,3.094-3.841,5.987-6.139,8.67c4.649,4.08,8.633,8.926,11.815,14.438c4.179,7.238,6.667,15.13,7.428,23.209  c1.106-0.208,2.211-0.446,3.31-0.741c11.404-3.055,20.936-10.369,26.84-20.597c6.71-11.62,7.516-25.048,3.374-36.81  C405.958,311.336,397.907,313.206,389.423,313.206z" fill="#A9C352"/><path d="M418.149,222.438c-4.613,6.505-10.65,12.15-17.997,16.393c-5.519,3.184-11.392,5.396-17.457,6.604  c0.646,3.46,0.981,6.991,0.981,10.565c0,3.562-0.339,7.095-0.989,10.57c6.072,1.209,11.949,3.414,17.468,6.599  c7.346,4.242,13.382,9.887,17.994,16.392c9.467-8.113,15.482-20.144,15.482-33.559C433.633,242.585,427.617,230.552,418.149,222.438  z" fill="#A9C352"/><path d="M345.894,333.887c-0.648,2.097-1.41,4.161-2.299,6.178c-0.02,0.047-0.047,0.088-0.067,0.134  c-0.065,0.148-0.142,0.29-0.218,0.434c-0.068,0.129-0.134,0.259-0.211,0.382c-0.098,0.157-0.207,0.306-0.317,0.454  c-0.073,0.097-0.141,0.196-0.219,0.288c-0.134,0.161-0.28,0.31-0.43,0.457c-0.07,0.069-0.136,0.142-0.209,0.207  c-0.165,0.148-0.341,0.282-0.521,0.414c-0.074,0.054-0.145,0.111-0.221,0.162c-0.18,0.12-0.371,0.226-0.565,0.328  c-0.089,0.048-0.175,0.099-0.267,0.143c-0.049,0.022-0.092,0.054-0.142,0.075c-2.067,0.912-4.181,1.693-6.325,2.354  c0.228,0.372,0.461,0.739,0.699,1.103c0.078,0.115,0.157,0.229,0.228,0.349c3.728,5.573,8.679,10.21,14.633,13.646  c5.378,3.105,11.224,5,17.216,5.666c-0.666-5.991-2.559-11.836-5.663-17.213C357.265,342.985,352.118,337.704,345.894,333.887z" fill="#A9C352"/><path d="M456.15,304.55c18.72-9.13,30.34-27.729,30.34-48.55c0-20.82-11.62-39.42-30.34-48.55  c-1.69-0.82-2.94-2.34-3.431-4.16c-0.479-1.81-0.16-3.75,0.891-5.31c11.649-17.27,12.409-39.2,2-57.23  c-10.4-18.02-29.79-28.31-50.551-26.88c-1.859,0.13-3.71-0.56-5.04-1.89c-1.329-1.33-2.02-3.17-1.89-5.04  c1.44-20.78-8.86-40.15-26.88-50.55c-18.03-10.41-39.96-9.65-57.23,2c-1.56,1.05-3.5,1.37-5.31,0.89c-1.82-0.49-3.34-1.74-4.16-3.43  C295.42,37.13,276.82,25.51,256,25.51c-20.82,0-39.42,11.62-48.55,30.34c-0.82,1.69-2.34,2.94-4.16,3.43  c-1.82,0.48-3.75,0.16-5.31-0.89c-17.27-11.65-39.2-12.41-57.23-2c-18.02,10.4-28.32,29.77-26.88,50.55  c0.13,1.87-0.55,3.71-1.88,5.04c-1.33,1.33-3.17,2.02-5.05,1.89c-20.77-1.44-40.14,8.86-50.55,26.88  c-10.41,18.03-9.65,39.96,2,57.23c1.05,1.56,1.37,3.5,0.89,5.31c-0.49,1.82-1.74,3.34-3.43,4.16  c-18.72,9.13-30.34,27.73-30.34,48.55c0,20.82,11.62,39.42,30.34,48.55c1.69,0.82,2.94,2.34,3.43,4.16  c0.48,1.81,0.16,3.75-0.89,5.31c-11.65,17.271-12.41,39.2-2,57.23c10.41,18.02,29.78,28.33,50.55,26.88  c1.87-0.13,3.72,0.561,5.05,1.89c1.33,1.32,2.01,3.171,1.88,5.04c-1.44,20.771,8.86,40.141,26.88,50.551  c18.03,10.409,39.96,9.649,57.23-2c1.08-0.73,2.35-1.11,3.63-1.11c0.56,0,1.13,0.07,1.68,0.22c1.82,0.49,3.34,1.74,4.16,3.431  c9.13,18.71,27.73,30.34,48.55,30.34c20.82,0,39.42-11.63,48.55-30.34c0.82-1.69,2.34-2.94,4.16-3.431  c1.81-0.479,3.75-0.16,5.31,0.891c17.271,11.649,39.2,12.409,57.23,2c18.02-10.41,28.32-29.78,26.88-50.551  c-0.13-1.869,0.561-3.72,1.89-5.05c1.33-1.319,3.16-2.02,5.04-1.88c20.771,1.43,40.15-8.86,50.551-26.88  c10.409-18.03,9.649-39.96-2-57.23c-1.051-1.56-1.37-3.5-0.891-5.31C453.21,306.89,454.46,305.37,456.15,304.55z M424.5,301.151  c6.41,15.8,5.76,34.29-3.41,50.17c-7.64,13.229-19.979,22.699-34.729,26.649c-2.32,0.62-4.65,1.09-6.99,1.42  c-0.33,2.33-0.78,4.65-1.4,6.971c-3.95,14.75-13.42,27.09-26.66,34.729c-8.979,5.19-18.8,7.65-28.5,7.65  c-7.439,0-14.81-1.45-21.67-4.23c-10.479,13.45-26.81,22.12-45.14,22.12s-34.66-8.68-45.14-22.13c-6.86,2.79-14.23,4.24-21.67,4.24  c-9.7,0-19.52-2.46-28.51-7.65c-15.87-9.17-25.68-24.85-28.03-41.729c-16.89-2.351-32.57-12.17-41.74-28.051  c-7.64-13.229-9.67-28.649-5.72-43.409c0.62-2.32,1.4-4.58,2.29-6.771c-13.44-10.479-22.11-26.81-22.11-45.13  c0-15.29,5.95-29.65,16.75-40.46c1.7-1.69,3.49-3.25,5.35-4.7c-0.89-2.19-1.66-4.43-2.28-6.75c-3.95-14.76-1.92-30.17,5.72-43.41  c7.64-13.23,19.98-22.7,34.73-26.65c2.31-0.62,4.64-1.08,6.97-1.4c2.39-17.46,12.6-32.78,28.07-41.73  c15.5-8.94,33.87-10.09,50.19-3.41c10.47-13.45,26.8-22.12,45.13-22.12c18.32,0,34.65,8.67,45.13,22.11  c2.19-0.89,4.45-1.67,6.78-2.29c14.76-3.96,30.17-1.93,43.41,5.72c15.859,9.16,25.67,24.83,28.02,41.71  c2.351,0.33,4.69,0.78,7.021,1.41c14.76,3.95,27.09,13.42,34.729,26.66c9.17,15.87,9.82,34.36,3.41,50.16  c13.45,10.48,22.13,26.82,22.13,45.15C446.63,274.34,437.95,290.67,424.5,301.151z" fill="#A9C352"/><path d="M456.15,304.55c18.72-9.13,30.34-27.729,30.34-48.55s-11.62-39.42-30.34-48.55  c-1.69-0.82-2.94-2.34-3.43-4.16c-0.48-1.811-0.16-3.75,0.89-5.311c11.649-17.27,12.41-39.199,2-57.229  c-10.4-18.021-29.79-28.311-50.55-26.88c-1.86,0.13-3.71-0.561-5.04-1.891s-2.021-3.17-1.891-5.04  c1.44-20.779-8.859-40.149-26.88-50.55c-18.029-10.41-39.96-9.649-57.229,2c-1.561,1.05-3.5,1.37-5.311,0.891  c-1.819-0.49-3.34-1.74-4.16-3.431C295.42,37.13,276.82,25.51,256,25.51c-20.819,0-39.42,11.62-48.55,30.34  c-0.82,1.69-2.34,2.94-4.16,3.431c-1.819,0.479-3.75,0.159-5.31-0.891c-17.271-11.649-39.2-12.41-57.23-2  c-18.02,10.4-28.319,29.771-26.88,50.55c0.13,1.87-0.55,3.71-1.88,5.04s-3.17,2.021-5.05,1.891  c-20.771-1.44-40.141,8.859-50.55,26.88c-10.41,18.03-9.65,39.96,2,57.229c1.05,1.561,1.369,3.5,0.89,5.311  c-0.49,1.82-1.74,3.34-3.43,4.16C37.13,216.58,25.51,235.18,25.51,256s11.62,39.42,30.341,48.55c1.689,0.82,2.939,2.34,3.43,4.16  c0.479,1.81,0.16,3.75-0.89,5.31c-11.65,17.271-12.41,39.2-2,57.23c10.409,18.02,29.779,28.33,50.55,26.88  c1.87-0.13,3.72,0.56,5.05,1.89c1.33,1.32,2.01,3.17,1.88,5.04c-1.439,20.771,8.86,40.141,26.88,50.551  c18.03,10.409,39.96,9.649,57.23-2c1.08-0.73,2.35-1.11,3.63-1.11c0.56,0,1.13,0.07,1.68,0.22c1.82,0.49,3.34,1.74,4.16,3.43  c9.13,18.711,27.73,30.341,48.55,30.341c20.82,0,39.42-11.63,48.55-30.341c0.82-1.689,2.341-2.939,4.16-3.43  c1.811-0.479,3.75-0.16,5.311,0.891c17.27,11.649,39.2,12.409,57.229,2c18.021-10.41,28.32-29.78,26.88-50.551  c-0.13-1.87,0.561-3.72,1.891-5.05c1.33-1.32,3.16-2.02,5.04-1.88c20.77,1.43,40.149-8.86,50.55-26.88  c10.41-18.03,9.649-39.96-2-57.23c-1.05-1.56-1.37-3.5-0.89-5.31C453.21,306.89,454.46,305.37,456.15,304.55z M442.03,310.62  c10.97,16.26,11.69,36.91,1.89,53.88c-9.79,16.97-28.04,26.649-47.59,25.31c-1.77-0.14-3.5,0.521-4.75,1.771s-1.899,2.99-1.78,4.75  c1.36,19.55-8.34,37.79-25.3,47.59c-16.979,9.8-37.62,9.08-53.88-1.88c-1.47-0.99-3.3-1.29-5-0.84c-1.71,0.46-3.14,1.64-3.92,3.229  c-8.59,17.61-26.1,28.561-45.7,28.561c-19.6,0-37.109-10.95-45.71-28.561c-0.77-1.59-2.2-2.77-3.92-3.229  c-0.51-0.141-1.05-0.21-1.58-0.21c-1.2,0-2.399,0.359-3.42,1.05c-16.25,10.96-36.899,11.68-53.87,1.88  c-16.97-9.8-26.66-28.04-25.31-47.59c0.12-1.76-0.521-3.5-1.771-4.74c-1.25-1.26-2.989-1.91-4.75-1.78  c-19.56,1.36-37.79-8.34-47.59-25.31s-9.09-37.62,1.88-53.88c0.99-1.471,1.29-3.29,0.84-5c-0.46-1.71-1.64-3.141-3.229-3.91  C49.95,293.111,39.01,275.6,39.01,256c0-19.601,10.94-37.11,28.561-45.71c1.59-0.771,2.77-2.2,3.229-3.91  c0.45-1.71,0.15-3.53-0.84-5c-10.97-16.26-11.68-36.91-1.88-53.88c9.8-16.96,28.03-26.66,47.59-25.311  c1.771,0.131,3.5-0.52,4.75-1.77c1.25-1.26,1.891-2.99,1.771-4.75c-1.351-19.56,8.34-37.8,25.31-47.59  c16.971-9.8,37.62-9.08,53.87,1.88c1.47,0.99,3.29,1.29,5,0.84c1.72-0.46,3.15-1.64,3.92-3.229C218.89,49.95,236.4,39.01,256,39.01  c19.601,0,37.11,10.94,45.7,28.561c0.78,1.59,2.21,2.77,3.92,3.229c1.7,0.45,3.53,0.15,5-0.84c16.26-10.96,36.9-11.68,53.88-1.88  c16.96,9.79,26.66,28.03,25.3,47.59c-0.119,1.76,0.53,3.49,1.78,4.75c1.25,1.25,3,1.9,4.75,1.77c19.54-1.34,37.8,8.351,47.59,25.311  c9.801,16.97,9.08,37.62-1.89,53.88c-0.99,1.47-1.29,3.29-0.83,5s1.63,3.14,3.23,3.91c17.619,8.6,28.56,26.109,28.56,45.71  c0,19.6-10.94,37.11-28.56,45.71c-1.601,0.77-2.771,2.2-3.23,3.91S441.04,309.15,442.03,310.62z" opacity="0.2"/><path d="M328.507,360.441c-2.682,2.297-5.575,4.355-8.668,6.138s-6.322,3.253-9.649,4.424  c1.989,5.861,3.018,12.053,3.018,18.422c0,8.483-1.87,16.533-5.197,23.78c11.76,4.142,25.186,3.337,36.804-3.37  c10.229-5.905,17.544-15.438,20.601-26.844c0.294-1.096,0.531-2.196,0.739-3.299c-8.079-0.762-15.97-3.26-23.208-7.439  C337.431,369.071,332.587,365.088,328.507,360.441z" fill="#A9C352"/><path d="M289.869,372.584c-0.046,0.035-0.09,0.072-0.136,0.106c-0.007,0.005-0.015,0.011-0.021,0.017  c-0.011,0.008-0.023,0.013-0.034,0.021c-0.264,0.189-0.541,0.36-0.831,0.51c-0.016,0.008-0.03,0.018-0.046,0.025  c-0.274,0.138-0.562,0.252-0.854,0.351c-0.047,0.016-0.093,0.033-0.141,0.048c-0.281,0.087-0.569,0.155-0.865,0.204  c-0.047,0.008-0.095,0.013-0.142,0.02c-0.299,0.043-0.601,0.071-0.909,0.071c-0.227,0-0.455-0.013-0.685-0.036  c-0.021-0.002-0.042-0.006-0.063-0.008c-0.003,0-0.007-0.001-0.011-0.001c-2.228-0.236-4.44-0.613-6.63-1.113  c0.013,0.466,0.031,0.932,0.058,1.396c0.007,0.101,0.017,0.202,0.018,0.303c0.439,6.694,2.41,13.193,5.852,19.154  c3.147,5.45,7.293,9.969,12.067,13.477c2.381-5.425,3.712-11.411,3.712-17.704c0-7.465-1.819-14.613-5.303-21.033  C293.3,369.883,291.627,371.292,289.869,372.584z" fill="#A9C352"/><path d="M273.17,400.152c-3.184-5.516-5.389-11.388-6.598-17.453c-3.478,0.65-7.011,0.989-10.572,0.989  c-3.562,0-7.096-0.339-10.573-0.989c-1.208,6.066-3.413,11.94-6.596,17.455c-4.241,7.345-9.88,13.391-16.385,18.003  c8.113,9.462,20.141,15.475,33.553,15.475c13.413,0,25.441-6.012,33.556-15.474C283.05,413.544,277.412,407.498,273.17,400.152z" fill="#A9C352"/><path d="M233.423,374.468c0.001-0.05,0.008-0.1,0.01-0.149c0.031-0.505,0.05-1.011,0.063-1.518  c-2.204,0.504-4.43,0.883-6.67,1.118c-0.226,0.024-0.454,0.037-0.686,0.037c-0.315,0-0.624-0.03-0.927-0.073  c-0.062-0.009-0.124-0.018-0.185-0.028c-0.301-0.053-0.597-0.121-0.883-0.213c-0.038-0.013-0.073-0.028-0.11-0.04  c-0.256-0.088-0.504-0.192-0.745-0.31c-0.062-0.03-0.124-0.058-0.185-0.09c-0.245-0.129-0.479-0.275-0.705-0.434  c-0.036-0.025-0.077-0.043-0.112-0.069c-1.823-1.335-3.544-2.79-5.19-4.319c-0.215,0.396-0.423,0.794-0.625,1.194  c-0.052,0.107-0.104,0.215-0.162,0.318c-2.973,6.021-4.518,12.642-4.518,19.531c0,6.294,1.331,12.279,3.711,17.704  c4.774-3.507,8.92-8.024,12.067-13.475C231.017,387.686,232.988,381.176,233.423,374.468z" fill="#A9C352"/><path d="M201.808,371.003c-3.325-1.17-6.552-2.642-9.646-4.425c-3.093-1.782-5.986-3.841-8.669-6.139  c-4.081,4.649-8.926,8.633-14.44,11.815c-7.344,4.239-15.25,6.658-23.19,7.401c2.296,12.25,9.706,23.47,21.32,30.176  c11.619,6.707,25.047,7.513,36.809,3.372c-3.327-7.248-5.197-15.298-5.197-23.78C198.794,383.053,199.821,376.864,201.808,371.003z" fill="#A9C352"/><g opacity="0.2"><path d="M204,98.77c-1.67,3.62-2.96,7.44-3.84,11.41c-8.66-1.15-17.56,0.561-25.41,5.09c-7.84,4.53-13.77,11.391-17.1,19.45   c-3.86-1.229-7.811-2.02-11.811-2.4c2.351-12.619,10.011-23.6,21.34-30.159C178.54,95.61,191.9,94.47,204,98.77z"/><path d="M134.73,157.64c-8.17,3.38-14.971,9.32-19.46,17.11c-4.49,7.779-6.24,16.63-5.091,25.39c-3.949,0.87-7.77,2.15-11.42,3.82   c-0.37-1.061-0.72-2.13-1.01-3.23c-3.06-11.41-1.49-23.319,4.42-33.55c5.9-10.22,15.44-17.54,26.84-20.6   c1.101-0.29,2.21-0.53,3.32-0.74C132.7,149.85,133.51,153.8,134.73,157.64z"/><path d="M134.74,354.33c-1.23,3.89-2.01,7.84-2.38,11.81c-12.26-2.3-23.48-9.71-30.19-21.33c-5.91-10.22-7.479-22.14-4.42-33.54   c0.3-1.109,0.65-2.2,1.021-3.27c3.619,1.67,7.439,2.96,11.409,3.84c-1.149,8.77,0.601,17.62,5.091,25.41   C119.88,345.23,126.82,351.04,134.74,354.33z"/><path d="M101.81,280.52c-2.99,2.721-5.66,5.74-7.99,9.021C84.37,281.42,78.37,269.4,78.37,256c0-11.811,4.6-22.91,12.95-31.26   c0.8-0.811,1.64-1.561,2.49-2.301c2.329,3.28,5,6.301,7.979,9.021c-5.38,7.01-8.29,15.55-8.29,24.54   C93.5,265.21,96.6,273.71,101.81,280.52z"/><path d="M413.21,203.99c-3.62-1.66-7.439-2.961-11.42-3.851c1.11-8.5-0.45-17.41-5.06-25.39c-4.49-7.79-11.28-13.73-19.45-17.11   c1.21-3.89,2-7.84,2.37-11.8c1.109,0.21,2.229,0.45,3.34,0.74c11.41,3.06,20.939,10.38,26.84,20.6   C416.54,178.8,417.35,192.23,413.21,203.99z"/><path d="M289.54,93.82c-3.28,2.33-6.3,5-9.03,7.98c-6.8-5.2-15.3-8.3-24.51-8.3s-17.72,3.109-24.53,8.319   c-2.72-2.979-5.739-5.659-9.02-7.989c8.12-9.45,20.14-15.46,33.55-15.46C269.4,78.37,281.42,84.37,289.54,93.82z"/><path d="M366.13,132.32c-4.01,0.381-7.95,1.181-11.8,2.4c-3.29-7.91-9.1-14.84-17.08-19.45c-7.78-4.5-16.64-6.25-25.41-5.09   c-0.88-3.979-2.17-7.8-3.84-11.41c1.07-0.38,2.16-0.729,3.271-1.02c11.409-3.061,23.319-1.49,33.55,4.42   C356.42,108.87,363.83,120.08,366.13,132.32z"/><path d="M409.83,344.82c-5.9,10.23-15.43,17.54-26.84,20.591c-1.101,0.3-2.2,0.54-3.311,0.75c-0.38-4-1.17-7.95-2.399-11.811   c8.17-3.37,14.96-9.31,19.45-17.1c4.609-7.98,6.17-16.891,5.06-25.391c3.98-0.89,7.8-2.189,11.42-3.85   C417.35,319.77,416.54,333.2,409.83,344.82z"/><path d="M433.63,256c0,13.42-6.01,25.45-15.479,33.56c-2.3-3.25-4.96-6.28-7.96-9.03c5.21-6.81,8.31-15.31,8.31-24.529   c0-9.221-3.1-17.721-8.31-24.53c3-2.75,5.66-5.78,7.96-9.03C427.62,230.55,433.63,242.58,433.63,256z"/><path d="M366.15,379.69c-0.2,1.101-0.44,2.2-0.74,3.301c-3.05,11.409-10.37,20.939-20.6,26.84c-11.61,6.71-25.04,7.52-36.801,3.37   c1.66-3.62,2.96-7.431,3.851-11.41c8.5,1.109,17.41-0.45,25.39-5.061c7.78-4.489,13.72-11.279,17.101-19.439   C358.2,378.51,362.15,379.31,366.15,379.69z"/><path d="M289.55,418.16c-8.109,9.46-20.14,15.47-33.55,15.47s-25.439-6.01-33.55-15.47c3.25-2.311,6.27-4.96,9.03-7.971   c6.81,5.21,15.31,8.311,24.52,8.311s17.71-3.101,24.521-8.311C283.28,413.2,286.3,415.85,289.55,418.16z"/><path d="M203.99,413.2c-11.76,4.14-25.19,3.34-36.811-3.37c-11.609-6.7-19.02-17.92-21.319-30.17c3.97-0.37,7.93-1.17,11.819-2.391   c3.28,7.92,9.091,14.851,17.07,19.46c7.98,4.601,16.89,6.17,25.39,5.061C201.03,405.77,202.33,409.58,203.99,413.2z"/></g><path d="M256,181.874c-40.873,0-74.125,33.253-74.125,74.126c0,40.873,33.252,74.125,74.125,74.125  c40.874,0,74.127-33.252,74.127-74.125C330.127,215.127,296.874,181.874,256,181.874z" fill="#D712F9"/><g><g><path d="    M336.627,256.001c0,44.525-36.103,80.625-80.627,80.625c-44.522,0-80.626-36.1-80.626-80.625    c0-44.525,36.102-80.627,80.626-80.627C300.525,175.374,336.627,211.475,336.627,256.001z" fill="none" stroke="#010101" stroke-linecap="round" stroke-linejoin="round" stroke-miterlimit="10" stroke-width="4"/><path d="    M492.99,256.001c0-23.908-13.859-44.572-33.988-54.39c12.527-18.579,14.198-43.403,2.239-64.11    c-11.959-20.708-34.283-31.662-56.629-30.111c1.551-22.346-9.404-44.671-30.112-56.629c-20.707-11.96-45.531-10.289-64.11,2.238    C300.572,32.871,279.908,19.01,256,19.01c-23.907,0-44.571,13.86-54.39,33.988c-18.578-12.527-43.403-14.198-64.111-2.238    c-20.707,11.958-31.662,34.283-30.109,56.629c-22.348-1.551-44.671,9.403-56.631,30.111c-11.959,20.707-10.287,45.531,2.239,64.11    c-20.128,9.817-33.988,30.481-33.988,54.39c0,23.908,13.86,44.572,33.988,54.39c-12.526,18.578-14.198,43.402-2.239,64.111    c11.96,20.707,34.283,31.66,56.631,30.109c-1.553,22.346,9.402,44.67,30.109,56.629c20.708,11.961,45.533,10.289,64.111-2.238    c9.818,20.129,30.482,33.988,54.39,33.988c23.908,0,44.572-13.859,54.39-33.988c18.579,12.527,43.403,14.197,64.11,2.238    c20.708-11.959,31.663-34.283,30.112-56.629c22.346,1.551,44.669-9.402,56.629-30.109c11.96-20.709,10.288-45.533-2.239-64.111    C479.131,300.573,492.99,279.908,492.99,256.001z M174.403,174.405c-1.856,4.204-3.145,8.639-3.811,13.193    c-3.222-1.277-6.324-2.885-9.24-4.827" fill="none" stroke="#010101" stroke-linecap="round" stroke-linejoin="round" stroke-miterlimit="10" stroke-width="4"/></g><g><g><path d="     M295.768,154.062c6.833-8.646,10.938-19.583,10.938-31.486c0-28.011-22.696-50.706-50.707-50.706     c-28.009,0-50.706,22.695-50.706,50.706c0,11.903,4.106,22.841,10.938,31.486" fill="none" stroke="#010101" stroke-linecap="round" stroke-linejoin="round" stroke-miterlimit="10" stroke-width="4"/><path d="     M295.765,154.057c-2.851-3.604-6.182-6.805-9.896-9.523" fill="none" stroke="#010101" stroke-linecap="round" stroke-linejoin="round" stroke-miterlimit="10" stroke-width="4"/><path d="     M226.119,144.546c-3.714,2.707-7.034,5.919-9.886,9.512" fill="none" stroke="#010101" stroke-linecap="round" stroke-linejoin="round" stroke-miterlimit="10" stroke-width="4"/><path d="     M239.923,137.413c5.057-1.682,10.464-2.6,16.077-2.6c5.614,0,11.02,0.918,16.077,2.6" fill="none" stroke="#010101" stroke-linecap="round" stroke-linejoin="round" stroke-miterlimit="10" stroke-width="4"/></g><g><path d="     M170.593,187.598c-3.222-1.277-6.323-2.885-9.24-4.827c-6.379-4.195-11.894-9.907-15.979-16.973     c-4.947-8.574-7.109-17.989-6.771-27.195c0.633-16.853,9.655-33.005,25.328-42.071c15.694-9.053,34.195-8.779,49.093-0.895     c8.147,4.303,15.224,10.889,20.173,19.461c4.074,7.068,6.269,14.702,6.727,22.314c0.209,3.495,0.055,6.989-0.447,10.42" fill="none" stroke="#010101" stroke-linecap="round" stroke-linejoin="round" stroke-miterlimit="10" stroke-width="4"/><path d="     M239.475,147.833c-4.281-1.693-8.771-2.808-13.356-3.287" fill="none" stroke="#010101" stroke-linecap="round" stroke-linejoin="round" stroke-miterlimit="10" stroke-width="4"/><path d="     M174.403,174.405c-1.856,4.204-3.145,8.639-3.811,13.193" fill="none" stroke="#010101" stroke-linecap="round" stroke-linejoin="round" stroke-miterlimit="10" stroke-width="4"/><path d="     M182.77,161.353c3.527-3.987,7.766-7.493,12.637-10.299c4.871-2.808,10.015-4.719,15.236-5.778" fill="none" stroke="#010101" stroke-linecap="round" stroke-linejoin="round" stroke-miterlimit="10" stroke-width="4"/></g><g><path d="     M187.602,170.591c-4.068-10.241-11.488-19.264-21.799-25.216c-24.256-14.005-55.261-5.698-69.265,18.559     c-14.007,24.257-5.698,55.263,18.558,69.267c10.313,5.952,21.836,7.865,32.738,6.271" fill="none" stroke="#010101" stroke-linecap="round" stroke-linejoin="round" stroke-miterlimit="10" stroke-width="4"/><path d="     M145.276,210.643c1.059-5.222,2.97-10.365,5.777-15.236c2.807-4.871,6.313-9.109,10.299-12.636" fill="none" stroke="#010101" stroke-linecap="round" stroke-linejoin="round" stroke-miterlimit="10" stroke-width="4"/><path d="     M147.831,239.476c-1.692-4.281-2.806-8.771-3.287-13.358" fill="none" stroke="#010101" stroke-linecap="round" stroke-linejoin="round" stroke-miterlimit="10" stroke-width="4"/><path d="     M187.597,170.593c-4.554,0.667-8.988,1.955-13.194,3.813" fill="none" stroke="#010101" stroke-linecap="round" stroke-linejoin="round" stroke-miterlimit="10" stroke-width="4"/></g><g><path d="     M154.061,216.23c-8.646-6.833-19.582-10.937-31.486-10.937c-28.01-0.002-50.706,22.695-50.706,50.705     c0,28.009,22.696,50.708,50.706,50.708c11.904,0,22.84-4.107,31.486-10.938" fill="none" stroke="#010101" stroke-linecap="round" stroke-linejoin="round" stroke-miterlimit="10" stroke-width="4"/><path d="     M154.057,216.235c-3.594,2.851-6.805,6.17-9.514,9.883" fill="none" stroke="#010101" stroke-linecap="round" stroke-linejoin="round" stroke-miterlimit="10" stroke-width="4"/><path d="     M154.057,295.768c-3.594-2.852-6.805-6.172-9.514-9.887" fill="none" stroke="#010101" stroke-linecap="round" stroke-linejoin="round" stroke-miterlimit="10" stroke-width="4"/><path d="     M137.412,272.076c-1.683-5.057-2.599-10.463-2.599-16.076c0-5.614,0.916-11.02,2.599-16.078" fill="none" stroke="#010101" stroke-linecap="round" stroke-linejoin="round" stroke-miterlimit="10" stroke-width="4"/></g><g><path d="     M147.835,272.528c-10.904-1.596-22.426,0.32-32.738,6.271c-24.256,14.004-32.564,45.01-18.561,69.266     c14.007,24.258,45.012,32.564,69.268,18.561c10.311-5.951,17.729-14.979,21.799-25.215" fill="none" stroke="#010101" stroke-linecap="round" stroke-linejoin="round" stroke-miterlimit="10" stroke-width="4"/><path d="     M147.831,272.526c-1.692,4.281-2.806,8.77-3.287,13.355" fill="none" stroke="#010101" stroke-linecap="round" stroke-linejoin="round" stroke-miterlimit="10" stroke-width="4"/><path d="     M187.597,341.408c-4.544-0.666-8.988-1.955-13.183-3.813" fill="none" stroke="#010101" stroke-linecap="round" stroke-linejoin="round" stroke-miterlimit="10" stroke-width="4"/><path d="     M145.276,301.358c1.059,5.221,2.97,10.363,5.777,15.236c2.807,4.871,6.303,9.096,10.288,12.625" fill="none" stroke="#010101" stroke-linecap="round" stroke-linejoin="round" stroke-miterlimit="10" stroke-width="4"/></g><g><path d="     M170.59,324.395c-10.241,4.072-19.263,11.492-25.216,21.805c-14.004,24.254-5.697,55.258,18.559,69.262     c24.257,14.004,55.262,5.699,69.269-18.557c5.952-10.313,7.864-21.838,6.271-32.74" fill="none" stroke="#010101" stroke-linecap="round" stroke-linejoin="round" stroke-miterlimit="10" stroke-width="4"/><path d="     M174.415,337.596c-1.868-4.205-3.156-8.65-3.822-13.205" fill="none" stroke="#010101" stroke-linecap="round" stroke-linejoin="round" stroke-miterlimit="10" stroke-width="4"/><path d="     M239.475,364.168c-4.281,1.693-8.759,2.807-13.336,3.289h-0.01" fill="none" stroke="#010101" stroke-linecap="round" stroke-linejoin="round" stroke-miterlimit="10" stroke-width="4"/><path d="     M210.643,366.725h-0.012c-5.221-1.061-10.354-2.971-15.225-5.777s-9.109-6.313-12.637-10.301" fill="none" stroke="#010101" stroke-linecap="round" stroke-linejoin="round" stroke-miterlimit="10" stroke-width="4"/></g><g><path d="     M216.229,357.938c-6.834,8.645-10.936,19.582-10.936,31.486c0,28.012,22.695,50.707,50.704,50.707     c28.01,0,50.709-22.695,50.709-50.707c0-11.904-4.109-22.842-10.938-31.484" fill="none" stroke="#010101" stroke-linecap="round" stroke-linejoin="round" stroke-miterlimit="10" stroke-width="4"/><path d="     M216.233,357.932c2.852,3.605,6.182,6.805,9.896,9.525h0.01" fill="none" stroke="#010101" stroke-linecap="round" stroke-linejoin="round" stroke-miterlimit="10" stroke-width="4"/><path d="     M295.765,357.944c-2.851,3.594-6.17,6.805-9.884,9.514" fill="none" stroke="#010101" stroke-linecap="round" stroke-linejoin="round" stroke-miterlimit="10" stroke-width="4"/><path d="     M239.923,374.588c5.057,1.682,10.464,2.6,16.077,2.6c5.614,0,11.02-0.918,16.077-2.6" fill="none" stroke="#010101" stroke-linecap="round" stroke-linejoin="round" stroke-miterlimit="10" stroke-width="4"/></g><g><path d="     M272.526,364.164c-1.596,10.904,0.32,22.428,6.272,32.738c14.007,24.258,45.009,32.564,69.265,18.561     c24.258-14.004,32.565-45.014,18.563-69.266c-5.952-10.311-14.979-17.727-25.216-21.799" fill="none" stroke="#010101" stroke-linecap="round" stroke-linejoin="round" stroke-miterlimit="10" stroke-width="4"/><path d="     M285.882,367.457c-4.587-0.48-9.077-1.596-13.357-3.289" fill="none" stroke="#010101" stroke-linecap="round" stroke-linejoin="round" stroke-miterlimit="10" stroke-width="4"/><path d="     M341.408,324.391c-0.667,4.555-1.955,8.988-3.823,13.193v0.012" fill="none" stroke="#010101" stroke-linecap="round" stroke-linejoin="round" stroke-miterlimit="10" stroke-width="4"/><path d="     M301.358,366.725c5.22-1.061,10.363-2.971,15.235-5.777c4.871-2.807,9.098-6.303,12.625-10.289" fill="none" stroke="#010101" stroke-linecap="round" stroke-linejoin="round" stroke-miterlimit="10" stroke-width="4"/></g><g><path d="     M324.394,341.41c4.071,10.24,11.492,19.264,21.801,25.213c24.258,14.006,55.264,5.701,69.266-18.555     c14.007-24.258,5.695-55.266-18.556-69.27c-10.312-5.951-21.837-7.863-32.74-6.27" fill="none" stroke="#010101" stroke-linecap="round" stroke-linejoin="round" stroke-miterlimit="10" stroke-width="4"/><path d="     M324.391,341.408c4.555-0.666,8.988-1.955,13.193-3.813v-0.012" fill="none" stroke="#010101" stroke-linecap="round" stroke-linejoin="round" stroke-miterlimit="10" stroke-width="4"/><path d="     M364.169,272.526c1.692,4.281,2.807,8.76,3.287,13.334v0.012" fill="none" stroke="#010101" stroke-linecap="round" stroke-linejoin="round" stroke-miterlimit="10" stroke-width="4"/><path d="     M366.723,301.358v0.012c-1.059,5.221-2.97,10.352-5.777,15.225c-2.806,4.871-6.301,9.096-10.288,12.625" fill="none" stroke="#010101" stroke-linecap="round" stroke-linejoin="round" stroke-miterlimit="10" stroke-width="4"/></g><g><path d="     M357.936,295.77c8.646,6.834,19.585,10.938,31.486,10.938c28.012,0,50.709-22.697,50.709-50.705     c0.002-28.012-22.698-50.709-50.707-50.711c-11.903,0.002-22.843,4.109-31.486,10.938" fill="none" stroke="#010101" stroke-linecap="round" stroke-linejoin="round" stroke-miterlimit="10" stroke-width="4"/><path d="     M357.932,295.768c3.604-2.852,6.804-6.184,9.523-9.898v-0.01" fill="none" stroke="#010101" stroke-linecap="round" stroke-linejoin="round" stroke-miterlimit="10" stroke-width="4"/><path d="     M367.456,226.118c-2.707-3.701-5.92-7.032-9.513-9.883" fill="none" stroke="#010101" stroke-linecap="round" stroke-linejoin="round" stroke-miterlimit="10" stroke-width="4"/><path d="     M374.577,239.923c1.692,5.047,2.6,10.453,2.6,16.078c0,5.613-0.918,11.019-2.6,16.076" fill="none" stroke="#010101" stroke-linecap="round" stroke-linejoin="round" stroke-miterlimit="10" stroke-width="4"/></g><g><path d="     M364.163,239.471c10.906,1.599,22.429-0.32,32.739-6.27c24.258-14.006,32.565-45.011,18.561-69.267     c-14.002-24.259-45.012-32.563-69.268-18.563c-10.308,5.954-17.727,14.981-21.798,25.216" fill="none" stroke="#010101" stroke-linecap="round" stroke-linejoin="round" stroke-miterlimit="10" stroke-width="4"/><path d="     M367.456,226.118c-0.479,4.577-1.595,9.077-3.287,13.358" fill="none" stroke="#010101" stroke-linecap="round" stroke-linejoin="round" stroke-miterlimit="10" stroke-width="4"/><path d="     M324.391,170.593c4.555,0.667,8.978,1.955,13.183,3.813l0.011,0.01" fill="none" stroke="#010101" stroke-linecap="round" stroke-linejoin="round" stroke-miterlimit="10" stroke-width="4"/><path d="     M350.658,182.782c3.987,3.527,7.482,7.754,10.288,12.625c2.808,4.871,4.719,10.015,5.777,15.236" fill="none" stroke="#010101" stroke-linecap="round" stroke-linejoin="round" stroke-miterlimit="10" stroke-width="4"/></g><g><path d="     M341.408,187.604c10.243-4.072,19.263-11.493,25.216-21.799c14.005-24.261,5.697-55.266-18.557-69.27     c-24.256-14.006-55.265-5.695-69.271,18.561c-5.949,10.309-7.86,21.836-6.268,32.736" fill="none" stroke="#010101" stroke-linecap="round" stroke-linejoin="round" stroke-miterlimit="10" stroke-width="4"/><path d="     M301.369,145.264c5.221,1.061,10.353,2.973,15.225,5.79c4.871,2.806,9.098,6.312,12.625,10.299" fill="none" stroke="#010101" stroke-linecap="round" stroke-linejoin="round" stroke-miterlimit="10" stroke-width="4"/><path d="     M337.574,174.405l0.011,0.01c1.868,4.205,3.156,8.64,3.823,13.194" fill="none" stroke="#010101" stroke-linecap="round" stroke-linejoin="round" stroke-miterlimit="10" stroke-width="4"/><path d="     M285.871,144.534c-4.575,0.491-9.065,1.605-13.347,3.299" fill="none" stroke="#010101" stroke-linecap="round" stroke-linejoin="round" stroke-miterlimit="10" stroke-width="4"/></g></g></g><circle cx="492.99" cy="388.09" fill="#A9C352" r="12"/><circle cx="458.741" cy="59.87" fill="#A9C352" r="12"/><circle cx="396.51" cy="25.51" fill="#A9C352" r="12"/><circle cx="48.997" cy="47.87" fill="#A9C352" r="12"/><circle cx="25.51" cy="421.91" fill="#A9C352" r="12"/><circle cx="104.835" cy="486.49" fill="#A9C352" r="12"/><circle cx="368.388" cy="486.49" fill="#A9C352" r="12"/><g><line fill="none" stroke="#D712F9" stroke-miterlimit="10" stroke-width="5" x1="87.405" x2="69.335" y1="431.096" y2="449.167"/><line fill="none" stroke="#D712F9" stroke-miterlimit="10" stroke-width="5" x1="69.335" x2="87.405" y1="431.096" y2="449.167"/></g><g><line fill="none" stroke="#D712F9" stroke-miterlimit="10" stroke-width="5" x1="46.031" x2="27.962" y1="106.436" y2="124.507"/><line fill="none" stroke="#D712F9" stroke-miterlimit="10" stroke-width="5" x1="27.962" x2="46.031" y1="106.436" y2="124.507"/></g><g><line fill="none" stroke="#D712F9" stroke-miterlimit="10" stroke-width="5" x1="110.845" x2="92.776" y1="26.834" y2="44.906"/><line fill="none" stroke="#D712F9" stroke-miterlimit="10" stroke-width="5" x1="92.776" x2="110.845" y1="26.834" y2="44.906"/></g><g><line fill="none" stroke="#D712F9" stroke-miterlimit="10" stroke-width="5" x1="490.024" x2="471.955" y1="106.436" y2="124.507"/><line fill="none" stroke="#D712F9" stroke-miterlimit="10" stroke-width="5" x1="471.955" x2="490.024" y1="106.436" y2="124.507"/></g><g><line fill="none" stroke="#D712F9" stroke-miterlimit="10" stroke-width="5" x1="467.776" x2="449.707" y1="449.167" y2="467.239"/><line fill="none" stroke="#D712F9" stroke-miterlimit="10" stroke-width="5" x1="449.707" x2="467.776" y1="449.167" y2="467.239"/></g></svg>