<?xml version="1.0" ?><!DOCTYPE svg  PUBLIC '-//W3C//DTD SVG 1.1//EN'  'http://www.w3.org/Graphics/SVG/1.1/DTD/svg11.dtd'><svg enable-background="new 0 0 512 512" height="512px" id="Calque_1" version="1.1" viewBox="0 0 512 512" width="512px" xml:space="preserve" xmlns="http://www.w3.org/2000/svg" xmlns:xlink="http://www.w3.org/1999/xlink"><g id="Calque_1_1_"/><path d="M449.07,317.02c0-0.029,0-0.06,0.01-0.09c0.01-0.17,0.03-0.35,0.06-0.529c0.021-0.07,0.03-0.141,0.051-0.21  c0.029-0.131,0.05-0.261,0.09-0.391c0.04-0.17,0.1-0.33,0.16-0.5c0.01-0.03,0.02-0.06,0.029-0.09c0.28-0.74,0.7-1.44,1.25-2.04  c0.021-0.03,0.04-0.06,0.061-0.08c0.09-0.1,0.189-0.189,0.29-0.28c0.06-0.06,0.109-0.119,0.17-0.17c0.08-0.069,0.17-0.13,0.25-0.199  c0.09-0.07,0.17-0.141,0.26-0.21c0.08-0.051,0.17-0.101,0.25-0.16c0.1-0.061,0.2-0.13,0.31-0.19c0-0.01,0.011-0.01,0.021-0.02  c0.11-0.061,0.229-0.12,0.35-0.17c0.07-0.04,0.13-0.07,0.19-0.101c25.71-11.6,38.5-40.63,29.77-67.52  c-4.569-14.06-14.34-25.51-27.52-32.22c-13.17-6.72-28.17-7.9-42.23-3.33c-3.42,1.11-7.09-0.76-8.189-4.17  c-0.22-0.67-0.32-1.34-0.32-2.01c0-2.74,1.74-5.29,4.49-6.18c14.07-4.57,25.51-14.34,32.22-27.51s7.891-28.17,3.32-42.24  c-8.73-26.87-36.141-42.83-63.76-37.13c-0.101,0.02-0.2,0.03-0.29,0.05c-0.11,0.01-0.2,0.03-0.311,0.05c-0.01,0-0.01,0-0.02,0  c-0.15,0.01-0.29,0.02-0.44,0.02c-0.07,0.01-0.149,0.01-0.22,0.01c-0.13,0.01-0.26,0-0.39-0.01c-0.091-0.01-0.171-0.01-0.261-0.01  c-0.09-0.01-0.18-0.03-0.27-0.04c-0.13-0.02-0.25-0.03-0.37-0.06c-0.04,0-0.08-0.02-0.11-0.02c-1-0.22-1.93-0.66-2.71-1.29  c-0.01-0.01-0.02-0.02-0.029-0.03c-0.15-0.12-0.29-0.25-0.431-0.38c-0.05-0.05-0.1-0.11-0.149-0.17c-0.101-0.09-0.19-0.19-0.28-0.29  c-0.061-0.07-0.12-0.16-0.18-0.24c-0.07-0.08-0.141-0.17-0.2-0.25c-0.061-0.09-0.11-0.18-0.16-0.27c-0.061-0.09-0.12-0.18-0.17-0.27  c-0.05-0.08-0.08-0.17-0.12-0.25c-0.06-0.11-0.12-0.22-0.17-0.33c-0.03-0.08-0.061-0.15-0.09-0.23c-0.04-0.13-0.09-0.25-0.141-0.38  c-0.02-0.08-0.04-0.18-0.069-0.27c-0.03-0.12-0.07-0.24-0.09-0.36c0-0.01-0.011-0.02-0.011-0.03c-0.029-0.13-0.04-0.26-0.06-0.39  c-0.01-0.07-0.03-0.14-0.03-0.21c-3.12-28.03-26.77-49.16-55.02-49.16c-30.521,0-55.36,24.83-55.36,55.34c0,3.59-2.91,6.5-6.5,6.5  s-6.5-2.91-6.5-6.5c0-30.51-24.83-55.34-55.36-55.34c-28.25,0-51.9,21.13-55.01,49.16c-0.01,0.12-0.04,0.23-0.06,0.34  c-0.01,0.08-0.02,0.17-0.04,0.26c0,0.01,0,0.01,0,0.02c-0.04,0.17-0.08,0.33-0.13,0.5c-0.01,0.04-0.02,0.09-0.04,0.13  c-0.06,0.19-0.12,0.36-0.2,0.54c-0.01,0.02-0.01,0.05-0.02,0.07c-0.08,0.19-0.17,0.37-0.27,0.54c-0.01,0.01-0.01,0.02-0.01,0.03  c-0.92,1.65-2.52,2.84-4.38,3.22c-0.02,0-0.03,0.01-0.05,0.01c-0.13,0.03-0.26,0.04-0.38,0.06c-0.09,0.01-0.17,0.03-0.26,0.04  c-0.08,0-0.17,0-0.25,0.01c-0.14,0.01-0.27,0.02-0.41,0.01c-0.06,0-0.13,0-0.2-0.01c-0.15,0-0.3-0.01-0.45-0.02h-0.03  c-0.1-0.02-0.2-0.04-0.3-0.05c-0.1-0.02-0.2-0.03-0.3-0.05c-27.63-5.7-55.04,10.26-63.77,37.12c-4.56,14.06-3.38,29.06,3.33,42.24  c6.71,13.16,18.13,22.93,32.18,27.51c0.01,0,0.03,0,0.04,0.01c2.74,0.89,4.49,3.44,4.49,6.18c0,0.66-0.1,1.34-0.32,2.01  c-1.1,3.41-4.77,5.28-8.19,4.17c-29.03-9.43-60.33,6.52-69.76,35.55c-8.72,26.871,4.08,55.89,29.77,67.5  c0.12,0.06,0.23,0.12,0.34,0.18c0.07,0.03,0.13,0.06,0.2,0.1c0.01,0,0.01,0.011,0.02,0.011c0.15,0.09,0.29,0.18,0.44,0.279  c0.03,0.03,0.07,0.051,0.11,0.07c0.14,0.1,0.27,0.21,0.39,0.31c0.04,0.04,0.08,0.07,0.12,0.101c0.11,0.09,0.2,0.189,0.3,0.29  c0.06,0.05,0.11,0.1,0.16,0.16c0.07,0.069,0.13,0.149,0.2,0.229c0.07,0.09,0.15,0.17,0.22,0.26c0.03,0.051,0.06,0.101,0.1,0.15  c0.09,0.12,0.17,0.24,0.25,0.37c0.02,0.03,0.03,0.06,0.05,0.09c0.09,0.15,0.18,0.3,0.26,0.46c0.01,0.03,0.02,0.061,0.03,0.09  c0.08,0.16,0.15,0.311,0.21,0.48c0.03,0.06,0.04,0.13,0.07,0.189c0.04,0.13,0.09,0.261,0.12,0.4c0.03,0.1,0.05,0.21,0.08,0.32  c0.02,0.09,0.04,0.189,0.06,0.279c0.02,0.13,0.03,0.271,0.05,0.4c0.01,0.07,0.02,0.15,0.03,0.22c0.01,0.13,0,0.25,0.01,0.38v0.25  c0,0.101-0.01,0.2-0.02,0.301c-0.01,0.109-0.01,0.229-0.02,0.34c-0.01,0.069-0.03,0.14-0.04,0.22c-0.02,0.13-0.04,0.28-0.07,0.41  c-0.01,0.06-0.03,0.109-0.05,0.17c-0.04,0.15-0.08,0.31-0.13,0.46c-0.01,0.06-0.04,0.11-0.06,0.16c-0.05,0.149-0.11,0.3-0.17,0.45  c-0.01,0.01-0.01,0.02-0.01,0.02c-0.01,0.021-0.03,0.04-0.04,0.061c-0.07,0.17-0.15,0.329-0.24,0.479  c-13.96,24.51-7.25,55.51,15.61,72.12c11.96,8.7,26.59,12.21,41.19,9.9c14.61-2.311,27.44-10.171,36.13-22.131  c2.11-2.909,6.18-3.55,9.08-1.439c1.75,1.27,2.68,3.25,2.68,5.26c0,1.33-0.4,2.66-1.24,3.82c-8.7,11.96-12.21,26.59-9.9,41.2  c2.32,14.6,10.18,27.43,22.15,36.119c22.86,16.601,54.41,13.4,73.39-7.439c0.08-0.09,0.17-0.17,0.25-0.25  c0.06-0.061,0.12-0.12,0.18-0.18c0.01-0.011,0.01-0.011,0.02-0.011c0.13-0.12,0.26-0.229,0.4-0.33c0.04-0.029,0.07-0.06,0.11-0.09  c0.13-0.1,0.28-0.189,0.42-0.279c0.04-0.03,0.08-0.061,0.12-0.08c0.13-0.08,0.26-0.141,0.39-0.2c0.06-0.04,0.12-0.07,0.18-0.101  c0.1-0.05,0.2-0.08,0.3-0.13c0.1-0.029,0.2-0.08,0.29-0.109c0.07-0.03,0.13-0.04,0.2-0.061c0.13-0.04,0.27-0.09,0.41-0.12  c0.03-0.01,0.06-0.01,0.09-0.02c0.18-0.04,0.35-0.08,0.52-0.101c0.03,0,0.05,0,0.07-0.01c0.19-0.02,0.37-0.04,0.55-0.05h0.62  c0.11,0.01,0.22,0.02,0.32,0.03c0.1,0.01,0.2,0.02,0.3,0.029c0.13,0.021,0.271,0.051,0.4,0.08c0.069,0.011,0.14,0.021,0.21,0.04  c0.13,0.03,0.26,0.07,0.39,0.11c0.07,0.02,0.14,0.04,0.22,0.07c0.101,0.029,0.2,0.08,0.301,0.12c0.1,0.039,0.189,0.069,0.29,0.119  c0.069,0.03,0.149,0.08,0.22,0.11c0.12,0.06,0.229,0.12,0.35,0.19c0.05,0.029,0.11,0.069,0.16,0.109c0.13,0.08,0.26,0.16,0.38,0.25  c0.05,0.04,0.101,0.08,0.15,0.12c0.12,0.101,0.24,0.19,0.359,0.29c0,0.01,0.011,0.01,0.021,0.021c0.07,0.069,0.14,0.14,0.21,0.21  c0.07,0.069,0.15,0.14,0.22,0.22c18.99,20.86,50.55,24.06,73.4,7.45c11.97-8.7,19.84-21.53,22.149-36.13  c2.311-14.61-1.199-29.24-9.899-41.2c-0.84-1.16-1.24-2.49-1.24-3.82c0-2.01,0.93-3.99,2.68-5.26c2.9-2.11,6.971-1.47,9.08,1.439  c8.69,11.96,21.53,19.82,36.13,22.141c14.601,2.31,29.23-1.2,41.19-9.891c22.87-16.609,29.57-47.609,15.61-72.119  c-0.091-0.15-0.16-0.311-0.23-0.461c-0.02-0.029-0.03-0.06-0.05-0.09c0-0.01,0-0.01-0.01-0.02c-0.051-0.11-0.08-0.22-0.13-0.33  c-0.03-0.1-0.07-0.19-0.101-0.29c-0.04-0.11-0.07-0.23-0.1-0.34c-0.03-0.09-0.061-0.19-0.08-0.28c-0.021-0.1-0.03-0.2-0.05-0.3  c-0.021-0.11-0.04-0.22-0.061-0.34c-0.01-0.061-0.01-0.13-0.01-0.2c-0.01-0.14-0.03-0.29-0.03-0.43v-0.12  C449.05,317.361,449.05,317.191,449.07,317.02z M256,307.76c-28.44,0-51.58-23.14-51.58-51.58c0-28.45,23.14-51.58,51.58-51.58  c28.44,0,51.58,23.13,51.58,51.58C307.58,284.62,284.44,307.76,256,307.76z" fill="#FF50CE"/><path d="M449.071,317.696c0-0.03,0-0.061,0.011-0.09c0.01-0.171,0.029-0.351,0.06-0.53  c0.021-0.07,0.03-0.141,0.05-0.21c0.03-0.13,0.051-0.26,0.09-0.391c0.04-0.17,0.101-0.329,0.16-0.5  c0.011-0.029,0.021-0.06,0.03-0.09c0.28-0.739,0.7-1.439,1.25-2.04c0.021-0.029,0.04-0.06,0.06-0.08  c0.091-0.1,0.19-0.189,0.29-0.279c0.061-0.061,0.11-0.12,0.171-0.17c0.079-0.07,0.17-0.131,0.25-0.2c0.09-0.07,0.17-0.141,0.26-0.21  c0.08-0.05,0.17-0.101,0.25-0.16c0.1-0.061,0.2-0.13,0.31-0.19c0-0.01,0.01-0.01,0.021-0.02c0.109-0.061,0.229-0.12,0.35-0.17  c0.07-0.04,0.13-0.07,0.19-0.101c25.71-11.6,38.5-40.63,29.77-67.52c-4.57-14.061-14.34-25.51-27.52-32.22  c-13.17-6.721-28.17-7.9-42.23-3.33c-3.42,1.109-7.09-0.761-8.189-4.17c-0.221-0.67-0.32-1.341-0.32-2.011  c0-2.739,1.74-5.29,4.49-6.18c14.069-4.57,25.51-14.34,32.22-27.51s7.89-28.17,3.32-42.24c-8.73-26.87-36.141-42.83-63.761-37.13  c-0.1,0.02-0.199,0.03-0.29,0.05c-0.109,0.01-0.199,0.03-0.31,0.05c-0.01,0-0.01,0-0.021,0c-0.149,0.011-0.289,0.021-0.439,0.021  c-0.07,0.01-0.15,0.01-0.22,0.01c-0.13,0.01-0.261,0-0.391-0.01c-0.09-0.01-0.17-0.01-0.26-0.01c-0.09-0.011-0.18-0.03-0.27-0.04  c-0.131-0.021-0.25-0.03-0.37-0.061c-0.04,0-0.08-0.02-0.11-0.02c-1-0.221-1.93-0.66-2.71-1.29c-0.01-0.01-0.02-0.021-0.03-0.03  c-0.149-0.12-0.29-0.25-0.43-0.38c-0.05-0.05-0.1-0.11-0.15-0.17c-0.1-0.09-0.189-0.19-0.279-0.29c-0.061-0.07-0.12-0.16-0.181-0.24  c-0.069-0.08-0.14-0.17-0.199-0.25c-0.061-0.09-0.11-0.18-0.16-0.27c-0.061-0.091-0.12-0.181-0.17-0.271  c-0.051-0.08-0.08-0.17-0.12-0.25c-0.061-0.109-0.12-0.22-0.17-0.33c-0.03-0.08-0.061-0.149-0.091-0.229  c-0.039-0.13-0.09-0.25-0.14-0.38c-0.02-0.08-0.04-0.181-0.07-0.271c-0.029-0.12-0.069-0.24-0.09-0.36c0-0.01-0.01-0.02-0.01-0.029  c-0.03-0.13-0.04-0.26-0.06-0.391c-0.011-0.069-0.03-0.14-0.03-0.21c-3.12-28.029-26.771-49.159-55.021-49.159  c-30.52,0-55.359,24.829-55.359,55.34c0,3.59-2.91,6.5-6.5,6.5s-6.5-2.91-6.5-6.5c0-30.511-24.83-55.34-55.36-55.34  c-28.25,0-51.9,21.13-55.01,49.159c-0.01,0.12-0.04,0.23-0.06,0.341c-0.01,0.079-0.02,0.17-0.04,0.26c0,0.01,0,0.01,0,0.02  c-0.04,0.17-0.08,0.33-0.13,0.5c-0.01,0.04-0.02,0.09-0.04,0.13c-0.06,0.19-0.12,0.36-0.2,0.54c-0.01,0.021-0.01,0.051-0.02,0.07  c-0.08,0.19-0.17,0.37-0.27,0.54c-0.01,0.01-0.01,0.02-0.01,0.03c-0.92,1.649-2.52,2.84-4.38,3.22c-0.02,0-0.03,0.01-0.05,0.01  c-0.13,0.03-0.26,0.04-0.38,0.061c-0.09,0.01-0.17,0.029-0.26,0.04c-0.08,0-0.17,0-0.25,0.01c-0.14,0.01-0.27,0.02-0.41,0.01  c-0.06,0-0.13,0-0.2-0.01c-0.15,0-0.3-0.01-0.45-0.021h-0.03c-0.1-0.02-0.2-0.04-0.3-0.05c-0.1-0.02-0.2-0.03-0.3-0.05  c-27.63-5.7-55.04,10.26-63.77,37.12c-4.56,14.06-3.38,29.06,3.33,42.24c6.71,13.159,18.13,22.93,32.18,27.51  c0.01,0,0.03,0,0.04,0.01c2.74,0.89,4.49,3.44,4.49,6.18c0,0.66-0.1,1.341-0.32,2.011c-1.1,3.409-4.77,5.279-8.19,4.17  c-29.03-9.431-60.33,6.52-69.76,35.55c-8.72,26.87,4.08,55.89,29.77,67.5c0.12,0.06,0.23,0.12,0.34,0.18  c0.07,0.03,0.13,0.061,0.2,0.101c0.01,0,0.01,0.01,0.02,0.01c0.15,0.09,0.29,0.18,0.44,0.28c0.03,0.029,0.07,0.05,0.11,0.069  c0.14,0.101,0.27,0.21,0.39,0.311c0.04,0.04,0.08,0.069,0.12,0.1c0.11,0.09,0.2,0.19,0.3,0.29c0.06,0.05,0.11,0.1,0.16,0.16  c0.07,0.07,0.13,0.15,0.2,0.229c0.07,0.091,0.15,0.171,0.22,0.261c0.03,0.05,0.06,0.1,0.1,0.149c0.09,0.12,0.17,0.24,0.25,0.37  c0.02,0.03,0.03,0.061,0.05,0.09c0.09,0.15,0.18,0.301,0.26,0.46c0.01,0.03,0.02,0.061,0.03,0.091c0.08,0.159,0.15,0.31,0.21,0.479  c0.03,0.06,0.04,0.13,0.07,0.19c0.04,0.13,0.09,0.26,0.12,0.399c0.03,0.101,0.05,0.21,0.08,0.32c0.02,0.09,0.04,0.189,0.06,0.28  c0.02,0.13,0.03,0.27,0.05,0.399c0.01,0.07,0.02,0.15,0.03,0.22c0.01,0.131,0,0.25,0.01,0.381v0.25c0,0.1-0.01,0.199-0.02,0.3  c-0.01,0.109-0.01,0.229-0.02,0.34c-0.01,0.07-0.03,0.14-0.04,0.22c-0.02,0.13-0.04,0.28-0.07,0.41c-0.01,0.061-0.03,0.11-0.05,0.17  c-0.04,0.15-0.08,0.311-0.13,0.46c-0.01,0.061-0.04,0.11-0.06,0.16c-0.05,0.15-0.11,0.3-0.17,0.45c-0.01,0.01-0.01,0.02-0.01,0.02  c-0.01,0.021-0.03,0.04-0.04,0.061c-0.07,0.17-0.15,0.33-0.24,0.479c-13.96,24.511-7.25,55.511,15.61,72.12  c11.96,8.7,26.59,12.21,41.19,9.9c14.61-2.311,27.44-10.17,36.13-22.13c2.11-2.91,6.18-3.551,9.08-1.44  c1.75,1.271,2.68,3.25,2.68,5.26c0,1.33-0.4,2.66-1.24,3.82c-8.7,11.96-12.21,26.59-9.9,41.2c2.32,14.6,10.18,27.43,22.15,36.12  c22.86,16.6,54.41,13.399,73.39-7.44c0.08-0.09,0.17-0.17,0.25-0.25c0.06-0.06,0.12-0.12,0.18-0.18c0.01-0.01,0.01-0.01,0.02-0.01  c0.13-0.12,0.26-0.23,0.4-0.33c0.04-0.03,0.07-0.061,0.11-0.091c0.13-0.1,0.28-0.189,0.42-0.279c0.04-0.03,0.08-0.061,0.12-0.08  c0.13-0.08,0.26-0.141,0.39-0.2c0.06-0.04,0.12-0.07,0.18-0.1c0.1-0.051,0.2-0.08,0.3-0.13c0.1-0.03,0.2-0.08,0.29-0.11  c0.07-0.03,0.13-0.04,0.2-0.061c0.13-0.04,0.27-0.09,0.41-0.119c0.03-0.011,0.06-0.011,0.09-0.021c0.18-0.04,0.35-0.08,0.52-0.1  c0.03,0,0.05,0,0.07-0.011c0.19-0.02,0.37-0.04,0.55-0.05h0.62c0.11,0.01,0.22,0.021,0.32,0.03c0.1,0.01,0.199,0.02,0.3,0.03  c0.13,0.02,0.27,0.05,0.399,0.08c0.07,0.01,0.141,0.02,0.21,0.04c0.131,0.029,0.261,0.069,0.391,0.109  c0.07,0.021,0.14,0.04,0.22,0.07c0.101,0.03,0.2,0.08,0.3,0.12c0.101,0.04,0.19,0.069,0.29,0.12c0.07,0.029,0.15,0.08,0.221,0.109  c0.119,0.061,0.229,0.12,0.35,0.19c0.05,0.03,0.11,0.07,0.16,0.109c0.13,0.08,0.26,0.16,0.38,0.25c0.05,0.04,0.1,0.08,0.15,0.12  c0.119,0.101,0.239,0.19,0.359,0.29c0,0.011,0.01,0.011,0.021,0.021c0.069,0.069,0.14,0.14,0.21,0.21  c0.069,0.07,0.149,0.14,0.22,0.22c18.99,20.86,50.55,24.061,73.4,7.45c11.97-8.7,19.84-21.53,22.149-36.13  c2.311-14.61-1.2-29.24-9.899-41.2c-0.841-1.16-1.24-2.49-1.24-3.82c0-2.01,0.93-3.989,2.68-5.26c2.9-2.11,6.97-1.47,9.08,1.44  c8.69,11.96,21.53,19.819,36.13,22.14c14.601,2.31,29.23-1.2,41.19-9.89c22.87-16.61,29.569-47.61,15.609-72.12  c-0.09-0.15-0.159-0.311-0.229-0.46c-0.021-0.03-0.03-0.061-0.05-0.09c0-0.011,0-0.011-0.011-0.021c-0.05-0.11-0.08-0.22-0.13-0.33  c-0.029-0.1-0.069-0.189-0.1-0.29c-0.04-0.109-0.07-0.229-0.101-0.34c-0.029-0.09-0.06-0.19-0.079-0.28  c-0.021-0.1-0.03-0.199-0.051-0.3c-0.02-0.11-0.04-0.22-0.06-0.34c-0.01-0.06-0.01-0.13-0.01-0.2c-0.011-0.14-0.03-0.29-0.03-0.43  v-0.12C449.052,318.035,449.052,317.865,449.071,317.696z M423.691,303.925c-0.05,0.03-0.1,0.05-0.16,0.09  c-0.109,0.04-0.21,0.091-0.3,0.141c-0.01,0.01-0.02,0.01-0.02,0.02c-0.09,0.05-0.181,0.11-0.26,0.16  c-0.07,0.05-0.15,0.09-0.221,0.14c-0.069,0.061-0.14,0.12-0.22,0.181c-0.07,0.06-0.14,0.109-0.21,0.17  c-0.05,0.04-0.09,0.09-0.15,0.14c-0.08,0.08-0.17,0.16-0.239,0.24c-0.021,0.02-0.04,0.04-0.051,0.07  c-0.47,0.51-0.83,1.109-1.069,1.739c-0.011,0.021-0.021,0.051-0.021,0.07c-0.06,0.15-0.109,0.28-0.14,0.43  c-0.03,0.11-0.05,0.221-0.08,0.33c-0.01,0.061-0.021,0.12-0.04,0.181c-0.02,0.149-0.04,0.31-0.05,0.449  c-0.01,0.03-0.01,0.051-0.01,0.08c-0.021,0.141-0.021,0.29-0.021,0.431v0.1c0,0.12,0.021,0.25,0.03,0.37c0,0.06,0,0.12,0.01,0.17  c0.021,0.1,0.03,0.2,0.05,0.29c0.021,0.08,0.021,0.17,0.04,0.26c0.021,0.07,0.04,0.16,0.07,0.24c0.03,0.09,0.05,0.19,0.08,0.28  s0.06,0.17,0.09,0.25c0.04,0.1,0.07,0.189,0.11,0.279c0.01,0.011,0.01,0.011,0.01,0.021c0.02,0.02,0.03,0.05,0.04,0.08  c0.06,0.12,0.12,0.26,0.2,0.39c11.89,20.87,6.18,47.28-13.301,61.431c-10.189,7.399-22.649,10.39-35.08,8.42  c-12.439-1.98-23.38-8.67-30.779-18.86c-1.79-2.47-5.26-3.021-7.73-1.22c-1.49,1.08-2.279,2.76-2.279,4.479  c0,1.13,0.34,2.26,1.05,3.25c7.41,10.19,10.399,22.65,8.43,35.09c-1.96,12.44-8.67,23.37-18.86,30.78  c-19.46,14.15-46.35,11.42-62.52-6.35c-0.061-0.07-0.13-0.13-0.19-0.181c-0.06-0.06-0.12-0.12-0.18-0.18  c-0.01-0.01-0.02-0.01-0.02-0.02c-0.101-0.091-0.2-0.16-0.301-0.25c-0.04-0.03-0.09-0.07-0.13-0.101c-0.1-0.08-0.21-0.14-0.319-0.21  c-0.051-0.04-0.101-0.07-0.141-0.1c-0.1-0.061-0.2-0.11-0.3-0.16c-0.06-0.021-0.13-0.07-0.18-0.09c-0.09-0.04-0.17-0.07-0.25-0.101  c-0.09-0.04-0.17-0.08-0.261-0.109c-0.069-0.021-0.13-0.04-0.18-0.061c-0.12-0.029-0.229-0.06-0.34-0.09  c-0.06-0.02-0.12-0.03-0.18-0.03c-0.11-0.029-0.23-0.06-0.341-0.069c-0.079-0.011-0.17-0.021-0.25-0.03  c-0.089-0.01-0.179-0.01-0.279-0.021h-0.52c-0.16,0.011-0.31,0.021-0.47,0.04c-0.02,0.011-0.04,0.011-0.06,0.011  c-0.15,0.01-0.29,0.05-0.44,0.08c-0.03,0.01-0.05,0.01-0.08,0.02c-0.12,0.03-0.24,0.07-0.35,0.1c-0.06,0.021-0.11,0.03-0.17,0.051  c-0.08,0.029-0.16,0.069-0.25,0.1c-0.08,0.04-0.17,0.07-0.25,0.11c-0.05,0.02-0.1,0.05-0.16,0.08c-0.11,0.05-0.22,0.109-0.33,0.17  c-0.03,0.02-0.07,0.05-0.1,0.069c-0.12,0.08-0.25,0.15-0.36,0.24c-0.03,0.03-0.06,0.05-0.09,0.08c-0.12,0.08-0.23,0.17-0.34,0.28  c-0.01,0-0.01,0-0.02,0.01c-0.05,0.05-0.1,0.1-0.15,0.15c-0.07,0.069-0.15,0.14-0.22,0.21c-16.16,17.75-43.04,20.479-62.51,6.34  c-10.19-7.4-16.89-18.33-18.86-30.771c-1.97-12.439,1.02-24.899,8.43-35.09c0.71-0.99,1.05-2.12,1.05-3.25  c0-1.72-0.79-3.399-2.28-4.479c-2.47-1.801-5.93-1.25-7.73,1.22c-7.4,10.19-18.33,16.88-30.78,18.85  c-12.43,1.971-24.89-1.02-35.08-8.43c-19.47-14.15-25.19-40.55-13.3-61.43c0.08-0.13,0.15-0.261,0.21-0.41  c0.01-0.021,0.02-0.03,0.03-0.05c0,0,0-0.011,0.01-0.021c0.05-0.12,0.1-0.25,0.14-0.38c0.02-0.04,0.05-0.09,0.06-0.14  c0.04-0.12,0.07-0.261,0.11-0.391c0.01-0.05,0.03-0.09,0.04-0.14c0.02-0.11,0.04-0.24,0.06-0.35c0.01-0.07,0.02-0.131,0.03-0.19  c0.01-0.09,0.01-0.2,0.02-0.29c0.01-0.08,0.02-0.17,0.02-0.25v-0.22c-0.01-0.11,0-0.21-0.01-0.32c-0.01-0.06-0.02-0.13-0.03-0.189  c-0.01-0.11-0.02-0.23-0.04-0.341c-0.02-0.08-0.03-0.159-0.05-0.239c-0.03-0.091-0.04-0.19-0.07-0.271  c-0.02-0.12-0.07-0.229-0.1-0.34c-0.03-0.05-0.04-0.11-0.06-0.16c-0.05-0.149-0.11-0.28-0.18-0.41c-0.01-0.029-0.02-0.05-0.03-0.08  c-0.06-0.13-0.14-0.26-0.22-0.39c-0.01-0.03-0.02-0.05-0.04-0.08c-0.07-0.11-0.14-0.21-0.21-0.31c-0.04-0.04-0.06-0.09-0.09-0.13  c-0.06-0.08-0.13-0.141-0.18-0.221c-0.06-0.069-0.12-0.14-0.18-0.2c-0.04-0.05-0.08-0.09-0.13-0.13c-0.09-0.09-0.16-0.17-0.26-0.25  c-0.03-0.029-0.07-0.05-0.1-0.09c-0.1-0.08-0.21-0.17-0.33-0.26c-0.04-0.021-0.07-0.03-0.1-0.06c-0.12-0.08-0.24-0.16-0.37-0.24  c-0.01,0-0.01-0.01-0.02-0.01c-0.06-0.03-0.11-0.061-0.17-0.08c-0.09-0.051-0.18-0.101-0.29-0.15  c-21.88-9.89-32.78-34.61-25.35-57.5c8.03-24.73,34.69-38.31,59.42-30.28c2.91,0.95,6.03-0.649,6.97-3.55  c0.19-0.57,0.27-1.15,0.27-1.71c0-2.34-1.49-4.51-3.82-5.27c-0.01-0.011-0.03-0.011-0.03-0.011c-11.97-3.899-21.7-12.22-27.41-23.43  c-5.72-11.22-6.73-24-2.84-35.98c7.43-22.88,30.78-36.47,54.32-31.609c0.08,0.01,0.17,0.02,0.25,0.04c0.09,0.01,0.17,0.02,0.26,0.04  h0.02c0.13,0.01,0.26,0.02,0.39,0.02c0.06,0.01,0.12,0.01,0.17,0.01c0.12,0,0.23,0,0.35-0.01c0.06-0.01,0.14-0.01,0.21-0.01  c0.08-0.01,0.14-0.03,0.22-0.03c0.1-0.02,0.21-0.029,0.32-0.06h0.05c1.58-0.33,2.94-1.34,3.73-2.75c0-0.01,0-0.01,0.01-0.021  c0.08-0.149,0.16-0.3,0.23-0.46c0-0.02,0-0.05,0.01-0.06c0.07-0.16,0.12-0.3,0.17-0.46c0.02-0.04,0.03-0.08,0.04-0.11  c0.04-0.149,0.07-0.28,0.11-0.43c0-0.01,0-0.01,0-0.021c0.01-0.069,0.02-0.149,0.03-0.22c0.02-0.09,0.04-0.18,0.05-0.29  c2.65-23.87,22.8-41.87,46.86-41.87c26,0,47.15,21.15,47.15,47.141c0,3.05,2.48,5.529,5.54,5.529c3.06,0,5.54-2.479,5.54-5.529  c0-25.99,21.149-47.141,47.149-47.141c24.061,0,44.21,18,46.86,41.87c0,0.061,0.02,0.12,0.03,0.18c0.02,0.11,0.029,0.221,0.05,0.33  c0,0.011,0.01,0.021,0.01,0.03c0.021,0.101,0.05,0.2,0.08,0.311c0.021,0.069,0.04,0.159,0.06,0.229c0.04,0.11,0.08,0.21,0.12,0.32  c0.021,0.069,0.051,0.13,0.07,0.2c0.04,0.09,0.1,0.18,0.15,0.279c0.029,0.07,0.06,0.141,0.1,0.21c0.04,0.08,0.09,0.15,0.14,0.23  c0.051,0.08,0.091,0.149,0.141,0.229c0.05,0.07,0.109,0.141,0.17,0.21c0.05,0.07,0.1,0.15,0.149,0.21  c0.08,0.08,0.16,0.171,0.24,0.24c0.04,0.061,0.09,0.11,0.13,0.15c0.12,0.109,0.24,0.22,0.37,0.319c0,0.011,0.01,0.021,0.021,0.03  c0.67,0.53,1.46,0.91,2.31,1.101c0.03,0,0.061,0.01,0.09,0.01c0.11,0.03,0.21,0.04,0.32,0.06c0.08,0,0.15,0.021,0.229,0.03  c0.08,0,0.141,0,0.221,0.01c0.109,0.01,0.22,0.01,0.33,0.01c0.06,0,0.13,0,0.189-0.01c0.13,0,0.25-0.01,0.38-0.02c0,0,0,0,0.011,0  c0.1-0.021,0.17-0.03,0.27-0.04c0.07-0.021,0.16-0.03,0.24-0.04c23.53-4.86,46.88,8.729,54.31,31.62  c3.9,11.989,2.891,24.76-2.83,35.979c-5.71,11.221-15.46,19.54-27.439,23.431c-2.34,0.76-3.82,2.93-3.82,5.27  c0,0.57,0.08,1.14,0.271,1.71c0.93,2.9,4.06,4.5,6.97,3.55c11.979-3.89,24.76-2.89,35.97,2.84c11.23,5.71,19.55,15.46,23.44,27.44  C456.481,269.325,445.592,294.045,423.691,303.925z" opacity="0.2"/><path d="M256,217.595c-21.273,0-38.581,17.307-38.581,38.581s17.307,38.581,38.581,38.581  c21.274,0,38.582-17.308,38.582-38.581S277.274,217.595,256,217.595z" fill="#20ACC3"/><g id="Calque_1_2_"/><g id="Calque_2_1_"><g><g><path d="     M132.673,83.61c3.431-30.918,29.641-54.948,61.473-54.948c34.175,0,61.861,27.688,61.861,61.849     c0-34.16,27.687-61.849,61.861-61.849c31.819,0,58.042,24.03,61.474,54.948" fill="none" stroke="#010101" stroke-linecap="round" stroke-linejoin="round" stroke-miterlimit="10" stroke-width="4"/></g><g><path d="     M56.448,318.193c-28.351-12.811-43.102-45.156-33.273-75.435c10.557-32.496,45.457-50.276,77.952-39.722     c-32.495-10.556-50.276-45.457-39.72-77.951c9.83-30.269,40.797-47.762,71.266-41.475" fill="none" stroke="#010101" stroke-linecap="round" stroke-linejoin="round" stroke-miterlimit="10" stroke-width="4"/></g><g><path d="     M56.448,318.193c-15.403,27.036-8.315,61.886,17.432,80.594c27.636,20.088,66.318,13.965,86.405-13.674     c-20.086,27.639-13.963,66.319,13.687,86.405c25.746,18.695,61.085,14.664,82.023-8.328" fill="none" stroke="#010101" stroke-linecap="round" stroke-linejoin="round" stroke-miterlimit="10" stroke-width="4"/></g><g><path d="     M455.552,318.205c15.403,27.037,8.327,61.888-17.432,80.596c-27.637,20.086-66.319,13.95-86.406-13.688     c20.087,27.639,13.965,66.319-13.687,86.405c-25.732,18.709-61.085,14.677-82.034-8.328" fill="none" stroke="#010101" stroke-linecap="round" stroke-linejoin="round" stroke-miterlimit="10" stroke-width="4"/></g><g><path d="     M379.341,83.61c30.466-6.287,61.423,11.207,71.253,41.486c10.568,32.498-7.214,67.385-39.711,77.941     c32.497-10.557,67.385,7.225,77.94,39.722c9.832,30.267-4.92,62.65-33.271,75.447" fill="none" stroke="#010101" stroke-linecap="round" stroke-linejoin="round" stroke-miterlimit="10" stroke-width="4"/></g><circle cx="256.005" cy="256.872" fill="none" r="45.08" stroke="#010101" stroke-linecap="round" stroke-linejoin="round" stroke-miterlimit="10" stroke-width="4"/></g></g><circle cx="482.832" cy="361.445" fill="#FF50CE" r="12"/><circle cx="387.498" cy="474.293" fill="#FF50CE" r="12"/><circle cx="110.012" cy="483.328" fill="#FF50CE" r="12"/><circle cx="38.625" cy="400.772" fill="#FF50CE" r="12"/><circle cx="50.625" cy="47.146" fill="#FF50CE" r="12"/><circle cx="26.625" cy="152.14" fill="#FF50CE" r="12"/><circle cx="411.498" cy="34.47" fill="#FF50CE" r="12"/><g><line fill="none" stroke="#20ACC3" stroke-miterlimit="10" stroke-width="5" x1="491.867" x2="473.798" y1="465.257" y2="483.328"/><line fill="none" stroke="#20ACC3" stroke-miterlimit="10" stroke-width="5" x1="473.798" x2="491.867" y1="465.257" y2="483.328"/></g><g><line fill="none" stroke="#20ACC3" stroke-miterlimit="10" stroke-width="5" x1="500.902" x2="482.833" y1="131.105" y2="149.176"/><line fill="none" stroke="#20ACC3" stroke-miterlimit="10" stroke-width="5" x1="482.833" x2="500.902" y1="131.105" y2="149.176"/></g><g><line fill="none" stroke="#20ACC3" stroke-miterlimit="10" stroke-width="5" x1="119.047" x2="100.977" y1="13.435" y2="31.506"/><line fill="none" stroke="#20ACC3" stroke-miterlimit="10" stroke-width="5" x1="100.977" x2="119.047" y1="13.435" y2="31.506"/></g><g><line fill="none" stroke="#20ACC3" stroke-miterlimit="10" stroke-width="5" x1="35.658" x2="17.589" y1="456.221" y2="474.292"/><line fill="none" stroke="#20ACC3" stroke-miterlimit="10" stroke-width="5" x1="17.589" x2="35.658" y1="456.221" y2="474.292"/></g></svg>