<?xml version="1.0" ?><!DOCTYPE svg  PUBLIC '-//W3C//DTD SVG 1.1//EN'  'http://www.w3.org/Graphics/SVG/1.1/DTD/svg11.dtd'><svg enable-background="new 0 0 512 512" height="512px" id="Calque_1" version="1.1" viewBox="0 0 512 512" width="512px" xml:space="preserve" xmlns="http://www.w3.org/2000/svg" xmlns:xlink="http://www.w3.org/1999/xlink"><path d="M256,245.958c-9.46,0-17.156,7.696-17.156,17.156c0,9.459,7.696,17.155,17.156,17.155  s17.156-7.696,17.156-17.155C273.156,253.654,265.46,245.958,256,245.958z" fill="#FECD0E"/><path d="M256,222.83c-22.21,0-40.28,18.07-40.28,40.28c0,22.22,18.07,40.29,40.28,40.29s40.28-18.07,40.28-40.29  C296.28,240.9,278.21,222.83,256,222.83z M256,294.27c-17.18,0-31.16-13.979-31.16-31.159c0-17.18,13.98-31.15,31.16-31.15  c17.18,0,31.16,13.97,31.16,31.15C287.16,280.29,273.179,294.27,256,294.27z" fill="#FECD0E"/><path d="M491.769,221.54c-0.56-3.16-7.5-9.22-29.979-11.89c-21.04-2.5-48.31-1.11-76.79,3.91  c-19.3,3.4-37.9,8.29-53.8,14.14c-0.04,0.02-0.09,0.03-0.13,0.04c-0.11,0.04-0.21,0.07-0.32,0.1c-0.26,0.09-0.52,0.16-0.78,0.21  c-0.13,0.03-0.26,0.04-0.39,0.06c-0.25,0.04-0.5,0.06-0.75,0.07c-0.07,0-0.15,0.02-0.22,0.02c-0.101,0-0.2-0.01-0.29-0.02  c-0.08,0-0.16,0-0.24-0.01c-0.29-0.02-0.58-0.06-0.87-0.12c-0.06-0.01-0.12-0.03-0.18-0.04c-0.24-0.05-0.48-0.12-0.721-0.21  c-0.069-0.02-0.149-0.05-0.22-0.07c-0.28-0.11-0.54-0.23-0.81-0.37c-0.061-0.04-0.12-0.08-0.181-0.11  c-0.22-0.13-0.43-0.27-0.63-0.42c-0.069-0.04-0.13-0.09-0.189-0.14c-0.221-0.16-0.431-0.34-0.62-0.54  c-0.03-0.03-0.05-0.05-0.07-0.08c-0.02-0.02-0.04-0.03-0.06-0.05c-0.061-0.07-0.12-0.14-0.181-0.21  c-0.08-0.09-0.149-0.17-0.229-0.26c-0.07-0.1-0.14-0.19-0.21-0.29c-0.061-0.09-0.13-0.19-0.2-0.29c-0.06-0.09-0.11-0.19-0.17-0.29  c-0.06-0.1-0.12-0.2-0.17-0.31c-0.05-0.1-0.101-0.2-0.14-0.31c-0.051-0.1-0.101-0.2-0.141-0.31s-0.08-0.21-0.109-0.32  c-0.04-0.11-0.08-0.22-0.11-0.32c-0.03-0.11-0.05-0.22-0.08-0.33c-0.021-0.11-0.05-0.22-0.07-0.33c-0.02-0.11-0.029-0.22-0.05-0.32  c-0.01-0.12-0.03-0.24-0.04-0.35c-0.01-0.11-0.01-0.21-0.01-0.32c-0.01-0.12-0.01-0.23-0.01-0.36c0-0.1,0.01-0.2,0.01-0.3  c0.01-0.12,0.02-0.24,0.03-0.37c0.01-0.1,0.029-0.19,0.04-0.29c0.02-0.12,0.04-0.25,0.069-0.37c0.021-0.1,0.04-0.19,0.07-0.29  c0.03-0.12,0.06-0.24,0.09-0.37c0.03-0.09,0.07-0.18,0.1-0.27c0.04-0.12,0.091-0.24,0.141-0.36c0.04-0.09,0.08-0.18,0.12-0.27  c0.06-0.12,0.109-0.23,0.17-0.35c0.05-0.09,0.109-0.17,0.16-0.26c0.069-0.11,0.13-0.22,0.199-0.33c0.061-0.08,0.131-0.17,0.19-0.25  c0.08-0.11,0.15-0.21,0.24-0.31c0.069-0.08,0.14-0.16,0.21-0.24c0.069-0.07,0.13-0.14,0.2-0.22c0.029-0.02,0.06-0.04,0.08-0.07  c0.02-0.02,0.029-0.03,0.05-0.05l0.01-0.01c0.04-0.04,0.09-0.07,0.13-0.11c0.07-0.06,0.14-0.13,0.21-0.2  c13.09-10.88,26.67-24.59,39.29-39.63c18.59-22.15,33.42-45.07,41.771-64.54c8.93-20.81,7.149-29.86,4.689-31.92  c-2.45-2.06-11.67-2.24-30.61,10.16c-17.72,11.6-37.72,30.19-56.31,52.35c-12.66,15.1-23.8,30.87-32.22,45.61  c-0.01,0.02-0.03,0.03-0.04,0.05c-0.03,0.05-0.061,0.1-0.09,0.15c-0.181,0.29-0.38,0.56-0.591,0.82  c-0.02,0.03-0.039,0.05-0.069,0.08c-0.24,0.28-0.5,0.53-0.771,0.76c-0.04,0.03-0.069,0.06-0.109,0.09  c-0.28,0.23-0.57,0.43-0.88,0.61c-0.04,0.03-0.091,0.05-0.131,0.07c-0.31,0.18-0.64,0.33-0.97,0.46c-0.04,0.01-0.08,0.02-0.109,0.03  c-0.341,0.12-0.681,0.21-1.021,0.28c-0.03,0-0.06,0.01-0.09,0.02c-0.37,0.06-0.74,0.09-1.12,0.1c-0.02,0-0.05,0.01-0.08,0.01  s-0.05-0.01-0.08-0.01c-0.109,0-0.22-0.01-0.33-0.01c-0.1-0.01-0.2-0.01-0.31-0.02c-0.12-0.02-0.24-0.04-0.37-0.06  c-0.061,0-0.11-0.01-0.17-0.02c-0.03,0-0.061-0.01-0.09-0.02c-0.15-0.03-0.29-0.06-0.44-0.1c-0.09-0.03-0.18-0.05-0.27-0.08  c-0.11-0.03-0.23-0.07-0.341-0.11c-0.119-0.05-0.229-0.09-0.35-0.14c-0.08-0.03-0.16-0.07-0.25-0.11c-0.13-0.07-0.27-0.13-0.4-0.21  c-0.029-0.01-0.06-0.02-0.079-0.04c-0.04-0.02-0.08-0.05-0.12-0.07c-0.13-0.08-0.271-0.17-0.4-0.26c-0.07-0.05-0.13-0.1-0.2-0.15  c-0.109-0.08-0.22-0.17-0.33-0.25c-0.08-0.07-0.149-0.14-0.229-0.21c-0.08-0.08-0.17-0.16-0.25-0.24c-0.08-0.09-0.16-0.17-0.24-0.26  c-0.07-0.08-0.14-0.16-0.2-0.24c-0.08-0.1-0.149-0.19-0.229-0.29c-0.061-0.09-0.12-0.17-0.17-0.26c-0.07-0.1-0.13-0.2-0.19-0.3  c-0.06-0.1-0.11-0.2-0.16-0.3c-0.05-0.09-0.1-0.18-0.14-0.28c-0.061-0.11-0.11-0.23-0.16-0.35c-0.03-0.08-0.06-0.17-0.09-0.25  c-0.05-0.13-0.09-0.27-0.13-0.4c-0.03-0.08-0.05-0.16-0.07-0.23c-0.03-0.14-0.06-0.29-0.09-0.43c-0.021-0.08-0.03-0.16-0.04-0.24  c-0.03-0.14-0.04-0.28-0.06-0.42c0-0.09-0.011-0.18-0.021-0.27c0-0.13-0.01-0.26-0.01-0.39c0-0.11,0.01-0.22,0.01-0.33  c0.01-0.11,0.021-0.22,0.03-0.33c0.01-0.13,0.03-0.26,0.05-0.39c0.01-0.06,0.01-0.12,0.02-0.19c3.03-16.69,4.641-35.93,4.641-55.64  c0-28.92-3.37-56.02-9.49-76.3c-6.54-21.68-13.71-27.46-16.92-27.46s-10.38,5.78-16.92,27.46c-6.12,20.28-9.49,47.38-9.49,76.3  c0,19.71,1.61,38.95,4.64,55.64c0.01,0.06,0.01,0.13,0.02,0.19c0.02,0.13,0.04,0.26,0.05,0.39c0.01,0.11,0.02,0.22,0.03,0.33  c0,0.11,0.01,0.22,0.01,0.33c0,0.13-0.01,0.26-0.01,0.39c-0.01,0.09-0.02,0.18-0.02,0.27c-0.02,0.14-0.03,0.28-0.06,0.42  c-0.01,0.08-0.02,0.16-0.04,0.24c-0.02,0.14-0.06,0.29-0.09,0.43c-0.02,0.07-0.04,0.15-0.07,0.23c-0.04,0.13-0.08,0.27-0.12,0.4  c-0.04,0.08-0.07,0.17-0.1,0.26c-0.05,0.11-0.1,0.23-0.15,0.34c-0.05,0.1-0.1,0.19-0.15,0.29c-0.05,0.1-0.1,0.19-0.16,0.29  c-0.06,0.1-0.12,0.21-0.19,0.31c-0.06,0.08-0.11,0.16-0.17,0.24c-0.07,0.1-0.15,0.21-0.23,0.31c-0.06,0.07-0.13,0.15-0.19,0.22  c-0.08,0.09-0.17,0.19-0.26,0.28c-0.07,0.07-0.15,0.15-0.23,0.22c-0.08,0.08-0.17,0.15-0.25,0.23c-0.1,0.08-0.2,0.15-0.3,0.23  c-0.08,0.06-0.16,0.12-0.24,0.17c-0.11,0.08-0.23,0.16-0.36,0.23c-0.04,0.03-0.09,0.07-0.14,0.09c-0.03,0.02-0.06,0.03-0.09,0.05  c-0.12,0.07-0.25,0.13-0.37,0.19c-0.09,0.04-0.19,0.09-0.28,0.13c-0.11,0.04-0.21,0.08-0.32,0.12c-0.12,0.05-0.25,0.09-0.37,0.13  c-0.08,0.02-0.16,0.04-0.24,0.06c-0.16,0.05-0.31,0.08-0.47,0.11c-0.02,0.01-0.05,0.02-0.08,0.02c-0.04,0.01-0.08,0.01-0.12,0.02  c-0.17,0.02-0.33,0.05-0.5,0.06c-0.07,0.01-0.14,0.01-0.21,0.02c-0.16,0.01-0.31,0.01-0.47,0.01c-0.08,0-0.16,0-0.25-0.01  c-0.14,0-0.28-0.01-0.42-0.03c-0.09-0.01-0.18-0.02-0.27-0.03c-0.13-0.02-0.26-0.04-0.39-0.07c-0.1-0.02-0.19-0.04-0.28-0.06  c-0.13-0.03-0.26-0.07-0.38-0.11c-0.09-0.02-0.17-0.05-0.26-0.08c-0.13-0.05-0.26-0.1-0.39-0.15c-0.07-0.03-0.15-0.06-0.22-0.09  c-0.14-0.07-0.27-0.14-0.41-0.21c-0.06-0.03-0.11-0.06-0.17-0.1c-0.14-0.08-0.28-0.16-0.41-0.25c-0.05-0.04-0.1-0.07-0.15-0.11  c-0.13-0.09-0.26-0.19-0.39-0.29c-0.05-0.04-0.1-0.08-0.15-0.13c-0.11-0.1-0.23-0.2-0.34-0.31c-0.05-0.06-0.11-0.12-0.17-0.18  c-0.09-0.1-0.18-0.2-0.27-0.3c-0.07-0.08-0.13-0.17-0.2-0.25c-0.06-0.09-0.13-0.18-0.2-0.28c-0.07-0.1-0.14-0.21-0.2-0.32  c-0.04-0.06-0.08-0.11-0.11-0.16c-8.41-14.74-19.56-30.51-32.23-45.61c-18.59-22.15-38.58-40.75-56.3-52.35  c-18.94-12.4-28.15-12.22-30.61-10.16c-2.46,2.06-4.24,11.11,4.69,31.92c8.35,19.47,23.18,42.39,41.77,64.53  c12.62,15.05,26.2,28.76,39.28,39.65c0.04,0.02,0.07,0.05,0.1,0.08c0.04,0.03,0.07,0.06,0.1,0.09c0.05,0.05,0.11,0.09,0.16,0.14  c0.05,0.05,0.1,0.1,0.15,0.16c0.07,0.07,0.14,0.14,0.2,0.21c0.1,0.1,0.18,0.21,0.27,0.31c0.06,0.08,0.12,0.16,0.18,0.23  c0.08,0.11,0.16,0.23,0.23,0.34c0.05,0.08,0.1,0.16,0.15,0.24c0.07,0.12,0.14,0.24,0.2,0.36l0.12,0.24  c0.06,0.12,0.11,0.25,0.16,0.38c0.04,0.08,0.07,0.16,0.1,0.25c0.04,0.13,0.09,0.26,0.12,0.39c0.03,0.08,0.05,0.17,0.07,0.25  c0.04,0.13,0.07,0.27,0.09,0.4c0.02,0.09,0.03,0.18,0.05,0.27c0.02,0.13,0.03,0.26,0.04,0.39c0.01,0.09,0.02,0.19,0.02,0.29  c0.01,0.12,0.01,0.24,0.01,0.37v0.3c-0.01,0.12-0.02,0.24-0.03,0.36c-0.01,0.11-0.02,0.21-0.04,0.32c-0.01,0.12-0.03,0.23-0.05,0.35  c-0.02,0.1-0.05,0.21-0.07,0.31c-0.03,0.12-0.06,0.23-0.09,0.34c-0.03,0.11-0.07,0.21-0.1,0.32c-0.04,0.11-0.08,0.22-0.13,0.33  c-0.04,0.1-0.08,0.2-0.13,0.3c-0.05,0.11-0.1,0.22-0.16,0.32c-0.05,0.1-0.1,0.19-0.16,0.29c-0.06,0.11-0.13,0.21-0.2,0.32  c-0.06,0.09-0.12,0.18-0.19,0.26c-0.07,0.11-0.15,0.2-0.23,0.3c-0.04,0.05-0.07,0.1-0.11,0.15c-0.03,0.04-0.07,0.07-0.11,0.11  s-0.07,0.09-0.12,0.14c-0.03,0.03-0.07,0.06-0.11,0.1c-0.2,0.2-0.4,0.38-0.62,0.56c-0.04,0.03-0.08,0.06-0.12,0.09  c-0.26,0.2-0.53,0.37-0.81,0.53c-0.06,0.03-0.12,0.06-0.19,0.1c-0.23,0.12-0.46,0.22-0.7,0.31c-0.07,0.03-0.14,0.06-0.21,0.08  c-0.3,0.11-0.6,0.2-0.9,0.26c-0.04,0-0.07,0.01-0.11,0.01c-0.27,0.06-0.55,0.09-0.83,0.11c-0.08,0-0.15,0.01-0.23,0.01  s-0.16,0.01-0.24,0.01c-0.1,0-0.2-0.02-0.3-0.02c-0.22-0.01-0.44-0.03-0.66-0.06c-0.16-0.02-0.31-0.05-0.47-0.08  c-0.22-0.05-0.43-0.1-0.64-0.17c-0.15-0.05-0.3-0.09-0.45-0.15c-0.06-0.02-0.13-0.04-0.19-0.06c-15.88-5.84-34.43-10.71-53.68-14.11  c-28.48-5.02-55.75-6.4-76.78-3.9c-22.49,2.67-29.43,8.73-29.99,11.89s3.89,11.23,24.11,21.43c18.91,9.55,45.01,17.57,73.49,22.589  c19.43,3.431,38.64,5.19,55.56,5.11h0.04c3.86,0,7,3.13,7,7c0,3.12-2.04,5.771-4.87,6.67c-15.96,5.76-33.33,13.96-50.23,23.72  c-25.05,14.46-46.83,30.931-61.34,46.37c-15.5,16.5-16.93,25.61-15.32,28.391c1.6,2.779,10.2,6.1,32.24,0.92  c20.63-4.84,45.78-15.471,70.82-29.931c17.02-9.829,32.84-20.8,45.76-31.72c0.07-0.06,0.14-0.12,0.21-0.18  c0.06-0.04,0.11-0.09,0.17-0.13c0.21-0.16,0.42-0.311,0.65-0.45c0.04-0.021,0.08-0.04,0.12-0.07c0.2-0.109,0.4-0.21,0.62-0.31  c0.06-0.03,0.13-0.061,0.2-0.09c0.25-0.101,0.5-0.19,0.76-0.271c0.03-0.01,0.06-0.01,0.09-0.02c0.24-0.061,0.49-0.11,0.74-0.15  c0.07-0.01,0.14-0.02,0.22-0.03c0.28-0.04,0.56-0.06,0.86-0.06c3.86,0,7,3.13,7,7c0,0.3-0.03,0.6-0.07,0.9  c-0.01,0.06-0.01,0.119-0.02,0.189c-0.05,0.28-0.11,0.561-0.19,0.83c-0.01,0.05-0.02,0.09-0.04,0.13c-0.07,0.25-0.16,0.49-0.26,0.72  c-0.02,0.051-0.04,0.101-0.06,0.15c-0.12,0.25-0.25,0.49-0.4,0.73c-0.01,0.02-0.02,0.039-0.03,0.06  c-8.52,14.62-16.56,32.08-23.26,50.51c-9.9,27.17-16,53.78-17.19,74.94c-1.27,22.6,3.49,30.49,6.5,31.59  c3.02,1.09,11.74-1.89,25.3-20.021c12.69-16.96,25.12-41.27,35.02-68.449c6.72-18.471,11.79-37.101,14.67-53.87  c0.01-0.04,0.02-0.08,0.03-0.12c0.03-0.16,0.06-0.33,0.11-0.49c0.02-0.07,0.04-0.149,0.06-0.22c0.04-0.141,0.09-0.28,0.14-0.41  c0.03-0.09,0.07-0.19,0.11-0.28c0.04-0.109,0.09-0.22,0.14-0.319c0.05-0.11,0.11-0.21,0.16-0.32c0.05-0.09,0.1-0.18,0.16-0.271  c0.06-0.1,0.13-0.21,0.2-0.31c0.06-0.08,0.11-0.17,0.17-0.24c0.08-0.1,0.15-0.2,0.23-0.3c0.07-0.08,0.14-0.16,0.21-0.229  c0.07-0.091,0.15-0.171,0.23-0.25c0.08-0.091,0.17-0.171,0.26-0.25c0.07-0.061,0.15-0.131,0.23-0.19c0.1-0.09,0.2-0.17,0.3-0.24  c0.08-0.06,0.15-0.109,0.22-0.16c0.12-0.08,0.23-0.149,0.35-0.22c0.07-0.05,0.15-0.09,0.23-0.13c0.12-0.07,0.24-0.13,0.36-0.19  c0.09-0.04,0.18-0.08,0.27-0.119c0.11-0.051,0.22-0.091,0.34-0.131c0.11-0.04,0.22-0.08,0.33-0.109c0.1-0.03,0.21-0.061,0.31-0.09  c0.13-0.03,0.25-0.061,0.38-0.091c0.06-0.01,0.12-0.029,0.19-0.04c0.04-0.01,0.07-0.01,0.11-0.01c0.13-0.02,0.26-0.04,0.39-0.05  c0.11-0.01,0.22-0.02,0.33-0.03h0.33c0.13,0,0.26,0,0.39,0.011c0.09,0,0.18,0.01,0.27,0.02c0.15,0.01,0.301,0.03,0.44,0.05  c0.04,0.01,0.07,0.01,0.11,0.01c0.05,0.011,0.1,0.03,0.149,0.04c0.141,0.021,0.28,0.061,0.42,0.091c0.101,0.029,0.2,0.06,0.29,0.08  c0.12,0.039,0.23,0.079,0.351,0.119c0.109,0.04,0.22,0.08,0.33,0.131c0.09,0.039,0.18,0.079,0.27,0.119  c0.12,0.061,0.24,0.12,0.36,0.19c0.08,0.04,0.149,0.08,0.229,0.13c0.12,0.07,0.23,0.14,0.351,0.22c0.069,0.051,0.14,0.101,0.21,0.15  c0.109,0.08,0.21,0.16,0.319,0.25c0.07,0.06,0.15,0.13,0.221,0.19c0.09,0.079,0.18,0.159,0.26,0.25  c0.08,0.079,0.16,0.159,0.229,0.25c0.07,0.069,0.141,0.149,0.21,0.229c0.08,0.1,0.16,0.2,0.23,0.3c0.06,0.08,0.11,0.15,0.17,0.23  c0.07,0.109,0.14,0.22,0.21,0.33c0.05,0.09,0.1,0.17,0.14,0.25c0.061,0.109,0.12,0.22,0.17,0.34c0.051,0.1,0.091,0.2,0.141,0.3  c0.04,0.1,0.08,0.2,0.12,0.3c0.04,0.13,0.08,0.25,0.12,0.38c0.029,0.08,0.06,0.17,0.079,0.261c0.04,0.149,0.07,0.3,0.101,0.449  c0.01,0.051,0.02,0.091,0.03,0.141c2.869,16.75,7.949,35.38,14.68,53.87c9.89,27.18,22.33,51.489,35.01,68.449  c13.561,18.131,22.28,21.11,25.29,20.021c3.021-1.1,7.78-8.99,6.51-31.59c-1.189-21.16-7.29-47.771-17.18-74.94  c-6.72-18.46-14.78-35.939-23.3-50.56c-0.021-0.03-0.04-0.07-0.05-0.101c-0.19-0.31-0.351-0.62-0.48-0.939  c0-0.021-0.01-0.03-0.01-0.05c-0.13-0.311-0.22-0.631-0.3-0.96c-0.011-0.061-0.03-0.11-0.04-0.171  c-0.07-0.319-0.11-0.649-0.141-0.979c0-0.07,0-0.14-0.01-0.21c-0.01-0.33,0-0.66,0.03-0.99c0.01-0.05,0.02-0.1,0.03-0.16  c0.029-0.31,0.09-0.609,0.17-0.91c0.02-0.05,0.02-0.1,0.04-0.149c0.09-0.311,0.21-0.62,0.35-0.92c0.03-0.07,0.06-0.15,0.09-0.22  c0.15-0.29,0.32-0.58,0.5-0.851c0.04-0.07,0.09-0.12,0.13-0.18c0.21-0.28,0.431-0.55,0.67-0.8l0.03-0.03  c0.29-0.29,0.6-0.54,0.93-0.771c0.04-0.029,0.091-0.069,0.131-0.1c0.13-0.08,0.26-0.16,0.39-0.23c0.07-0.039,0.13-0.079,0.189-0.119  c0.131-0.07,0.261-0.12,0.391-0.181c0.069-0.04,0.149-0.08,0.22-0.109c0.12-0.051,0.25-0.091,0.38-0.141  c0.08-0.029,0.16-0.06,0.25-0.09c0.12-0.03,0.24-0.06,0.37-0.09c0.09-0.03,0.18-0.05,0.271-0.07c0.119-0.02,0.239-0.04,0.359-0.06  c0.101-0.021,0.2-0.03,0.3-0.04c0.11-0.021,0.23-0.021,0.351-0.03c0.1-0.01,0.2-0.01,0.3-0.02c0.12,0,0.23,0.01,0.35,0.01  c0.101,0,0.21,0.01,0.32,0.01c0.11,0.01,0.22,0.03,0.33,0.04s0.21,0.03,0.32,0.05c0.109,0.021,0.22,0.04,0.319,0.061  c0.11,0.029,0.221,0.05,0.33,0.08c0.101,0.029,0.21,0.06,0.311,0.1c0.109,0.03,0.22,0.07,0.319,0.11c0.101,0.04,0.2,0.08,0.301,0.12  c0.109,0.05,0.21,0.1,0.319,0.149c0.101,0.05,0.19,0.101,0.28,0.15c0.11,0.05,0.21,0.12,0.31,0.18  c0.091,0.061,0.181,0.12,0.271,0.18c0.1,0.061,0.2,0.141,0.29,0.21l0.27,0.211c0.03,0.029,0.07,0.06,0.11,0.09  c12.93,10.939,28.75,21.91,45.77,31.739c25.051,14.46,50.2,25.091,70.82,29.931c22.04,5.18,30.641,1.859,32.25-0.92  c1.601-2.78,0.18-11.891-15.33-28.391c-14.5-15.439-36.29-31.91-61.33-46.37c-16.989-9.8-34.399-18.02-50.34-23.76  c-0.01,0-0.02-0.01-0.03-0.01c-0.319-0.11-0.619-0.24-0.909-0.39c-0.03-0.011-0.061-0.021-0.091-0.04  c-0.3-0.15-0.579-0.33-0.85-0.521c-0.03-0.03-0.07-0.05-0.1-0.08c-0.53-0.399-1.011-0.87-1.41-1.41  c-0.03-0.04-0.061-0.069-0.08-0.109c-0.2-0.271-0.37-0.55-0.53-0.851c-0.01-0.02-0.02-0.029-0.03-0.05  c-0.14-0.29-0.27-0.59-0.38-0.91c-0.01-0.029-0.02-0.06-0.029-0.09c-0.11-0.32-0.19-0.649-0.24-0.979  c-0.01-0.051-0.021-0.101-0.03-0.15c-0.05-0.35-0.08-0.7-0.08-1.07c0-1.39,0.41-2.68,1.12-3.77c0.021-0.04,0.05-0.08,0.07-0.13  c0.069-0.09,0.14-0.19,0.22-0.28c0.06-0.08,0.12-0.17,0.19-0.26c0.029-0.04,0.069-0.08,0.109-0.12c1.28-1.48,3.17-2.42,5.28-2.42  c0.01,0,0.02,0,0.02,0c16.971,0.09,36.23-1.68,55.61-5.09c28.48-5.03,54.58-13.05,73.49-22.6  C487.88,232.77,492.33,224.7,491.769,221.54z M256,317.401c-29.93,0-54.28-24.351-54.28-54.29c0-29.93,24.35-54.28,54.28-54.28  c29.93,0,54.28,24.35,54.28,54.28C310.28,293.05,285.929,317.401,256,317.401z" fill="#D712F9"/><path d="M491.769,221.547c-0.561-3.16-7.5-9.22-29.98-11.89c-21.039-2.5-48.309-1.11-76.789,3.91  c-19.301,3.399-37.9,8.29-53.801,14.14c-0.039,0.021-0.09,0.03-0.129,0.04c-0.111,0.04-0.211,0.07-0.32,0.1  c-0.26,0.091-0.52,0.16-0.779,0.21c-0.131,0.03-0.262,0.04-0.391,0.061c-0.25,0.04-0.5,0.06-0.75,0.07c-0.07,0-0.15,0.02-0.221,0.02  c-0.1,0-0.199-0.01-0.289-0.02c-0.08,0-0.16,0-0.24-0.011c-0.291-0.02-0.58-0.06-0.871-0.12c-0.059-0.01-0.119-0.029-0.18-0.04  c-0.24-0.05-0.479-0.119-0.719-0.21c-0.07-0.02-0.15-0.05-0.221-0.069c-0.279-0.11-0.539-0.23-0.811-0.37  c-0.059-0.04-0.119-0.08-0.18-0.11c-0.219-0.13-0.43-0.27-0.629-0.42c-0.07-0.04-0.131-0.09-0.191-0.14  c-0.219-0.16-0.43-0.34-0.619-0.54c-0.029-0.03-0.051-0.05-0.07-0.08c-0.02-0.021-0.039-0.03-0.061-0.05  c-0.059-0.07-0.119-0.141-0.18-0.21c-0.08-0.09-0.15-0.17-0.23-0.261c-0.068-0.1-0.139-0.189-0.209-0.29  c-0.061-0.09-0.131-0.189-0.201-0.289c-0.059-0.091-0.109-0.19-0.17-0.29c-0.059-0.101-0.119-0.2-0.17-0.311  c-0.049-0.1-0.1-0.2-0.139-0.31c-0.051-0.101-0.1-0.2-0.141-0.311c-0.039-0.109-0.08-0.21-0.109-0.319  c-0.041-0.11-0.08-0.221-0.111-0.32c-0.029-0.11-0.049-0.22-0.08-0.33c-0.02-0.11-0.049-0.22-0.068-0.33  c-0.021-0.11-0.031-0.22-0.051-0.32c-0.01-0.12-0.029-0.239-0.039-0.35c-0.012-0.11-0.012-0.21-0.012-0.32  c-0.01-0.12-0.01-0.229-0.01-0.359c0-0.101,0.01-0.2,0.01-0.301c0.012-0.119,0.021-0.239,0.031-0.369  c0.01-0.101,0.029-0.19,0.039-0.29c0.02-0.12,0.041-0.25,0.07-0.37c0.02-0.101,0.041-0.19,0.07-0.29  c0.029-0.12,0.061-0.24,0.09-0.37c0.029-0.09,0.07-0.18,0.1-0.271c0.041-0.119,0.09-0.239,0.141-0.359  c0.039-0.09,0.08-0.181,0.119-0.271c0.061-0.12,0.111-0.229,0.17-0.35c0.051-0.09,0.111-0.17,0.16-0.26  c0.07-0.11,0.131-0.221,0.201-0.33c0.059-0.08,0.129-0.17,0.189-0.25c0.08-0.11,0.15-0.21,0.24-0.311  c0.07-0.08,0.141-0.16,0.209-0.239c0.07-0.07,0.131-0.141,0.201-0.221c0.029-0.02,0.059-0.04,0.08-0.069  c0.02-0.021,0.029-0.03,0.049-0.051l0.01-0.01c0.041-0.04,0.092-0.07,0.131-0.11c0.07-0.06,0.141-0.13,0.211-0.199  c13.09-10.88,26.67-24.59,39.289-39.63c18.59-22.15,33.42-45.07,41.77-64.54c8.93-20.811,7.15-29.86,4.691-31.92  c-2.451-2.061-11.672-2.24-30.611,10.159c-17.719,11.601-37.719,30.19-56.311,52.351c-12.658,15.1-23.799,30.87-32.219,45.609  c-0.01,0.021-0.031,0.03-0.041,0.051c-0.029,0.05-0.059,0.1-0.09,0.149c-0.18,0.29-0.379,0.561-0.59,0.82  c-0.02,0.03-0.039,0.05-0.07,0.08c-0.24,0.28-0.5,0.53-0.77,0.76c-0.039,0.03-0.07,0.06-0.109,0.09  c-0.281,0.23-0.57,0.431-0.881,0.61c-0.039,0.03-0.09,0.05-0.129,0.07c-0.311,0.18-0.641,0.329-0.971,0.46  c-0.039,0.01-0.08,0.02-0.109,0.029c-0.34,0.12-0.68,0.21-1.021,0.28c-0.029,0-0.059,0.01-0.09,0.02  c-0.369,0.061-0.738,0.091-1.119,0.101c-0.02,0-0.051,0.01-0.08,0.01s-0.051-0.01-0.08-0.01c-0.109,0-0.221-0.01-0.33-0.01  c-0.1-0.011-0.199-0.011-0.311-0.021c-0.119-0.02-0.24-0.04-0.369-0.06c-0.061,0-0.109-0.011-0.17-0.021  c-0.029,0-0.061-0.01-0.09-0.02c-0.15-0.03-0.291-0.061-0.439-0.101c-0.092-0.029-0.182-0.05-0.271-0.08  c-0.109-0.029-0.229-0.069-0.34-0.109c-0.119-0.05-0.23-0.09-0.35-0.141c-0.08-0.029-0.16-0.069-0.25-0.109  c-0.131-0.07-0.27-0.13-0.4-0.21c-0.029-0.01-0.061-0.021-0.08-0.04c-0.039-0.021-0.08-0.05-0.119-0.07  c-0.131-0.08-0.27-0.17-0.4-0.26c-0.07-0.05-0.131-0.101-0.199-0.15c-0.111-0.08-0.221-0.17-0.33-0.25  c-0.08-0.069-0.15-0.14-0.23-0.21c-0.08-0.08-0.17-0.16-0.25-0.24c-0.08-0.09-0.16-0.17-0.24-0.26c-0.07-0.08-0.141-0.16-0.199-0.24  c-0.08-0.1-0.15-0.189-0.23-0.289c-0.061-0.091-0.121-0.171-0.17-0.261c-0.07-0.1-0.131-0.2-0.189-0.3  c-0.061-0.1-0.111-0.2-0.16-0.3c-0.051-0.09-0.102-0.18-0.141-0.28c-0.061-0.109-0.109-0.229-0.16-0.35  c-0.029-0.08-0.061-0.17-0.09-0.25c-0.051-0.13-0.09-0.271-0.131-0.4c-0.029-0.08-0.049-0.16-0.068-0.229  c-0.031-0.141-0.061-0.29-0.092-0.431c-0.02-0.08-0.029-0.16-0.039-0.239c-0.029-0.141-0.041-0.28-0.061-0.421  c0-0.09-0.01-0.18-0.02-0.27c0-0.13-0.01-0.26-0.01-0.39c0-0.11,0.01-0.221,0.01-0.33c0.01-0.11,0.02-0.221,0.029-0.33  c0.01-0.13,0.031-0.26,0.051-0.391c0.01-0.06,0.01-0.119,0.02-0.189c3.031-16.69,4.641-35.93,4.641-55.64  c0-28.921-3.371-56.021-9.49-76.301c-6.539-21.68-13.711-27.46-16.92-27.46c-3.21,0-10.38,5.78-16.92,27.46  c-6.12,20.28-9.489,47.38-9.489,76.301c0,19.71,1.609,38.949,4.64,55.64c0.01,0.06,0.01,0.13,0.02,0.189  c0.021,0.131,0.04,0.261,0.051,0.391c0.01,0.109,0.02,0.22,0.029,0.33c0,0.109,0.011,0.22,0.011,0.33c0,0.13-0.011,0.26-0.011,0.39  c-0.01,0.09-0.02,0.18-0.02,0.27c-0.021,0.141-0.03,0.28-0.061,0.421c-0.01,0.079-0.02,0.159-0.04,0.239  c-0.02,0.141-0.06,0.29-0.09,0.431c-0.02,0.069-0.04,0.149-0.069,0.229c-0.04,0.13-0.08,0.271-0.12,0.4  c-0.04,0.08-0.07,0.17-0.101,0.26c-0.05,0.11-0.1,0.23-0.149,0.34c-0.05,0.101-0.101,0.19-0.15,0.29c-0.05,0.101-0.1,0.19-0.16,0.29  c-0.06,0.1-0.12,0.21-0.189,0.311c-0.061,0.079-0.11,0.159-0.17,0.239c-0.07,0.101-0.15,0.21-0.23,0.311  c-0.06,0.069-0.13,0.149-0.189,0.22c-0.08,0.09-0.17,0.19-0.261,0.28c-0.069,0.069-0.149,0.149-0.229,0.22  c-0.08,0.08-0.17,0.15-0.25,0.23c-0.101,0.079-0.2,0.149-0.3,0.229c-0.08,0.06-0.16,0.12-0.24,0.17c-0.11,0.08-0.23,0.16-0.36,0.23  c-0.04,0.029-0.09,0.069-0.14,0.09c-0.03,0.02-0.061,0.03-0.09,0.05c-0.12,0.07-0.25,0.13-0.37,0.19c-0.09,0.04-0.19,0.09-0.28,0.13  c-0.11,0.04-0.21,0.08-0.32,0.12c-0.119,0.05-0.25,0.09-0.369,0.13c-0.08,0.02-0.16,0.04-0.24,0.06c-0.16,0.05-0.311,0.08-0.47,0.11  c-0.021,0.01-0.051,0.02-0.08,0.02c-0.04,0.01-0.08,0.01-0.12,0.021c-0.17,0.02-0.33,0.05-0.5,0.06  c-0.07,0.01-0.141,0.01-0.21,0.021c-0.16,0.01-0.311,0.01-0.471,0.01c-0.08,0-0.159,0-0.25-0.01c-0.14,0-0.279-0.011-0.42-0.03  c-0.09-0.01-0.18-0.021-0.27-0.03c-0.13-0.02-0.26-0.04-0.391-0.069c-0.1-0.021-0.189-0.04-0.279-0.061  c-0.13-0.03-0.26-0.07-0.38-0.11c-0.091-0.02-0.17-0.05-0.261-0.079c-0.13-0.051-0.26-0.101-0.39-0.15  c-0.07-0.03-0.15-0.061-0.22-0.09c-0.141-0.07-0.271-0.141-0.41-0.21c-0.061-0.03-0.11-0.061-0.17-0.101  c-0.141-0.08-0.28-0.16-0.41-0.25c-0.05-0.04-0.1-0.069-0.15-0.109c-0.13-0.09-0.26-0.19-0.39-0.29c-0.05-0.04-0.1-0.08-0.15-0.13  c-0.109-0.101-0.229-0.2-0.34-0.311c-0.05-0.06-0.109-0.12-0.17-0.18c-0.09-0.101-0.18-0.2-0.27-0.3c-0.07-0.08-0.13-0.17-0.2-0.25  c-0.061-0.091-0.13-0.181-0.2-0.28s-0.14-0.21-0.2-0.32c-0.04-0.06-0.08-0.109-0.109-0.16c-8.41-14.739-19.561-30.51-32.23-45.609  c-18.59-22.15-38.58-40.75-56.3-52.351c-18.94-12.399-28.15-12.22-30.61-10.159c-2.46,2.06-4.239,11.109,4.69,31.92  c8.35,19.47,23.18,42.39,41.77,64.529c12.62,15.051,26.2,28.761,39.28,39.65c0.04,0.02,0.07,0.05,0.1,0.08  c0.04,0.03,0.07,0.06,0.101,0.09c0.05,0.05,0.11,0.09,0.16,0.14c0.05,0.051,0.1,0.101,0.149,0.16c0.07,0.07,0.141,0.141,0.2,0.21  c0.101,0.101,0.18,0.21,0.271,0.311c0.06,0.08,0.119,0.16,0.18,0.229c0.08,0.11,0.16,0.23,0.229,0.34  c0.051,0.08,0.101,0.16,0.15,0.24c0.07,0.12,0.14,0.24,0.2,0.36l0.12,0.24c0.06,0.119,0.109,0.25,0.16,0.38  c0.04,0.08,0.069,0.159,0.1,0.25c0.04,0.13,0.09,0.26,0.12,0.39c0.03,0.08,0.05,0.17,0.07,0.25c0.039,0.13,0.069,0.27,0.09,0.4  c0.02,0.09,0.029,0.18,0.05,0.27c0.02,0.13,0.03,0.26,0.04,0.39c0.01,0.091,0.02,0.19,0.02,0.29c0.011,0.12,0.011,0.24,0.011,0.37  v0.3c-0.011,0.12-0.021,0.24-0.03,0.36c-0.01,0.11-0.021,0.21-0.04,0.32c-0.01,0.12-0.03,0.229-0.05,0.35  c-0.021,0.101-0.051,0.21-0.07,0.311c-0.03,0.12-0.06,0.229-0.09,0.34c-0.03,0.109-0.07,0.21-0.101,0.319  c-0.04,0.11-0.079,0.221-0.13,0.33c-0.04,0.101-0.08,0.2-0.13,0.301c-0.05,0.109-0.1,0.22-0.16,0.319  c-0.05,0.101-0.1,0.19-0.159,0.29c-0.061,0.11-0.131,0.21-0.2,0.32c-0.061,0.09-0.12,0.18-0.19,0.26c-0.07,0.11-0.149,0.2-0.229,0.3  c-0.04,0.051-0.07,0.101-0.11,0.15c-0.03,0.04-0.07,0.07-0.11,0.11s-0.069,0.09-0.12,0.14c-0.029,0.03-0.069,0.06-0.109,0.1  c-0.2,0.2-0.4,0.38-0.62,0.561c-0.04,0.03-0.08,0.06-0.12,0.09c-0.26,0.2-0.53,0.37-0.81,0.53c-0.061,0.029-0.12,0.06-0.19,0.1  c-0.229,0.12-0.46,0.22-0.7,0.311c-0.069,0.029-0.14,0.06-0.21,0.079c-0.3,0.11-0.6,0.2-0.899,0.261c-0.04,0-0.07,0.01-0.11,0.01  c-0.27,0.06-0.55,0.09-0.83,0.11c-0.08,0-0.15,0.01-0.229,0.01c-0.08,0-0.16,0.01-0.24,0.01c-0.101,0-0.2-0.02-0.3-0.02  c-0.221-0.011-0.44-0.03-0.66-0.061c-0.16-0.02-0.311-0.05-0.471-0.08c-0.22-0.05-0.43-0.1-0.64-0.17  c-0.149-0.05-0.3-0.09-0.45-0.149c-0.06-0.021-0.13-0.04-0.189-0.061c-15.88-5.84-34.431-10.71-53.681-14.11  c-28.479-5.02-55.75-6.399-76.779-3.899c-22.49,2.67-29.431,8.729-29.99,11.89s3.89,11.23,24.11,21.431  c18.909,9.55,45.01,17.569,73.489,22.589c19.431,3.43,38.641,5.189,55.561,5.109h0.04c3.859,0,7,3.13,7,7  c0,3.12-2.04,5.771-4.87,6.67c-15.96,5.761-33.33,13.96-50.23,23.721c-25.05,14.46-46.83,30.93-61.34,46.37  c-15.5,16.5-16.93,25.609-15.319,28.39c1.6,2.78,10.199,6.1,32.239,0.92c20.63-4.84,45.78-15.47,70.82-29.93  c17.02-9.83,32.84-20.801,45.76-31.721c0.07-0.06,0.141-0.119,0.21-0.18c0.061-0.04,0.11-0.09,0.17-0.13  c0.21-0.16,0.42-0.31,0.65-0.45c0.04-0.02,0.08-0.04,0.12-0.07c0.2-0.109,0.399-0.21,0.62-0.31c0.06-0.03,0.13-0.06,0.199-0.09  c0.25-0.101,0.5-0.19,0.761-0.271c0.029-0.01,0.06-0.01,0.09-0.02c0.24-0.061,0.49-0.11,0.74-0.15c0.069-0.01,0.14-0.02,0.22-0.029  c0.28-0.04,0.56-0.061,0.86-0.061c3.859,0,7,3.13,7,7c0,0.3-0.03,0.601-0.07,0.9c-0.01,0.06-0.01,0.12-0.021,0.189  c-0.05,0.28-0.109,0.561-0.189,0.83c-0.01,0.05-0.021,0.09-0.04,0.13c-0.07,0.25-0.16,0.49-0.26,0.721  c-0.021,0.05-0.04,0.1-0.061,0.149c-0.12,0.25-0.25,0.49-0.399,0.73c-0.011,0.02-0.021,0.04-0.03,0.06  c-8.521,14.62-16.561,32.08-23.26,50.51c-9.9,27.171-16,53.78-17.19,74.94c-1.27,22.6,3.49,30.49,6.5,31.59  c3.021,1.09,11.74-1.89,25.3-20.02c12.69-16.96,25.12-41.271,35.021-68.45c6.72-18.47,11.79-37.101,14.67-53.87  c0.01-0.04,0.02-0.08,0.03-0.12c0.029-0.16,0.06-0.33,0.109-0.49c0.021-0.069,0.04-0.149,0.061-0.22c0.04-0.14,0.09-0.28,0.14-0.41  c0.03-0.09,0.07-0.189,0.11-0.279c0.04-0.11,0.09-0.221,0.14-0.32c0.05-0.11,0.11-0.21,0.16-0.32c0.05-0.09,0.1-0.18,0.16-0.27  c0.06-0.101,0.13-0.21,0.199-0.311c0.061-0.08,0.11-0.17,0.171-0.24c0.079-0.1,0.149-0.199,0.229-0.3  c0.07-0.08,0.14-0.16,0.21-0.229c0.07-0.09,0.15-0.17,0.23-0.25c0.08-0.09,0.17-0.17,0.26-0.25c0.07-0.061,0.149-0.13,0.229-0.19  c0.101-0.09,0.2-0.17,0.301-0.24c0.08-0.06,0.149-0.109,0.22-0.159c0.12-0.08,0.229-0.15,0.35-0.221c0.07-0.05,0.15-0.09,0.23-0.13  c0.12-0.069,0.24-0.13,0.359-0.189c0.091-0.04,0.181-0.08,0.271-0.12c0.11-0.05,0.22-0.09,0.34-0.13c0.11-0.04,0.22-0.08,0.33-0.11  c0.1-0.03,0.21-0.06,0.31-0.09c0.131-0.03,0.25-0.061,0.381-0.09c0.06-0.011,0.119-0.03,0.189-0.04  c0.04-0.011,0.07-0.011,0.11-0.011c0.13-0.02,0.26-0.039,0.39-0.05c0.11-0.01,0.22-0.02,0.33-0.029h0.33c0.13,0,0.26,0,0.39,0.01  c0.09,0,0.181,0.01,0.271,0.02c0.148,0.011,0.299,0.03,0.439,0.05c0.039,0.011,0.07,0.011,0.109,0.011  c0.051,0.01,0.1,0.029,0.15,0.04c0.141,0.02,0.279,0.06,0.42,0.09c0.1,0.03,0.199,0.06,0.291,0.08c0.119,0.04,0.229,0.08,0.35,0.12  c0.109,0.04,0.219,0.08,0.33,0.13l0.27,0.12c0.119,0.06,0.24,0.12,0.359,0.189c0.08,0.04,0.15,0.08,0.23,0.13  c0.119,0.07,0.23,0.141,0.35,0.221c0.07,0.05,0.141,0.1,0.211,0.149c0.109,0.08,0.209,0.16,0.32,0.25  c0.068,0.061,0.148,0.13,0.219,0.19c0.09,0.08,0.18,0.16,0.26,0.25c0.08,0.08,0.16,0.16,0.23,0.25  c0.07,0.069,0.141,0.149,0.211,0.229c0.08,0.101,0.16,0.2,0.229,0.3c0.061,0.08,0.111,0.15,0.17,0.23  c0.07,0.11,0.141,0.22,0.211,0.33c0.051,0.09,0.1,0.17,0.141,0.25c0.059,0.11,0.119,0.22,0.17,0.34c0.049,0.1,0.09,0.2,0.139,0.3  c0.041,0.101,0.08,0.2,0.121,0.3c0.039,0.131,0.08,0.25,0.119,0.381c0.031,0.08,0.061,0.17,0.08,0.26c0.041,0.149,0.07,0.3,0.1,0.45  c0.012,0.05,0.021,0.09,0.031,0.14c2.869,16.75,7.949,35.38,14.68,53.87c9.891,27.18,22.33,51.49,35.01,68.45  c13.561,18.13,22.279,21.109,25.291,20.02c3.02-1.1,7.779-8.99,6.51-31.59c-1.191-21.16-7.291-47.77-17.182-74.94  c-6.719-18.46-14.779-35.939-23.299-50.56c-0.02-0.03-0.041-0.07-0.051-0.1c-0.189-0.311-0.35-0.62-0.479-0.94  c0-0.02-0.012-0.03-0.012-0.05c-0.129-0.311-0.219-0.63-0.299-0.96c-0.01-0.061-0.031-0.11-0.041-0.17  c-0.07-0.32-0.109-0.65-0.139-0.98c0-0.069,0-0.14-0.01-0.21c-0.012-0.33,0-0.66,0.029-0.99c0.01-0.05,0.02-0.1,0.029-0.159  c0.031-0.311,0.09-0.61,0.17-0.91c0.021-0.05,0.021-0.101,0.041-0.15c0.09-0.31,0.209-0.62,0.35-0.92  c0.029-0.07,0.061-0.15,0.09-0.22c0.15-0.29,0.32-0.58,0.5-0.851c0.041-0.069,0.09-0.12,0.131-0.18c0.209-0.28,0.43-0.55,0.67-0.8  l0.029-0.03c0.289-0.29,0.6-0.54,0.93-0.77c0.041-0.03,0.09-0.07,0.131-0.101c0.129-0.08,0.26-0.16,0.389-0.229  c0.07-0.04,0.131-0.08,0.191-0.12c0.129-0.07,0.26-0.12,0.389-0.18c0.07-0.04,0.15-0.08,0.221-0.11c0.119-0.05,0.25-0.09,0.381-0.14  c0.08-0.03,0.158-0.061,0.25-0.091c0.119-0.029,0.238-0.06,0.369-0.09c0.09-0.03,0.18-0.05,0.27-0.069  c0.121-0.021,0.24-0.04,0.361-0.061c0.1-0.02,0.199-0.03,0.299-0.04c0.109-0.02,0.23-0.02,0.35-0.03  c0.102-0.01,0.201-0.01,0.301-0.02c0.119,0,0.23,0.01,0.35,0.01c0.1,0,0.211,0.01,0.32,0.01c0.109,0.011,0.221,0.03,0.33,0.04  c0.109,0.011,0.209,0.03,0.32,0.051c0.109,0.02,0.219,0.04,0.32,0.06c0.109,0.03,0.219,0.05,0.33,0.08  c0.1,0.03,0.209,0.06,0.309,0.1c0.111,0.03,0.221,0.07,0.32,0.11s0.201,0.08,0.301,0.12c0.109,0.05,0.209,0.1,0.32,0.149  c0.1,0.051,0.189,0.101,0.279,0.15c0.109,0.05,0.209,0.12,0.311,0.18c0.09,0.061,0.18,0.12,0.27,0.181  c0.1,0.06,0.199,0.14,0.289,0.21l0.271,0.21c0.029,0.029,0.068,0.06,0.109,0.09c12.93,10.939,28.75,21.91,45.77,31.74  c25.051,14.46,50.201,25.09,70.82,29.93c22.041,5.18,30.641,1.86,32.25-0.92c1.6-2.78,0.18-11.89-15.33-28.39  c-14.5-15.44-36.289-31.91-61.33-46.37c-16.99-9.801-34.4-18.021-50.34-23.761c-0.01,0-0.02-0.01-0.029-0.01  c-0.32-0.109-0.621-0.24-0.91-0.39c-0.031-0.01-0.061-0.021-0.09-0.04c-0.301-0.15-0.58-0.33-0.852-0.521  c-0.029-0.029-0.068-0.05-0.1-0.08c-0.529-0.399-1.01-0.869-1.41-1.409c-0.029-0.04-0.059-0.07-0.08-0.11  c-0.199-0.27-0.369-0.55-0.529-0.85c-0.01-0.021-0.02-0.03-0.029-0.051c-0.141-0.29-0.271-0.59-0.381-0.909  c-0.01-0.03-0.02-0.061-0.029-0.091c-0.111-0.319-0.191-0.649-0.24-0.979c-0.01-0.05-0.02-0.101-0.029-0.15  c-0.051-0.35-0.08-0.7-0.08-1.069c0-1.391,0.408-2.681,1.119-3.771c0.02-0.04,0.051-0.08,0.07-0.13c0.07-0.09,0.141-0.19,0.219-0.28  c0.061-0.08,0.121-0.17,0.191-0.26c0.029-0.04,0.07-0.08,0.109-0.12c1.279-1.479,3.17-2.42,5.279-2.42c0.012,0,0.021,0,0.021,0  c16.969,0.09,36.229-1.68,55.609-5.09c28.48-5.03,54.58-13.049,73.49-22.599C487.881,232.777,492.33,224.707,491.769,221.547z   M428.67,245.377c-15.43,7.79-36.721,14.33-59.961,18.429c-15.809,2.79-31.52,4.23-45.359,4.16c0,0-0.01,0-0.02,0  c-1.721,0-3.26,0.761-4.311,1.971c-0.029,0.029-0.061,0.069-0.08,0.1c-0.059,0.07-0.109,0.15-0.16,0.21  c-0.07,0.07-0.119,0.16-0.18,0.23c-0.02,0.039-0.039,0.069-0.061,0.109c-0.58,0.88-0.908,1.94-0.908,3.07  c0,0.3,0.02,0.59,0.059,0.87c0.01,0.04,0.02,0.09,0.031,0.13c0.039,0.27,0.1,0.53,0.199,0.8c0,0.021,0.01,0.04,0.02,0.07  c0.09,0.26,0.201,0.51,0.311,0.739c0.01,0.021,0.02,0.03,0.02,0.04c0.131,0.25,0.27,0.48,0.439,0.7  c0.012,0.03,0.041,0.05,0.061,0.08c0.33,0.45,0.721,0.83,1.15,1.16c0.029,0.02,0.061,0.04,0.08,0.06  c0.221,0.16,0.449,0.301,0.699,0.431c0.021,0.01,0.051,0.02,0.07,0.029c0.24,0.12,0.48,0.23,0.74,0.32h0.029  c13,4.69,27.201,11.391,41.061,19.391c20.43,11.789,38.211,25.229,50.041,37.819c12.648,13.47,13.809,20.9,12.5,23.17  c-1.311,2.261-8.33,4.971-26.311,0.75c-16.82-3.95-37.33-12.62-57.77-24.42c-13.891-8.02-26.791-16.97-37.34-25.89  c-0.031-0.03-0.07-0.05-0.09-0.08l-0.221-0.17c-0.07-0.05-0.15-0.12-0.24-0.17c-0.07-0.05-0.141-0.101-0.221-0.15  s-0.16-0.1-0.25-0.14c-0.068-0.04-0.148-0.09-0.229-0.12c-0.09-0.05-0.17-0.09-0.262-0.13c-0.078-0.03-0.158-0.061-0.238-0.101  c-0.08-0.029-0.182-0.06-0.271-0.09c-0.08-0.029-0.17-0.05-0.25-0.08c-0.09-0.02-0.18-0.04-0.27-0.06  c-0.08-0.021-0.17-0.03-0.26-0.05c-0.09-0.021-0.17-0.03-0.26-0.04c-0.09-0.011-0.18-0.03-0.27-0.03s-0.182-0.01-0.26-0.01  c-0.102,0-0.191-0.01-0.281-0.01c-0.09,0.01-0.17,0.01-0.25,0.02c-0.1,0-0.199,0-0.279,0.02c-0.09,0.011-0.17,0.021-0.25,0.03  c-0.1,0.021-0.201,0.04-0.291,0.05c-0.08,0.021-0.148,0.03-0.219,0.061c-0.111,0.02-0.211,0.05-0.311,0.07  c-0.07,0.029-0.141,0.05-0.199,0.079c-0.111,0.04-0.211,0.07-0.311,0.11c-0.061,0.021-0.121,0.061-0.18,0.09  c-0.102,0.05-0.211,0.09-0.32,0.15c-0.051,0.03-0.09,0.06-0.15,0.09c-0.109,0.06-0.209,0.13-0.32,0.19  c-0.029,0.029-0.07,0.06-0.109,0.079c-0.27,0.19-0.52,0.391-0.76,0.631l-0.02,0.029c-0.191,0.2-0.371,0.42-0.551,0.65  c-0.029,0.05-0.07,0.09-0.1,0.15c-0.15,0.22-0.291,0.449-0.41,0.689c-0.031,0.061-0.051,0.12-0.07,0.18  c-0.119,0.24-0.221,0.5-0.291,0.75c-0.02,0.04-0.02,0.08-0.029,0.12c-0.07,0.25-0.119,0.49-0.141,0.74  c-0.01,0.05-0.02,0.09-0.02,0.13c-0.029,0.271-0.039,0.54-0.029,0.811c0.01,0.06,0.01,0.119,0.01,0.17  c0.02,0.27,0.061,0.54,0.109,0.8c0.01,0.05,0.031,0.09,0.041,0.14c0.059,0.271,0.129,0.53,0.24,0.78c0,0.02,0.01,0.03,0.01,0.05  c0.1,0.26,0.24,0.51,0.389,0.76c0.012,0.03,0.021,0.061,0.041,0.08c6.949,11.931,13.529,26.19,19.01,41.25  c8.07,22.17,13.041,43.87,14.01,61.141c1.041,18.43-2.84,24.87-5.311,25.77c-2.449,0.891-9.559-1.54-20.629-16.34  c-10.34-13.83-20.49-33.66-28.561-55.84c-5.49-15.08-9.629-30.28-11.969-43.94c-0.012-0.04-0.021-0.08-0.031-0.12  c-0.02-0.119-0.049-0.239-0.08-0.359c-0.02-0.08-0.039-0.15-0.07-0.221c-0.029-0.1-0.059-0.199-0.09-0.31  c-0.039-0.08-0.07-0.16-0.1-0.24c-0.039-0.08-0.08-0.17-0.119-0.25c-0.041-0.09-0.09-0.18-0.141-0.27  c-0.029-0.07-0.07-0.13-0.109-0.21c-0.061-0.09-0.111-0.181-0.17-0.271c-0.051-0.06-0.09-0.12-0.141-0.18  c-0.061-0.09-0.121-0.17-0.189-0.25c-0.051-0.06-0.111-0.13-0.17-0.19c-0.061-0.069-0.121-0.14-0.191-0.199  c-0.059-0.07-0.129-0.141-0.209-0.2c-0.051-0.05-0.121-0.11-0.18-0.16c-0.09-0.07-0.17-0.14-0.26-0.2  c-0.061-0.05-0.111-0.08-0.172-0.13c-0.1-0.06-0.189-0.12-0.279-0.18c-0.07-0.04-0.129-0.07-0.189-0.101  c-0.1-0.06-0.201-0.109-0.301-0.16c-0.07-0.029-0.139-0.06-0.219-0.09c-0.09-0.05-0.182-0.08-0.271-0.109  c-0.09-0.03-0.18-0.07-0.279-0.101c-0.08-0.01-0.16-0.04-0.24-0.06c-0.109-0.03-0.23-0.061-0.34-0.08  c-0.039,0-0.08-0.021-0.119-0.03c-0.031,0-0.061,0-0.09-0.01c-0.121-0.01-0.24-0.03-0.361-0.04c-0.08-0.01-0.15-0.01-0.219-0.01  c-0.11-0.01-0.21-0.01-0.32-0.01h-0.271c-0.09,0.01-0.18,0.01-0.27,0.02c-0.1,0.01-0.21,0.03-0.32,0.04c-0.029,0-0.05,0-0.09,0.01  c-0.05,0.01-0.1,0.03-0.149,0.03c-0.11,0.03-0.21,0.05-0.311,0.08c-0.08,0.02-0.17,0.05-0.25,0.07c-0.09,0.02-0.18,0.06-0.27,0.09  c-0.101,0.029-0.19,0.06-0.28,0.109c-0.07,0.03-0.15,0.061-0.22,0.09c-0.101,0.051-0.2,0.101-0.29,0.16  c-0.07,0.03-0.141,0.061-0.19,0.101c-0.1,0.06-0.189,0.12-0.29,0.18c-0.05,0.05-0.109,0.08-0.18,0.13  c-0.08,0.061-0.16,0.13-0.24,0.2c-0.07,0.05-0.13,0.11-0.189,0.16c-0.07,0.06-0.15,0.13-0.211,0.2  c-0.069,0.06-0.13,0.13-0.189,0.199c-0.061,0.061-0.11,0.131-0.17,0.19c-0.07,0.08-0.12,0.16-0.19,0.25  c-0.05,0.05-0.09,0.13-0.14,0.19c-0.05,0.079-0.11,0.17-0.16,0.25c-0.05,0.079-0.09,0.149-0.13,0.22c-0.04,0.09-0.09,0.18-0.13,0.27  c-0.04,0.08-0.08,0.17-0.12,0.261c-0.03,0.069-0.06,0.149-0.09,0.22c-0.04,0.109-0.08,0.22-0.11,0.34  c-0.02,0.06-0.03,0.12-0.05,0.18c-0.04,0.13-0.06,0.271-0.09,0.4c-0.01,0.03-0.01,0.06-0.021,0.1  c-2.35,13.681-6.489,28.88-11.97,43.94c-8.08,22.18-18.22,42.01-28.57,55.84c-11.06,14.8-18.18,17.23-20.64,16.34  c-2.46-0.899-6.34-7.34-5.3-25.77c0.97-17.271,5.95-38.971,14.02-61.141c5.471-15.029,12.03-29.279,18.98-41.21  c0.01-0.01,0.01-0.029,0.02-0.04c0.12-0.199,0.23-0.399,0.33-0.6c0.01-0.04,0.03-0.08,0.05-0.12c0.08-0.19,0.15-0.39,0.21-0.59  c0.021-0.03,0.021-0.07,0.03-0.11c0.07-0.22,0.12-0.439,0.16-0.67c0-0.06,0-0.109,0.01-0.16c0.04-0.239,0.061-0.489,0.061-0.729  c0-3.16-2.561-5.71-5.71-5.71c-0.24,0-0.471,0.01-0.7,0.05c-0.07,0-0.12,0.01-0.18,0.02c-0.211,0.03-0.41,0.07-0.61,0.12  c-0.021,0.011-0.04,0.011-0.07,0.021c-0.21,0.06-0.42,0.14-0.62,0.22c-0.06,0.021-0.109,0.05-0.16,0.07  c-0.18,0.09-0.34,0.17-0.51,0.26c-0.029,0.02-0.06,0.04-0.1,0.05c-0.18,0.12-0.351,0.24-0.53,0.37c-0.05,0.03-0.09,0.07-0.13,0.11  c-0.06,0.05-0.12,0.09-0.18,0.14c-10.54,8.91-23.44,17.86-37.33,25.88c-20.42,11.8-40.94,20.47-57.771,24.42  c-17.979,4.221-25,1.511-26.3-0.75c-1.32-2.27-0.15-9.7,12.5-23.17c11.83-12.59,29.6-26.03,50.04-37.819  c13.78-7.961,27.95-14.65,40.97-19.351c2.311-0.74,3.98-2.899,3.98-5.45c0-3.149-2.57-5.71-5.71-5.71h-0.04  c-13.8,0.07-29.47-1.37-45.32-4.16c-23.24-4.1-44.53-10.639-59.95-18.429c-16.5-8.32-20.13-14.91-19.67-17.479  c0.45-2.58,6.11-7.53,24.46-9.7c17.16-2.04,39.4-0.92,62.641,3.18c15.699,2.771,30.84,6.74,43.79,11.51  c0.05,0.011,0.109,0.03,0.159,0.051c0.12,0.05,0.24,0.079,0.36,0.119c0.17,0.061,0.351,0.101,0.521,0.141  c0.14,0.02,0.26,0.05,0.39,0.06c0.18,0.03,0.36,0.04,0.54,0.05c0.08,0,0.16,0.021,0.24,0.021c0.069,0,0.13-0.01,0.199-0.01  c0.061,0,0.12-0.011,0.19-0.011c0.22-0.02,0.45-0.04,0.67-0.09c0.03,0,0.061-0.01,0.09-0.01c0.25-0.05,0.49-0.12,0.74-0.21  c0.05-0.01,0.11-0.04,0.17-0.06c0.19-0.08,0.38-0.16,0.57-0.261c0.06-0.029,0.1-0.05,0.149-0.08c0.23-0.13,0.45-0.27,0.66-0.43  c0.04-0.03,0.07-0.05,0.101-0.07c0.18-0.149,0.34-0.3,0.51-0.46c0.03-0.029,0.06-0.06,0.09-0.08c0.04-0.04,0.06-0.079,0.1-0.119  c0.03-0.03,0.061-0.051,0.08-0.091c0.04-0.04,0.061-0.08,0.091-0.119c0.069-0.08,0.14-0.15,0.189-0.24  c0.061-0.07,0.11-0.141,0.16-0.221c0.05-0.079,0.11-0.17,0.16-0.26c0.05-0.08,0.09-0.149,0.13-0.229c0.05-0.08,0.09-0.17,0.13-0.261  c0.04-0.09,0.08-0.17,0.11-0.25c0.04-0.09,0.069-0.18,0.1-0.27s0.06-0.17,0.08-0.26c0.03-0.09,0.05-0.181,0.08-0.28  c0.01-0.08,0.04-0.17,0.06-0.25c0.011-0.1,0.03-0.19,0.04-0.29c0.011-0.09,0.021-0.17,0.03-0.25c0.01-0.1,0.02-0.2,0.02-0.3v-0.55  c0-0.08-0.01-0.16-0.02-0.23c-0.01-0.109-0.02-0.21-0.03-0.32c-0.02-0.069-0.029-0.149-0.04-0.22c-0.02-0.109-0.05-0.22-0.08-0.33  c-0.01-0.06-0.029-0.14-0.06-0.2c-0.021-0.109-0.06-0.21-0.09-0.319c-0.03-0.07-0.05-0.141-0.08-0.2c-0.04-0.11-0.09-0.22-0.13-0.31  l-0.101-0.2c-0.05-0.101-0.109-0.2-0.17-0.29c-0.04-0.07-0.08-0.13-0.12-0.2c-0.06-0.09-0.119-0.19-0.189-0.28  c-0.04-0.05-0.09-0.12-0.141-0.18c-0.079-0.08-0.14-0.17-0.22-0.26c-0.05-0.05-0.109-0.11-0.17-0.17  c-0.04-0.051-0.08-0.091-0.12-0.13c-0.04-0.04-0.09-0.07-0.13-0.11c-0.02-0.03-0.05-0.05-0.08-0.08c-0.02-0.021-0.05-0.05-0.08-0.06  c-10.67-8.891-21.75-20.07-32.05-32.351c-15.16-18.06-27.26-36.76-34.07-52.64c-7.29-16.98-5.83-24.36-3.83-26.04  c2.011-1.681,9.521-1.83,24.971,8.29c14.46,9.46,30.77,24.63,45.93,42.7c10.34,12.319,19.43,25.189,26.3,37.21  c0.021,0.04,0.05,0.08,0.08,0.13c0.05,0.09,0.11,0.18,0.17,0.26c0.061,0.08,0.11,0.16,0.16,0.229c0.061,0.07,0.11,0.141,0.16,0.211  c0.08,0.079,0.15,0.159,0.229,0.239c0.04,0.05,0.091,0.101,0.131,0.15c0.09,0.09,0.189,0.17,0.279,0.25  c0.04,0.04,0.08,0.07,0.12,0.11c0.11,0.079,0.22,0.159,0.32,0.229c0.04,0.04,0.08,0.06,0.12,0.09c0.109,0.08,0.22,0.141,0.34,0.21  c0.05,0.03,0.09,0.05,0.14,0.08c0.11,0.061,0.221,0.11,0.33,0.17c0.061,0.021,0.12,0.05,0.181,0.07c0.109,0.04,0.21,0.09,0.319,0.13  c0.07,0.021,0.141,0.04,0.21,0.06c0.101,0.03,0.2,0.07,0.311,0.091c0.069,0.02,0.149,0.029,0.229,0.05  c0.11,0.02,0.21,0.04,0.32,0.06c0.07,0.011,0.14,0.011,0.22,0.021c0.11,0.02,0.23,0.029,0.34,0.029h0.59  c0.061-0.01,0.11-0.01,0.171-0.02c0.14-0.01,0.27-0.03,0.409-0.05c0.03-0.01,0.061-0.01,0.101-0.021c0.02,0,0.04,0,0.06-0.01  c0.13-0.03,0.25-0.05,0.38-0.09c0.07-0.021,0.13-0.03,0.2-0.05c0.101-0.03,0.2-0.07,0.3-0.11c0.091-0.03,0.17-0.06,0.261-0.09  c0.08-0.04,0.159-0.08,0.229-0.11c0.101-0.05,0.2-0.1,0.3-0.16c0.03-0.01,0.051-0.02,0.08-0.04c0.04-0.01,0.08-0.05,0.11-0.069  c0.11-0.061,0.2-0.12,0.29-0.19c0.07-0.04,0.13-0.09,0.2-0.13c0.08-0.07,0.159-0.13,0.239-0.189c0.07-0.07,0.141-0.131,0.21-0.19  c0.061-0.06,0.131-0.12,0.19-0.18c0.07-0.07,0.14-0.16,0.21-0.23c0.05-0.06,0.1-0.12,0.15-0.18c0.069-0.08,0.13-0.17,0.189-0.25  c0.05-0.07,0.09-0.13,0.141-0.2c0.06-0.08,0.109-0.17,0.149-0.25c0.05-0.08,0.09-0.16,0.13-0.24c0.05-0.08,0.09-0.149,0.13-0.229  c0.04-0.09,0.08-0.19,0.12-0.28c0.021-0.07,0.05-0.15,0.08-0.21c0.03-0.11,0.07-0.22,0.101-0.33c0.02-0.06,0.04-0.13,0.06-0.189  c0.021-0.11,0.05-0.23,0.07-0.351c0.02-0.06,0.02-0.13,0.029-0.189c0.03-0.12,0.03-0.23,0.051-0.351c0-0.07,0.01-0.14,0.02-0.22  c0-0.101,0.01-0.21,0.01-0.311c0-0.09-0.01-0.18-0.01-0.27c-0.01-0.09-0.02-0.18-0.03-0.271c-0.01-0.109-0.02-0.22-0.04-0.319  c-0.01-0.05-0.01-0.11-0.01-0.16c-2.479-13.61-3.79-29.31-3.79-45.39c0-23.591,2.75-45.7,7.74-62.24  c5.34-17.69,11.19-22.4,13.81-22.4c2.61,0,8.459,4.71,13.801,22.4c4.988,16.54,7.738,38.649,7.738,62.24  c0,16.08-1.309,31.779-3.779,45.39c-0.01,0.06-0.01,0.11-0.02,0.16c-0.02,0.1-0.031,0.21-0.041,0.319  c-0.01,0.091-0.02,0.181-0.029,0.271v0.58c0.01,0.08,0.02,0.149,0.02,0.22c0.02,0.12,0.02,0.23,0.051,0.351  c0.01,0.06,0.02,0.13,0.029,0.189c0.031,0.12,0.051,0.24,0.08,0.351c0.01,0.06,0.031,0.13,0.051,0.189  c0.039,0.11,0.07,0.22,0.109,0.33c0.02,0.06,0.051,0.14,0.07,0.2c0.039,0.1,0.08,0.2,0.129,0.29c0.031,0.08,0.08,0.149,0.121,0.22  c0.039,0.09,0.08,0.17,0.129,0.25c0.051,0.08,0.102,0.16,0.15,0.25c0.041,0.07,0.09,0.13,0.141,0.21  c0.07,0.08,0.119,0.15,0.189,0.23c0.051,0.069,0.111,0.13,0.16,0.199c0.07,0.07,0.131,0.141,0.201,0.21  c0.059,0.07,0.139,0.131,0.199,0.2c0.07,0.05,0.119,0.11,0.189,0.17c0.09,0.061,0.18,0.141,0.27,0.2  c0.061,0.04,0.102,0.08,0.16,0.12c0.111,0.08,0.221,0.15,0.33,0.22c0.031,0.011,0.061,0.04,0.102,0.05  c0.01,0.021,0.039,0.03,0.059,0.04c0.111,0.061,0.221,0.11,0.33,0.171c0.07,0.029,0.141,0.06,0.201,0.09  c0.1,0.04,0.189,0.069,0.289,0.109c0.09,0.03,0.18,0.07,0.27,0.09c0.08,0.03,0.15,0.04,0.221,0.07c0.131,0.03,0.24,0.05,0.359,0.08  c0.031,0.01,0.051,0.01,0.08,0.01c0.051,0.011,0.09,0.021,0.141,0.021c0.1,0.02,0.199,0.03,0.301,0.05  c0.09,0.01,0.17,0.01,0.25,0.02h0.27c0.02,0,0.039,0.011,0.07,0.011c0.02,0,0.049-0.011,0.059-0.011c0.311,0,0.611-0.029,0.91-0.079  c0.031-0.011,0.051-0.011,0.08-0.011c0.27-0.06,0.551-0.13,0.83-0.229c0.02-0.01,0.061-0.021,0.09-0.03  c0.271-0.1,0.541-0.22,0.791-0.37c0.029-0.02,0.07-0.03,0.109-0.06c0.25-0.15,0.49-0.311,0.721-0.5  c0.029-0.021,0.049-0.05,0.08-0.07c0.219-0.189,0.439-0.39,0.629-0.62c0.031-0.02,0.041-0.04,0.061-0.069  c0.17-0.211,0.33-0.431,0.48-0.66c0.02-0.051,0.049-0.09,0.07-0.13c0.01-0.011,0.029-0.021,0.039-0.04  c6.869-12.021,15.949-24.891,26.279-37.21c15.17-18.07,31.48-33.24,45.941-42.7c15.449-10.12,22.969-9.971,24.969-8.29  c2.01,1.68,3.461,9.06-3.83,26.04c-6.809,15.88-18.91,34.58-34.068,52.649c-10.301,12.271-21.381,23.45-32.051,32.33  c-0.061,0.061-0.121,0.11-0.18,0.16c-0.031,0.04-0.07,0.061-0.1,0.09l-0.012,0.011c-0.02,0.02-0.02,0.029-0.039,0.039  c-0.02,0.03-0.041,0.04-0.061,0.061c-0.059,0.06-0.109,0.12-0.17,0.18c-0.061,0.061-0.109,0.13-0.17,0.2  c-0.07,0.08-0.129,0.16-0.199,0.25c-0.041,0.06-0.1,0.14-0.15,0.2c-0.061,0.09-0.109,0.18-0.16,0.27  c-0.051,0.07-0.09,0.141-0.131,0.21c-0.049,0.101-0.09,0.19-0.139,0.29c-0.041,0.07-0.07,0.15-0.1,0.221  c-0.041,0.1-0.08,0.189-0.111,0.29c-0.029,0.079-0.059,0.149-0.09,0.22c-0.02,0.109-0.049,0.21-0.07,0.3  c-0.029,0.09-0.039,0.16-0.059,0.24c-0.021,0.1-0.041,0.21-0.051,0.3c-0.01,0.08-0.029,0.16-0.039,0.24  c-0.012,0.109-0.012,0.2-0.021,0.3c0,0.08-0.01,0.16-0.01,0.25c0,0.1,0,0.19,0.01,0.29c0,0.09,0,0.17,0.01,0.26  c0,0.09,0.021,0.19,0.031,0.29c0.02,0.08,0.02,0.17,0.039,0.26c0.021,0.091,0.041,0.181,0.061,0.271s0.039,0.18,0.061,0.27  c0.029,0.08,0.059,0.17,0.09,0.261c0.029,0.09,0.061,0.17,0.09,0.26s0.08,0.17,0.119,0.25c0.031,0.09,0.07,0.17,0.111,0.25  c0.039,0.09,0.09,0.17,0.139,0.26c0.051,0.08,0.09,0.16,0.141,0.23c0.061,0.079,0.109,0.17,0.16,0.239  c0.061,0.08,0.109,0.15,0.17,0.24c0.07,0.07,0.119,0.13,0.189,0.21c0.051,0.061,0.1,0.11,0.15,0.17  c0.01,0.021,0.029,0.021,0.051,0.04c0.01,0.03,0.029,0.04,0.049,0.07c0.16,0.16,0.33,0.31,0.51,0.439  c0.051,0.04,0.102,0.08,0.15,0.11c0.17,0.12,0.34,0.24,0.52,0.34c0.051,0.03,0.09,0.061,0.141,0.09  c0.221,0.12,0.439,0.221,0.67,0.301c0.051,0.02,0.121,0.05,0.17,0.06c0.201,0.08,0.4,0.13,0.59,0.17c0.051,0.01,0.1,0.03,0.15,0.04  c0.24,0.04,0.471,0.08,0.711,0.09c0.059,0.01,0.129,0.01,0.189,0.01c0.08,0.011,0.16,0.021,0.24,0.021  c0.059,0,0.119-0.021,0.18-0.021c0.199-0.01,0.41-0.02,0.609-0.06c0.111-0.01,0.211-0.02,0.32-0.04c0.211-0.05,0.43-0.1,0.641-0.18  c0.09-0.021,0.17-0.04,0.26-0.08c0.029-0.01,0.07-0.01,0.1-0.03c12.98-4.77,28.15-8.76,43.891-11.54  c23.24-4.09,45.479-5.22,62.65-3.18c18.34,2.17,24,7.12,24.459,9.7C448.789,230.467,445.16,237.056,428.67,245.377z" opacity="0.2"/><g><circle cx="255.999" cy="263.114" fill="none" r="24.155" stroke="#010101" stroke-linecap="round" stroke-linejoin="round" stroke-miterlimit="10" stroke-width="4"/><circle cx="255.999" cy="263.114" fill="none" r="47.284" stroke="#010101" stroke-linecap="round" stroke-linejoin="round" stroke-miterlimit="10" stroke-width="4"/><path d="   M227.341,184.365c-3.023-16.632-4.75-36.09-4.75-56.895c0-61.174,14.956-110.76,33.408-110.76   c18.451,0,33.407,49.586,33.407,110.76c0,20.805-1.727,40.263-4.748,56.895" fill="none" stroke="#010101" stroke-linecap="round" stroke-linejoin="round" stroke-miterlimit="10" stroke-width="4"/><path d="   M183.396,221.206l-0.011-0.01c-12.981-10.804-26.807-24.588-40.171-40.521C103.896,133.823,83.483,86.22,97.616,74.359   c14.134-11.863,57.461,16.518,96.777,63.37c13.374,15.942,24.569,31.97,32.946,46.638" fill="none" stroke="#010101" stroke-linecap="round" stroke-linejoin="round" stroke-miterlimit="10" stroke-width="4"/><path d="   M173.436,277.669c0,0,0,0-0.009,0c-16.888,0.082-36.338-1.604-56.813-5.211c-60.237-10.617-106.483-33.963-103.276-52.136   c3.208-18.163,54.635-24.279,114.881-13.661c20.466,3.607,39.318,8.686,55.169,14.533l0.01,0.01" fill="none" stroke="#010101" stroke-linecap="round" stroke-linejoin="round" stroke-miterlimit="10" stroke-width="4"/><path d="   M202.125,327.329c-0.01,0-0.01,0-0.01,0.012c-12.89,10.914-28.874,22.129-46.883,32.531   c-52.979,30.58-103.399,42.424-112.629,26.449c-9.221-15.984,26.243-53.73,79.222-84.32c17.999-10.393,35.711-18.617,51.602-24.332   c0.009,0,0.009,0,0.009,0" fill="none" stroke="#010101" stroke-linecap="round" stroke-linejoin="round" stroke-miterlimit="10" stroke-width="4"/><path d="   M202.125,327.329c-0.01,0-0.01,0-0.01,0.012c-8.511,14.584-16.786,32.273-23.897,51.816c-20.93,57.48-23.829,109.195-6.497,115.498   c17.341,6.311,48.354-35.166,69.282-92.646c7.114-19.553,12.14-38.436,14.998-55.086" fill="none" stroke="#010101" stroke-linecap="round" stroke-linejoin="round" stroke-miterlimit="10" stroke-width="4"/><path d="   M255.999,346.921c2.857,16.652,7.886,35.535,14.998,55.086c20.929,57.482,51.941,98.959,69.281,92.646   c17.33-6.311,14.433-58.018-6.496-115.498c-7.113-19.541-15.388-37.232-23.909-51.828c-0.011-0.01-0.011-0.01-0.011-0.01" fill="none" stroke="#010101" stroke-linecap="round" stroke-linejoin="round" stroke-miterlimit="10" stroke-width="4"/><path d="   M309.863,327.318c0,0,0,0,0.011,0.012c12.891,10.916,28.884,22.141,46.895,32.543c52.979,30.58,103.399,42.424,112.63,26.449   c9.221-15.984-26.242-53.73-79.223-84.32c-18.011-10.393-35.719-18.625-51.624-24.342h-0.009" fill="none" stroke="#010101" stroke-linecap="round" stroke-linejoin="round" stroke-miterlimit="10" stroke-width="4"/><path d="   M328.601,221.206l0.01-0.01c15.851-5.849,34.705-10.928,55.17-14.534c60.247-10.619,111.674-4.503,114.882,13.661   c3.206,18.174-43.04,41.518-103.277,52.137c-20.477,3.607-39.944,5.283-56.835,5.201h-0.01" fill="none" stroke="#010101" stroke-linecap="round" stroke-linejoin="round" stroke-miterlimit="10" stroke-width="4"/><path d="   M284.659,184.365c8.378-14.667,19.571-30.693,32.942-46.637c39.318-46.853,82.646-75.233,96.78-63.371   c14.134,11.863-6.28,59.467-45.599,106.318c-13.363,15.932-27.189,29.717-40.172,40.52l-0.01,0.01" fill="none" stroke="#010101" stroke-linecap="round" stroke-linejoin="round" stroke-miterlimit="10" stroke-width="4"/></g><circle cx="383.641" cy="405.433" fill="#D712F9" r="12"/><circle cx="98.289" cy="445.434" fill="#D712F9" r="12"/><circle cx="470.856" cy="433.433" fill="#D712F9" r="12"/><circle cx="491.814" cy="287.269" fill="#D712F9" r="12"/><circle cx="430.862" cy="35.71" fill="#D712F9" r="12"/><circle cx="60.519" cy="47.713" fill="#D712F9" r="12"/><circle cx="60.519" cy="149.399" fill="#D712F9" r="12"/><g><line fill="none" stroke="#FECD0E" stroke-miterlimit="10" stroke-width="5" x1="413.711" x2="395.641" y1="463.863" y2="481.934"/><line fill="none" stroke="#FECD0E" stroke-miterlimit="10" stroke-width="5" x1="395.641" x2="413.711" y1="463.863" y2="481.934"/></g><g><line fill="none" stroke="#FECD0E" stroke-miterlimit="10" stroke-width="5" x1="460.933" x2="442.864" y1="128.361" y2="146.432"/><line fill="none" stroke="#FECD0E" stroke-miterlimit="10" stroke-width="5" x1="442.864" x2="460.933" y1="128.361" y2="146.432"/></g><g><line fill="none" stroke="#FECD0E" stroke-miterlimit="10" stroke-width="5" x1="346.671" x2="328.601" y1="47.713" y2="65.784"/><line fill="none" stroke="#FECD0E" stroke-miterlimit="10" stroke-width="5" x1="328.601" x2="346.671" y1="47.713" y2="65.784"/></g><g><line fill="none" stroke="#FECD0E" stroke-miterlimit="10" stroke-width="5" x1="169.272" x2="151.203" y1="38.677" y2="56.748"/><line fill="none" stroke="#FECD0E" stroke-miterlimit="10" stroke-width="5" x1="151.203" x2="169.272" y1="38.677" y2="56.748"/></g><g><line fill="none" stroke="#FECD0E" stroke-miterlimit="10" stroke-width="5" x1="38.254" x2="20.184" y1="290.233" y2="308.305"/><line fill="none" stroke="#FECD0E" stroke-miterlimit="10" stroke-width="5" x1="20.184" x2="38.254" y1="290.233" y2="308.305"/></g><g><line fill="none" stroke="#FECD0E" stroke-miterlimit="10" stroke-width="5" x1="47.288" x2="29.219" y1="445.433" y2="463.505"/><line fill="none" stroke="#FECD0E" stroke-miterlimit="10" stroke-width="5" x1="29.219" x2="47.288" y1="445.433" y2="463.505"/></g></svg>