<?xml version="1.0" ?><!DOCTYPE svg  PUBLIC '-//W3C//DTD SVG 1.1//EN'  'http://www.w3.org/Graphics/SVG/1.1/DTD/svg11.dtd'><svg enable-background="new 0 0 512 512" height="512px" id="Calque_1" version="1.1" viewBox="0 0 512 512" width="512px" xml:space="preserve" xmlns="http://www.w3.org/2000/svg" xmlns:xlink="http://www.w3.org/1999/xlink"><path d="M361.536,295.799c-13.006,0-25.904-1.79-38.437-5.305c-1.271,3.15-2.772,6.23-4.502,9.227  c-1.731,2.996-3.649,5.836-5.746,8.514c15.164,14.835,26.704,32.8,34.407,53.392c34.592,18.94,73.79,22.704,99.426,22.704  c7.011,0,12.953-0.287,17.394-0.606c-5.184-10.663-15.921-30.492-32.395-50.28c-13.998-16.813-29.015-30.102-44.955-39.831  C378.588,295.001,370.171,295.799,361.536,295.799z" fill="#FF50CE"/><path d="M290.093,327.329c-2.997,1.597-6.126,2.988-9.371,4.171c-3.243,1.18-6.539,2.122-9.874,2.827  c2.087,21.154-0.635,42.377-8.001,63.143c6.813,17.413,17.301,34.53,31.446,51.257c16.621,19.653,34.28,33.669,43.884,40.629  c2.884-11.505,7.4-33.592,7.5-59.331c0.085-21.838-2.866-41.636-8.804-59.311C319.41,360.479,303.136,346.456,290.093,327.329z" fill="#FF50CE"/><path d="M375.264,202.692c-14.275,16.7-31.256,29.625-50.568,38.373c1.054,3.233,1.883,6.559,2.483,9.963  c0.601,3.407,0.958,6.816,1.072,10.218c21.143,1.614,41.52,7.954,60.646,18.765c49.577-9.959,89.024-43.969,103.703-58.147  c-15.582-6.944-52.153-21.01-92.744-21.01C391.372,200.853,383.177,201.481,375.264,202.692z" fill="#FF50CE"/><path d="M183.744,261.246c0.116-3.399,0.474-6.81,1.075-10.216c0.601-3.405,1.431-6.73,2.486-9.966  c-19.313-8.748-36.292-21.672-50.567-38.372c-7.913-1.211-16.109-1.84-24.597-1.84c-40.67,0-77.178,14.052-92.74,21.001  c14.694,14.171,54.19,48.183,103.711,58.15C142.236,269.198,162.608,262.862,183.744,261.246z" fill="#FF50CE"/><path d="M241.153,334.325c-3.338-0.704-6.636-1.646-9.875-2.825c-3.246-1.182-6.373-2.573-9.372-4.172  c-13.044,19.129-29.318,33.15-46.782,43.387c-5.969,17.772-8.918,37.692-8.798,59.675c0.141,25.649,4.625,47.543,7.494,58.971  c9.603-6.958,27.265-20.976,43.888-40.632c14.146-16.728,24.634-33.847,31.446-51.26  C241.788,376.703,239.067,355.482,241.153,334.325z" fill="#FF50CE"/><path d="M192.57,228.902c0.188-0.343,0.389-0.68,0.583-1.021c0.397-0.703,0.799-1.404,1.221-2.092  c0.006-0.011,0.013-0.021,0.019-0.031c-10.465-7.487-21.87-13.283-34.134-17.403c9.678,8.509,20.406,15.453,32.177,20.785  C192.477,229.059,192.526,228.982,192.57,228.902z" fill="#FECD0E"/><path d="M211.041,320.198c-0.047-0.037-0.091-0.077-0.137-0.113c-0.433-0.347-0.855-0.707-1.281-1.064  c-0.494-0.411-0.989-0.821-1.471-1.245c-0.034-0.03-0.07-0.058-0.104-0.088c-9.25,9.049-16.967,19.26-23.153,30.584  C194.522,340.596,203.404,331.345,211.041,320.198z" fill="#FECD0E"/><path d="M193.405,299.72c-1.728-2.993-3.229-6.072-4.5-9.227c-12.533,3.516-25.434,5.307-38.441,5.307  c-8.637,0-17.055-0.798-25.195-2.188c-16.03,9.783-31.122,23.166-45.185,40.112c-16.384,19.744-27.022,39.402-32.169,49.998  c4.44,0.32,10.385,0.607,17.4,0.607c25.636,0,64.835-3.765,99.427-22.706c7.703-20.59,19.243-38.554,34.407-53.388  C197.052,305.558,195.134,302.716,193.405,299.72z" fill="#FF50CE"/><path d="M184.504,274.284c-0.004-0.026-0.009-0.053-0.013-0.078c-12.904,0.985-25.379,3.849-37.398,8.546  c1.121,0.028,2.244,0.048,3.372,0.048c11.738,0,23.385-1.596,34.703-4.748c-0.015-0.074-0.024-0.148-0.041-0.222  c-0.091-0.458-0.167-0.92-0.25-1.38C184.744,275.729,184.614,275.008,184.504,274.284z" fill="#FECD0E"/><path d="M202.162,215.333c2.271-2.524,4.732-4.901,7.378-7.121c2.649-2.224,5.422-4.237,8.311-6.037  c-9.195-19.165-13.896-40.039-14.074-62.07c-12.426-14.109-28.242-26.667-47.398-37.587c-22.283-12.703-43.485-19.767-54.816-22.996  c1.225,11.793,4.533,34.099,13.245,58.325c7.396,20.567,16.948,38.173,28.585,52.759  C165.107,194.578,184.777,202.842,202.162,215.333z" fill="#FF50CE"/><path d="M302.459,208.213c2.645,2.22,5.104,4.596,7.374,7.121c17.389-12.494,37.063-20.758,58.782-24.73  c11.7-14.666,21.293-32.387,28.703-53.099c8.641-24.151,11.916-46.257,13.128-57.978c-11.401,3.254-32.794,10.386-55.141,23.172  c-19.015,10.879-34.724,23.376-47.08,37.408c-0.18,22.031-4.879,42.903-14.074,62.067  C297.037,203.975,299.809,205.99,302.459,208.213z" fill="#FF50CE"/><path d="M256,191.302c3.458,0,6.875,0.24,10.243,0.716c5.275-20.591,15.092-39.603,29.117-56.594  c-0.446-18.692-4.446-38.363-12.02-58.918C274.444,52.353,262.644,33.143,256,23.318c-6.643,9.823-18.442,29.033-27.34,53.188  c-7.572,20.557-11.573,40.229-12.02,58.92c14.022,16.991,23.838,36.002,29.112,56.592C249.121,191.542,252.54,191.302,256,191.302z" fill="#FF50CE"/><path d="M234.689,135.429c13.959,16.899,23.741,35.8,29.03,56.271  c-2.529-0.271-5.091-0.399-7.671-0.399c-3.461,0-6.868,0.239-10.239,0.72c-5.28-20.59-15.091-39.6-29.12-56.59  c0.45-18.7,4.45-38.37,12.02-58.93c8.9-24.15,20.7-43.36,27.34-53.182c2.439,3.602,5.57,8.471,9.011,14.392  c-5.92,10.199-12.722,23.5-18.351,38.79C239.139,97.059,235.139,116.729,234.689,135.429z" enable-background="new    " opacity="0.2"/><path d="M157.299,179.11c21.558,3.974,41.198,12.164,58.408,24.445  c-2.11,1.419-4.156,2.966-6.132,4.624c-2.651,2.225-5.108,4.599-7.381,7.134c-17.28-12.379-37.014-20.636-58.683-24.632  c-11.676-14.615-21.256-32.254-28.673-52.869c-8.706-24.221-12.015-46.521-13.239-58.313c4.183,1.189,9.711,2.907,16.151,5.231  c2.021,11.618,5.361,26.18,10.876,41.51C136.044,146.856,145.624,164.495,157.299,179.11z" enable-background="new    " opacity="0.2"/><path d="M126.093,262.316c19.067-10.813,39.38-17.163,60.456-18.816  c-0.704,2.443-1.276,4.942-1.726,7.483c-0.601,3.409-0.957,6.807-1.069,10.209c-21.193,1.624-41.618,7.983-60.787,18.852  c-18.338-3.69-37.015-11.045-55.947-22.07c-22.238-12.958-39.107-27.914-47.625-36.159c3.97-1.776,9.308-4.015,15.735-6.374  c9.018,7.602,20.935,16.608,35.015,24.809C89.078,251.27,107.755,258.625,126.093,262.316z" enable-background="new    " opacity="0.2"/><path d="M155.671,346.115c7.655-20.539,19.135-38.46,34.217-53.274  c1.03,2.325,2.198,4.606,3.488,6.843c1.731,2.997,3.643,5.829,5.744,8.508c-15.191,14.867-26.75,32.867-34.448,53.513  c-16.42,8.961-35.455,15.332-57.045,19.057c-25.363,4.368-47.899,3.755-59.725,2.914c1.897-3.914,4.55-9.06,7.958-14.998  c11.793,0.025,26.712-0.733,42.768-3.503C120.216,361.446,139.251,355.074,155.671,346.115z" enable-background="new    " opacity="0.2"/><path d="M232.194,391.295c-7.338-20.654-10.064-41.762-8.033-62.806  c2.285,1.118,4.646,2.116,7.071,2.999c3.252,1.185,6.537,2.125,9.869,2.826c-2.081,21.153,0.635,42.372,8.008,63.136  c-6.819,17.419-17.304,34.534-31.45,51.267c-16.623,19.648-34.28,33.666-43.879,40.623c-1.063-4.22-2.337-9.864-3.544-16.604  c9.051-7.561,19.991-17.731,30.51-30.175C214.889,425.829,225.376,408.714,232.194,391.295z" enable-background="new    " opacity="0.2"/><path d="M319.856,376.718c-18.897-11.105-34.553-25.521-46.524-42.947  c2.469-0.612,4.92-1.365,7.346-2.248c3.252-1.184,6.372-2.573,9.376-4.179c12.003,17.542,27.723,32.051,46.718,43.218  c5.974,17.727,8.941,37.577,8.859,59.487c-0.103,25.736-4.619,47.823-7.501,59.323c-3.524-2.55-8.132-6.054-13.389-10.44  c2.073-11.609,3.916-26.435,3.977-42.728C328.798,414.297,325.83,394.445,319.856,376.718z" enable-background="new    " opacity="0.2"/><path d="M377.639,309.202c-21.615,3.641-42.874,2.659-63.246-2.993  c1.497-2.058,2.892-4.209,4.182-6.443c1.729-2.997,3.229-6.067,4.496-9.228c20.471,5.722,41.839,6.731,63.567,3.077  c15.971,9.738,31.005,23.036,45.024,39.873c16.466,19.782,27.201,39.605,32.388,50.268c-4.34,0.313-10.12,0.59-16.969,0.606  c-5.873-10.226-13.99-22.767-24.418-35.286C408.644,332.242,393.609,318.943,377.639,309.202z" enable-background="new    " opacity="0.2"/><path d="M378.506,220.342c-14.219,16.682-31.134,29.596-50.374,38.36  c-0.175-2.538-0.489-5.083-0.938-7.624c-0.602-3.408-1.428-6.724-2.486-9.958c19.359-8.775,36.378-21.736,50.673-38.503  c18.495-2.806,38.561-2.282,60.123,1.604c25.329,4.571,46.295,12.855,57.119,17.689c-3.122,3.028-7.372,6.957-12.606,11.371  c-11.072-4.057-25.353-8.446-41.387-11.335C417.067,218.062,397,217.537,378.506,220.342z" enable-background="new    " opacity="0.2"/><path d="M322.051,151.713c-0.17,21.919-4.825,42.685-13.932,61.765  c-1.766-1.832-3.643-3.578-5.619-5.236c-2.65-2.225-5.416-4.232-8.307-6.03c9.188-19.167,13.896-40.034,14.068-62.067  c12.364-14.037,28.07-26.534,47.087-37.417c22.342-12.78,43.728-19.91,55.127-23.166c-0.445,4.328-1.178,10.068-2.35,16.815  c-11.09,4.009-24.85,9.825-38.988,17.919C350.125,125.179,334.415,137.677,322.051,151.713z" enable-background="new    " opacity="0.2"/><path d="M229.615,196.277c0.505-0.196,1.017-0.378,1.527-0.563c0.619-0.229,1.236-0.458,1.861-0.668  c0.039-0.014,0.077-0.028,0.116-0.042c-3.226-12.592-8.24-24.43-14.998-35.492c1.935,12.819,5.701,25.11,11.323,36.829  C229.501,196.317,229.559,196.299,229.615,196.277z" fill="#FECD0E"/><path d="M280.413,195.551c0.693,0.248,1.387,0.497,2.072,0.765c0.021,0.01,0.046,0.018,0.069,0.026  c5.622-11.72,9.391-24.012,11.323-36.832c-6.76,11.063-11.773,22.9-15.002,35.491c0.072,0.023,0.145,0.053,0.216,0.077  C279.535,195.227,279.972,195.392,280.413,195.551z" fill="#FECD0E"/><path d="M318.378,227.068c0.394,0.669,0.783,1.339,1.153,2.021c0.011,0.019,0.021,0.036,0.031,0.054  c11.773-5.333,22.507-12.28,32.187-20.791c-12.266,4.12-23.672,9.916-34.139,17.403c0.047,0.076,0.088,0.154,0.135,0.229  C317.962,226.341,318.167,226.707,318.378,227.068z" fill="#FECD0E"/><path d="M364.907,282.751c-12.019-4.697-24.492-7.56-37.395-8.545c-0.014,0.088-0.031,0.174-0.046,0.262  c-0.061,0.393-0.135,0.784-0.2,1.177c-0.134,0.795-0.271,1.588-0.432,2.377c-0.002,0.011-0.003,0.021-0.005,0.029  c11.32,3.152,22.966,4.748,34.705,4.748C362.664,282.799,363.786,282.781,364.907,282.751z" fill="#FECD0E"/><path d="M302.615,318.82c-0.516,0.438-1.031,0.876-1.559,1.297c-0.033,0.026-0.065,0.057-0.1,0.082  c7.639,11.148,16.521,20.399,26.148,28.073c-6.188-11.324-13.903-21.535-23.153-30.585c-0.055,0.049-0.112,0.093-0.167,0.142  C303.403,318.164,303.007,318.49,302.615,318.82z" fill="#FECD0E"/><path d="M256,234.854c-15.84,0-28.728,12.889-28.728,28.729c0,15.842,12.887,28.729,28.728,28.729  s28.729-12.888,28.729-28.729C284.729,247.741,271.842,234.854,256,234.854z" fill="#FECD0E"/><path d="M257.773,335.849c-0.651,0.016-1.305,0.009-1.958,0.007c-0.505-0.002-1.011,0.005-1.516-0.007  c-0.085-0.002-0.169,0.001-0.254-0.001c-1.274,12.935-0.611,25.771,1.955,38.479c2.566-12.707,3.229-25.545,1.954-38.479  C257.893,335.85,257.834,335.847,257.773,335.849z" fill="#FECD0E"/><g><circle cx="256" cy="263.583" fill="none" r="35.229" stroke="#000000" stroke-linecap="round" stroke-linejoin="round" stroke-miterlimit="10" stroke-width="4"/><path d="   M285.55,204.794c-0.771-0.386-1.522-0.752-2.313-1.101c-8.294-3.78-17.524-5.893-27.235-5.893c-9.709,0-18.939,2.111-27.235,5.893   c-0.789,0.35-1.542,0.715-2.313,1.101C177.024,112.64,256,12.135,256,12.135S334.978,112.64,285.55,204.794z" fill="none" stroke="#000000" stroke-linecap="round" stroke-linejoin="round" stroke-miterlimit="10" stroke-width="4"/><path d="   M240.848,199.554c-0.84,0.199-1.649,0.404-2.479,0.643c-8.785,2.437-17.215,6.754-24.652,12.995   c-7.438,6.24-13.152,13.79-17.076,22.02c-0.382,0.774-0.724,1.541-1.065,2.332C98.476,198.718,94.373,70.962,94.373,70.962   S219.476,97.188,240.848,199.554z" fill="none" stroke="#000000" stroke-linecap="round" stroke-linejoin="round" stroke-miterlimit="10" stroke-width="4"/><path d="   M203.237,224.274c-0.514,0.692-1.006,1.37-1.484,2.085c-5.165,7.516-8.846,16.24-10.531,25.802   c-1.688,9.563-1.213,19.019,1.071,27.846c0.206,0.838,0.438,1.644,0.684,2.468C93.638,315.148,8.374,219.92,8.374,219.92   S121.066,159.595,203.237,224.274z" fill="none" stroke="#000000" stroke-linecap="round" stroke-linejoin="round" stroke-miterlimit="10" stroke-width="4"/><path d="   M190.315,267.385c0.051,0.859,0.109,1.694,0.202,2.553c0.874,9.077,3.662,18.125,8.517,26.533   c4.854,8.409,11.297,15.345,18.72,20.642c0.697,0.51,1.392,0.979,2.11,1.45c-55.096,88.885-181.623,70.743-181.623,70.743   S85.792,270.658,190.315,267.385z" fill="none" stroke="#000000" stroke-linecap="round" stroke-linejoin="round" stroke-miterlimit="10" stroke-width="4"/><path d="   M208.126,308.717c0.595,0.628,1.175,1.229,1.797,1.825c6.502,6.392,14.455,11.53,23.579,14.851   c9.125,3.323,18.521,4.495,27.61,3.781c0.859-0.062,1.691-0.146,2.548-0.242c14.929,103.503-93.659,170.934-93.659,170.934   S130.161,378.407,208.126,308.717z" fill="none" stroke="#000000" stroke-linecap="round" stroke-linejoin="round" stroke-miterlimit="10" stroke-width="4"/><path d="   M248.339,328.927c0.857,0.101,1.69,0.188,2.551,0.246c9.091,0.718,18.484-0.462,27.608-3.781   c9.122-3.319,17.078-8.459,23.579-14.848c0.621-0.604,1.206-1.199,1.797-1.828c77.965,69.693,38.128,191.147,38.128,191.147   S233.412,432.434,248.339,328.927z" fill="none" stroke="#000000" stroke-linecap="round" stroke-linejoin="round" stroke-miterlimit="10" stroke-width="4"/><path d="   M292.134,318.563c0.725-0.472,1.415-0.941,2.111-1.446c7.425-5.297,13.864-12.239,18.725-20.646   c4.853-8.405,7.643-17.456,8.515-26.53c0.093-0.859,0.152-1.694,0.203-2.556c104.523,3.273,152.072,121.921,152.072,121.921   S347.231,407.448,292.134,318.563z" fill="none" stroke="#000000" stroke-linecap="round" stroke-linejoin="round" stroke-miterlimit="10" stroke-width="4"/><path d="   M319.023,282.472c0.247-0.828,0.479-1.631,0.684-2.466c2.284-8.829,2.758-18.286,1.071-27.851   c-1.685-9.558-5.365-18.282-10.528-25.796c-0.482-0.718-0.976-1.396-1.486-2.09c82.173-64.676,194.863-4.352,194.863-4.352   S418.364,315.147,319.023,282.472z" fill="none" stroke="#000000" stroke-linecap="round" stroke-linejoin="round" stroke-miterlimit="10" stroke-width="4"/><path d="   M316.423,237.543c-0.344-0.793-0.686-1.559-1.063-2.329c-3.926-8.232-9.645-15.779-17.079-22.022   c-7.434-6.238-15.861-10.558-24.648-12.992c-0.83-0.24-1.642-0.443-2.483-0.646C292.525,97.188,417.629,70.963,417.629,70.963   S413.524,198.72,316.423,237.543z" fill="none" stroke="#000000" stroke-linecap="round" stroke-linejoin="round" stroke-miterlimit="10" stroke-width="4"/></g><circle cx="50.241" cy="435.498" fill="#FF50CE" r="12"/><circle cx="166.323" cy="70.962" fill="#FF50CE" r="12"/><circle cx="344.387" cy="40.962" fill="#FF50CE" r="12"/><circle cx="473.76" cy="298.812" fill="#FF50CE" r="12"/><circle cx="455.016" cy="468.345" fill="#FF50CE" r="12"/><circle cx="258.585" cy="477.38" fill="#FF50CE" r="12"/><circle cx="50.241" cy="52.962" fill="#FF50CE" r="12"/><g><line fill="none" stroke="#FECD0E" stroke-miterlimit="10" stroke-width="5" x1="114.84" x2="96.771" y1="459.309" y2="477.38"/><line fill="none" stroke="#FECD0E" stroke-miterlimit="10" stroke-width="5" x1="96.771" x2="114.84" y1="459.309" y2="477.38"/></g><g><line fill="none" stroke="#FECD0E" stroke-miterlimit="10" stroke-width="5" x1="65.97" x2="47.901" y1="137.484" y2="155.555"/><line fill="none" stroke="#FECD0E" stroke-miterlimit="10" stroke-width="5" x1="47.901" x2="65.97" y1="137.484" y2="155.555"/></g><g><line fill="none" stroke="#FECD0E" stroke-miterlimit="10" stroke-width="5" x1="42.534" x2="24.465" y1="308.651" y2="326.723"/><line fill="none" stroke="#FECD0E" stroke-miterlimit="10" stroke-width="5" x1="24.465" x2="42.534" y1="308.651" y2="326.723"/></g><g><line fill="none" stroke="#FECD0E" stroke-miterlimit="10" stroke-width="5" x1="473.087" x2="455.015" y1="138.395" y2="156.467"/><line fill="none" stroke="#FECD0E" stroke-miterlimit="10" stroke-width="5" x1="455.015" x2="473.087" y1="138.395" y2="156.467"/></g><g><line fill="none" stroke="#FECD0E" stroke-miterlimit="10" stroke-width="5" x1="391.98" x2="373.912" y1="438.463" y2="456.533"/><line fill="none" stroke="#FECD0E" stroke-miterlimit="10" stroke-width="5" x1="373.912" x2="391.98" y1="438.463" y2="456.533"/></g></svg>