<?xml version="1.0" ?><!DOCTYPE svg  PUBLIC '-//W3C//DTD SVG 1.1//EN'  'http://www.w3.org/Graphics/SVG/1.1/DTD/svg11.dtd'><svg enable-background="new 0 0 512 512" height="512px" id="Calque_1" version="1.1" viewBox="0 0 512 512" width="512px" xml:space="preserve" xmlns="http://www.w3.org/2000/svg" xmlns:xlink="http://www.w3.org/1999/xlink"><g><path d="M333.113,276.452c-0.001,0.007-0.003,0.014-0.003,0.021c-0.012,0.087-0.03,0.175-0.045,0.264   c-0.021,0.128-0.041,0.257-0.069,0.382c-0.004,0.016-0.005,0.031-0.009,0.047c-0.005,0.021-0.015,0.041-0.021,0.063   c-0.085,0.347-0.192,0.683-0.329,1.003c-0.005,0.012-0.012,0.022-0.017,0.034c-0.137,0.317-0.299,0.619-0.482,0.905   c-0.011,0.019-0.021,0.038-0.032,0.056c-0.179,0.273-0.381,0.529-0.597,0.771c-0.03,0.033-0.058,0.068-0.089,0.102   c-0.212,0.229-0.442,0.438-0.685,0.633c-0.041,0.033-0.081,0.067-0.123,0.1c-0.245,0.188-0.503,0.356-0.772,0.508   c-0.045,0.025-0.089,0.05-0.135,0.074c-0.274,0.146-0.56,0.273-0.854,0.38c-0.044,0.016-0.088,0.029-0.132,0.044   c-0.302,0.101-0.61,0.184-0.929,0.24c-0.037,0.006-0.075,0.01-0.113,0.016c-0.324,0.051-0.653,0.083-0.988,0.084   c-0.008,0-0.016,0.002-0.023,0.002c-0.257,0-0.515-0.017-0.774-0.049c-0.002,0-0.005,0-0.007,0   c-7.182-0.862-14.296-2.114-21.163-3.712c-1.827-0.215-3.651-0.399-5.465-0.551c2.928,2,5.79,4.118,8.561,6.346   c7.347,2.722,15.129,4.823,23.168,6.242c0.004,0,0.008,0,0.012,0.001c19.42,3.425,35.661,2.111,47.64-0.351   c0.084-0.019,0.169-0.036,0.254-0.052c5.771-1.199,10.535-2.657,14.171-3.978c-2.402-2.014-5.451-4.359-9.174-6.816   c-13.896-9.177-29.924-15.413-47.641-18.538c-0.003-0.001-0.007,0-0.01-0.001c-8.053-1.42-16.095-2.105-23.934-2.066   c-3.677,1.259-7.429,2.364-11.218,3.302c-0.001,0.704-0.02,1.407-0.053,2.107c1.966,0.545,3.955,1.06,5.963,1.536   c6.961,0.832,14.053,2.085,21.077,3.733c0.012,0.003,0.022,0.005,0.033,0.008c0.014,0.003,0.028,0.006,0.042,0.009   c0.073,0.018,0.143,0.042,0.214,0.062c0.134,0.036,0.269,0.071,0.398,0.115c0.081,0.027,0.158,0.063,0.237,0.093   c0.121,0.047,0.243,0.092,0.361,0.145c0.092,0.042,0.18,0.092,0.269,0.138c0.099,0.05,0.198,0.098,0.294,0.153   c0.102,0.059,0.197,0.125,0.295,0.188c0.077,0.051,0.156,0.099,0.23,0.152c0.104,0.074,0.202,0.155,0.301,0.235   c0.063,0.051,0.129,0.1,0.189,0.153c0.097,0.084,0.186,0.174,0.276,0.264c0.059,0.058,0.119,0.112,0.176,0.172   c0.083,0.089,0.16,0.183,0.238,0.275c0.057,0.067,0.115,0.133,0.169,0.202c0.069,0.089,0.132,0.183,0.195,0.275   c0.056,0.079,0.113,0.157,0.165,0.24c0.056,0.087,0.104,0.178,0.154,0.268c0.053,0.093,0.107,0.184,0.155,0.279   c0.043,0.086,0.08,0.176,0.12,0.264c0.046,0.103,0.094,0.204,0.135,0.31c0.035,0.091,0.063,0.185,0.095,0.277   c0.035,0.104,0.073,0.209,0.103,0.316c0.029,0.104,0.051,0.211,0.075,0.316c0.022,0.099,0.048,0.195,0.065,0.296   c0.021,0.123,0.034,0.249,0.05,0.375c0.01,0.084,0.023,0.168,0.03,0.253c0.012,0.146,0.013,0.293,0.014,0.44   c0.001,0.068,0.006,0.135,0.005,0.203c-0.004,0.156-0.019,0.313-0.033,0.471C333.12,276.338,333.12,276.395,333.113,276.452z" fill="#EA6226"/><path d="M290.553,232.99c0.435,0.519,0.856,1.046,1.267,1.584c1.587-0.734,3.161-1.495,4.714-2.276   c5.872-3.84,12.065-7.416,18.423-10.625c0.047-0.026,0.098-0.044,0.145-0.069c0.104-0.055,0.211-0.103,0.318-0.152   c0.17-0.078,0.344-0.149,0.521-0.212c0.112-0.04,0.224-0.079,0.339-0.112c0.19-0.056,0.386-0.1,0.583-0.139   c0.107-0.021,0.212-0.047,0.321-0.063c0.282-0.041,0.569-0.064,0.862-0.067c0.024,0,0.048-0.006,0.072-0.006   c3.59,0,6.5,2.91,6.5,6.5v0v0c0,0.002-0.001,0.005-0.001,0.008c0,0.301-0.023,0.597-0.063,0.888   c-0.015,0.1-0.039,0.196-0.058,0.294c-0.036,0.191-0.073,0.38-0.125,0.564c-0.031,0.112-0.071,0.22-0.108,0.33   c-0.056,0.164-0.114,0.327-0.183,0.485c-0.048,0.111-0.101,0.218-0.154,0.325c-0.074,0.149-0.153,0.295-0.238,0.437   c-0.063,0.104-0.127,0.207-0.195,0.307c-0.092,0.136-0.19,0.268-0.293,0.396c-0.075,0.094-0.148,0.188-0.229,0.277   c-0.111,0.126-0.231,0.244-0.353,0.361c-0.082,0.08-0.162,0.162-0.249,0.238c-0.14,0.122-0.289,0.231-0.438,0.341   c-0.079,0.058-0.153,0.121-0.235,0.175c-0.011,0.007-0.02,0.016-0.03,0.023c-6.046,3.953-12.295,7.563-18.581,10.743   c-1.405,0.924-2.787,1.863-4.16,2.829c3.646-0.374,7.351-0.605,11.088-0.685c7.403-2.648,14.722-6.041,21.78-10.112   c0.004-0.002,0.008-0.006,0.013-0.008c25.281-14.596,38.646-32.87,44.672-43.223c-11.979,0.042-34.486,2.478-59.764,17.07   c-0.001,0-0.002,0.001-0.003,0.001c-7.07,4.084-13.675,8.727-19.658,13.8C295.029,226.564,292.856,229.832,290.553,232.99z" fill="#EA6226"/><path d="M318.229,312.574c-0.001-0.001-0.002-0.002-0.003-0.003c-5.224-6.229-10.939-11.926-16.992-16.957   c-3.665-1.417-7.261-2.989-10.75-4.699c-0.336,0.398-0.681,0.789-1.031,1.176c1.282,1.885,2.627,3.783,4.034,5.683   c4.809,5.109,9.441,10.637,13.772,16.439c0.007,0.009,0.014,0.018,0.02,0.026c0.01,0.014,0.021,0.026,0.03,0.039   c0.046,0.062,0.084,0.127,0.127,0.189c0.077,0.112,0.156,0.223,0.227,0.338c0.044,0.073,0.081,0.149,0.123,0.225   c0.063,0.113,0.127,0.227,0.182,0.343c0.043,0.09,0.078,0.182,0.116,0.272c0.044,0.104,0.09,0.207,0.128,0.313   s0.068,0.213,0.101,0.319c0.028,0.094,0.06,0.187,0.084,0.28c0.029,0.117,0.051,0.234,0.073,0.352   c0.018,0.088,0.038,0.175,0.052,0.263c0.018,0.119,0.028,0.239,0.04,0.359c0.008,0.088,0.02,0.176,0.024,0.264   c0.007,0.115,0.005,0.229,0.006,0.345c0,0.095,0.003,0.189-0.001,0.284c-0.004,0.105-0.016,0.211-0.025,0.316   c-0.009,0.104-0.016,0.207-0.029,0.31c-0.014,0.097-0.034,0.191-0.051,0.286c-0.021,0.111-0.039,0.222-0.064,0.332   c-0.021,0.089-0.05,0.176-0.074,0.265c-0.032,0.112-0.062,0.226-0.1,0.337c-0.03,0.088-0.067,0.174-0.101,0.26   c-0.042,0.108-0.082,0.217-0.131,0.322c-0.042,0.093-0.091,0.183-0.138,0.273c-0.049,0.096-0.095,0.191-0.148,0.285   c-0.06,0.104-0.127,0.203-0.193,0.304c-0.05,0.076-0.096,0.153-0.148,0.229c-0.082,0.114-0.173,0.224-0.263,0.333   c-0.046,0.057-0.089,0.115-0.137,0.171c-0.1,0.112-0.207,0.219-0.314,0.325c-0.045,0.044-0.084,0.092-0.13,0.135   c-0.004,0.004-0.009,0.006-0.013,0.01c-0.172,0.16-0.354,0.314-0.547,0.459c-0.082,0.061-0.171,0.103-0.255,0.159   c-0.132,0.09-0.265,0.173-0.401,0.251c-0.205,0.118-0.414,0.222-0.627,0.314c-0.136,0.06-0.27,0.121-0.408,0.171   c-0.242,0.087-0.487,0.151-0.735,0.208c-0.116,0.027-0.229,0.063-0.347,0.083c-0.367,0.064-0.737,0.103-1.107,0.103   c-0.001,0-0.002,0-0.002,0c-0.001,0-0.002,0-0.002,0c-0.234,0-0.468-0.015-0.701-0.04c-0.064-0.007-0.127-0.021-0.191-0.029   c-0.169-0.022-0.338-0.05-0.505-0.087c-0.076-0.017-0.151-0.038-0.228-0.058c-0.152-0.039-0.303-0.082-0.453-0.132   c-0.08-0.027-0.159-0.058-0.238-0.088c-0.142-0.054-0.281-0.111-0.419-0.176c-0.082-0.038-0.163-0.077-0.243-0.118   c-0.13-0.067-0.257-0.14-0.383-0.216c-0.082-0.05-0.164-0.099-0.244-0.152c-0.119-0.079-0.233-0.166-0.349-0.254   c-0.079-0.061-0.159-0.119-0.236-0.184c-0.116-0.099-0.227-0.207-0.337-0.314c-0.065-0.063-0.135-0.123-0.198-0.189   c-0.005-0.007-0.012-0.012-0.018-0.018c-4.972-5.303-9.637-10.858-13.879-16.514c-1.566-1.656-3.174-3.281-4.797-4.862   c1.037,3.626,1.931,7.33,2.669,11.082c3.909,6.837,8.524,13.452,13.74,19.664c0.001,0.001,0.002,0.002,0.003,0.003   c10.997,13.104,23.677,23.492,37.688,30.874c4.874,2.573,9.203,4.39,12.68,5.656c-0.556-3.136-1.402-6.965-2.709-11.322   C337.988,341.296,329.738,326.286,318.229,312.574z" fill="#EA6226"/><path d="M216.909,331.983c0-0.001,0.001-0.001,0.001-0.002c5.214-6.209,9.829-12.822,13.742-19.666   c0.737-3.749,1.631-7.455,2.669-11.086c-1.628,1.587-3.247,3.23-4.843,4.927c-4.208,5.615-8.862,11.16-13.855,16.485   c-0.007,0.008-0.015,0.014-0.021,0.021c-0.058,0.062-0.122,0.115-0.182,0.175c-0.115,0.112-0.23,0.225-0.352,0.327   c-0.076,0.063-0.155,0.121-0.232,0.181c-0.116,0.089-0.231,0.177-0.352,0.257c-0.08,0.053-0.161,0.102-0.243,0.15   c-0.126,0.076-0.253,0.149-0.384,0.217c-0.08,0.041-0.161,0.08-0.242,0.117c-0.138,0.064-0.278,0.123-0.419,0.177   c-0.079,0.03-0.158,0.06-0.238,0.087c-0.15,0.051-0.302,0.094-0.455,0.133c-0.075,0.02-0.15,0.041-0.226,0.058   c-0.167,0.036-0.336,0.063-0.505,0.086c-0.064,0.01-0.127,0.022-0.192,0.029c-0.233,0.025-0.467,0.04-0.701,0.04   c0,0-0.001,0-0.001,0s-0.001,0-0.002,0c-0.371,0-0.741-0.038-1.109-0.103c-0.116-0.02-0.229-0.056-0.344-0.082   c-0.249-0.058-0.496-0.122-0.739-0.21c-0.137-0.049-0.27-0.11-0.404-0.169c-0.215-0.094-0.425-0.197-0.632-0.316   c-0.135-0.078-0.267-0.161-0.398-0.249c-0.085-0.058-0.175-0.101-0.258-0.162c-0.193-0.145-0.375-0.299-0.547-0.46   c-0.003-0.003-0.007-0.005-0.01-0.008c-0.04-0.037-0.074-0.079-0.113-0.117c-0.114-0.112-0.228-0.226-0.333-0.345   c-0.045-0.052-0.084-0.106-0.128-0.159c-0.093-0.113-0.187-0.227-0.271-0.345c-0.051-0.072-0.096-0.146-0.144-0.22   c-0.067-0.104-0.137-0.206-0.198-0.312c-0.054-0.094-0.1-0.189-0.148-0.285c-0.046-0.091-0.095-0.18-0.137-0.272   c-0.049-0.108-0.09-0.219-0.133-0.329c-0.033-0.084-0.068-0.167-0.098-0.253c-0.04-0.115-0.071-0.232-0.104-0.349   c-0.023-0.084-0.05-0.167-0.07-0.252c-0.027-0.115-0.047-0.232-0.068-0.349c-0.016-0.09-0.035-0.178-0.047-0.268   c-0.015-0.11-0.022-0.222-0.032-0.332c-0.008-0.098-0.02-0.195-0.023-0.294c-0.004-0.103-0.001-0.206,0-0.31   c0-0.105-0.001-0.212,0.005-0.318c0.005-0.098,0.018-0.194,0.028-0.291c0.011-0.111,0.02-0.223,0.037-0.333   c0.015-0.097,0.037-0.192,0.056-0.289c0.022-0.108,0.041-0.217,0.068-0.325c0.027-0.104,0.061-0.206,0.093-0.31   c0.03-0.097,0.057-0.194,0.091-0.29c0.042-0.118,0.094-0.234,0.144-0.351c0.034-0.077,0.063-0.156,0.1-0.233   c0.062-0.131,0.133-0.257,0.205-0.384c0.035-0.062,0.064-0.124,0.101-0.185c0.078-0.129,0.166-0.253,0.253-0.377   c0.036-0.052,0.066-0.104,0.104-0.155c0.008-0.01,0.016-0.021,0.023-0.03c0.01-0.014,0.021-0.026,0.031-0.04   c4.326-5.789,8.959-11.314,13.772-16.439c1.4-1.888,2.75-3.796,4.047-5.705c-0.35-0.387-0.695-0.776-1.03-1.175   c-3.48,1.706-7.073,3.279-10.746,4.706c-6.055,5.024-11.769,10.715-16.995,16.948c0,0-0.001,0.001-0.001,0.001   c0,0.001-0.001,0.001-0.001,0.002c-14.346,17.09-21.253,33.699-24.521,44.623c-0.033,0.109-0.068,0.218-0.106,0.324   c-1.249,4.219-2.064,7.929-2.604,10.985c3.475-1.267,7.805-3.082,12.687-5.657C193.269,355.432,205.947,345.046,216.909,331.983z" fill="#EA6226"/><path d="M268.977,316.818c-1.889-3.438-3.63-6.95-5.205-10.506c-0.22,0.039-0.439,0.067-0.659,0.103   c-0.25,2.428-0.454,4.914-0.604,7.451c0.387,7.049,0.386,14.258-0.015,21.441c-0.001,0.014-0.001,0.026-0.002,0.039   c-0.001,0.016-0.001,0.031-0.002,0.047c-0.005,0.085-0.019,0.168-0.026,0.252c-0.012,0.123-0.021,0.247-0.039,0.368   c-0.013,0.086-0.034,0.169-0.05,0.254c-0.024,0.123-0.045,0.247-0.076,0.368c-0.027,0.106-0.063,0.209-0.095,0.313   c-0.029,0.094-0.054,0.189-0.087,0.281c-0.064,0.179-0.138,0.353-0.217,0.523c-0.008,0.016-0.013,0.032-0.021,0.048   c-0.178,0.378-0.392,0.734-0.636,1.067c-0.028,0.038-0.061,0.073-0.089,0.11c-0.096,0.124-0.191,0.248-0.295,0.364   c-0.055,0.062-0.115,0.117-0.172,0.177c-0.083,0.087-0.165,0.176-0.254,0.258c-0.073,0.069-0.153,0.133-0.23,0.198   s-0.152,0.134-0.232,0.195c-0.087,0.067-0.178,0.128-0.268,0.19c-0.078,0.054-0.154,0.11-0.234,0.161   c-0.093,0.058-0.188,0.11-0.284,0.164c-0.085,0.048-0.168,0.097-0.254,0.141c-0.094,0.048-0.19,0.089-0.287,0.132   c-0.095,0.042-0.188,0.085-0.285,0.123c-0.093,0.036-0.188,0.067-0.282,0.099c-0.105,0.036-0.211,0.071-0.318,0.102   c-0.092,0.025-0.185,0.047-0.277,0.068c-0.115,0.027-0.23,0.053-0.348,0.073c-0.093,0.017-0.187,0.029-0.28,0.041   c-0.118,0.016-0.237,0.029-0.357,0.039c-0.044,0.003-0.087,0.011-0.131,0.014c-0.116,0.006-0.231,0.009-0.345,0.009   c-0.004,0-0.009,0.001-0.014,0.001c-0.002,0-0.004,0-0.006,0s-0.004,0-0.006,0c-0.005,0-0.009-0.001-0.014-0.001   c-0.115,0-0.229-0.003-0.345-0.009c-0.044-0.003-0.087-0.011-0.131-0.014c-0.121-0.01-0.239-0.023-0.358-0.039   c-0.094-0.012-0.187-0.024-0.279-0.041c-0.118-0.021-0.233-0.046-0.349-0.073c-0.093-0.021-0.186-0.043-0.276-0.068   c-0.108-0.03-0.213-0.065-0.319-0.102c-0.094-0.031-0.189-0.063-0.282-0.099c-0.097-0.038-0.192-0.081-0.287-0.123   c-0.096-0.043-0.192-0.085-0.285-0.132c-0.087-0.044-0.171-0.094-0.257-0.142c-0.095-0.054-0.19-0.105-0.282-0.163   c-0.082-0.052-0.159-0.108-0.238-0.164c-0.088-0.062-0.178-0.121-0.263-0.187c-0.083-0.064-0.162-0.135-0.242-0.203   c-0.074-0.063-0.151-0.124-0.222-0.19c-0.092-0.086-0.179-0.179-0.266-0.271c-0.053-0.056-0.108-0.107-0.159-0.164   c-0.112-0.126-0.217-0.259-0.319-0.394c-0.021-0.027-0.044-0.053-0.065-0.081c-0.245-0.333-0.458-0.69-0.637-1.069   c0-0.001-0.001-0.002-0.001-0.004c-0.087-0.185-0.166-0.374-0.235-0.567c-0.029-0.082-0.051-0.167-0.077-0.25   c-0.036-0.114-0.075-0.228-0.104-0.346c-0.03-0.118-0.051-0.24-0.074-0.361c-0.017-0.086-0.038-0.171-0.051-0.259   c-0.019-0.123-0.028-0.25-0.04-0.376c-0.008-0.081-0.021-0.161-0.026-0.244c-0.001-0.015-0.001-0.029-0.002-0.044   c0-0.015-0.001-0.029-0.002-0.044c-0.4-7.183-0.402-14.391-0.015-21.438c-0.147-2.493-0.354-4.982-0.608-7.452   c-0.218-0.034-0.437-0.063-0.655-0.102c-1.576,3.556-3.316,7.068-5.204,10.505c-1.403,7.72-2.121,15.75-2.121,23.9   c0,0.005,0,0.01,0,0.015c0.003,29.184,9.145,49.89,15.097,60.283c5.953-10.394,15.095-31.101,15.099-60.284   c0-0.005-0.001-0.01-0.001-0.015C271.098,332.563,270.38,324.53,268.977,316.818z" fill="#EA6226"/><path d="M310.207,198.161c19.034-10.989,36.58-15.757,50.166-17.682c31.786-38.656,40.079-75.662,42.237-91.958   c-15.901,5.062-51.712,20.041-84.484,58.989c0.181,13.378-1.701,30.537-8.764,49.941c-0.002,0.005-0.005,0.009-0.007,0.015   c-0.188,0.519-0.389,1.032-0.583,1.548c0.472-0.279,0.938-0.563,1.413-0.838C310.193,198.171,310.199,198.166,310.207,198.161z" fill="#EA6226"/><path d="M173.504,247.918c0.007-0.001,0.015-0.001,0.022-0.003c0.542-0.095,1.084-0.178,1.626-0.268   c-0.483-0.272-0.969-0.538-1.451-0.815c-0.001-0.001-0.002-0.001-0.004-0.002c-17.574-10.146-29.917-21.845-38.369-32.084   c-0.319-0.058-0.636-0.119-0.957-0.176c-0.016-0.003-0.03-0.003-0.046-0.006c-50.476-8.9-87.506,2.666-102.921,9.036   c12.199,11.118,42.563,34.245,91.739,43.367C134.817,259.606,151.512,251.796,173.504,247.918z" fill="#EA6226"/><path d="M380.464,304.14c-0.492-0.284-0.978-0.556-1.465-0.834c-7.081,1.321-15.325,2.238-24.591,2.238   c-7.856,0-16.439-0.658-25.664-2.284c-0.003-0.001-0.006,0-0.009-0.001c-0.547-0.097-1.09-0.205-1.635-0.308   c0.362,0.422,0.729,0.84,1.087,1.267c0.002,0.002,0.003,0.004,0.004,0.006c12.051,14.357,20.86,30.071,26.228,46.738   c44.088,25.233,82.512,27.011,99.084,26.3c-7.761-14.811-28.795-47.575-73.016-73.106   C380.479,304.151,380.471,304.145,380.464,304.14z" fill="#EA6226"/><path d="M377.675,214.56c-0.002,0-0.005,0-0.007,0.001c-0.334,0.06-0.661,0.123-0.993,0.184   c-8.449,10.236-20.788,21.931-38.355,32.076c-0.005,0.003-0.01,0.007-0.016,0.01c-0.482,0.278-0.97,0.544-1.454,0.817   c0.547,0.09,1.094,0.174,1.641,0.27c0.001,0,0.003,0,0.004,0c18.546,3.269,35.455,9.68,50.313,19.055   c49.176-9.107,79.552-32.224,91.771-43.354C465.096,217.26,427.94,205.701,377.675,214.56z" fill="#EA6226"/><path d="M227.904,340.692c0-0.547,0.013-1.093,0.019-1.64c-0.353,0.43-0.699,0.862-1.057,1.288   c-0.001,0.001-0.001,0.002-0.002,0.003c-11.474,13.673-24.709,24.694-39.364,32.803c-0.181,0.488-0.365,0.967-0.545,1.457   c-17.528,48.16-12.568,86.635-8.971,102.92c13.237-10.215,41.851-36.619,59.317-84.604c0.012-0.033,0.028-0.064,0.041-0.097   l0.122-0.34c-5.042-12.687-9.562-30.084-9.562-51.766C227.903,340.708,227.904,340.7,227.904,340.692z" fill="#EA6226"/><path d="M325.045,374.593c-0.001-0.005-0.004-0.009-0.006-0.014c-0.173-0.479-0.353-0.947-0.529-1.423   c-14.626-8.075-27.867-19.103-39.376-32.818c-0.001-0.002-0.003-0.004-0.004-0.006c-0.355-0.423-0.7-0.853-1.05-1.279   c0.006,0.547,0.019,1.092,0.019,1.639c0,0.009,0.001,0.017,0.001,0.025c0,21.672-4.516,39.064-9.556,51.749l0.176,0.491   c0.005,0.014,0.008,0.026,0.012,0.04c17.532,48.113,46.041,74.378,59.258,84.536c3.574-16.334,8.521-54.954-8.943-102.938   C325.046,374.594,325.046,374.594,325.045,374.593z" fill="#EA6226"/><path d="M183.815,304.219C183.815,304.219,183.815,304.218,183.815,304.219c0.001-0.002,0.002-0.002,0.002-0.003   c0,0,0-0.001,0.001-0.001c0.357-0.427,0.724-0.843,1.085-1.265c-0.542,0.102-1.081,0.209-1.624,0.306   c-0.005,0-0.01,0.002-0.015,0.003c-9.221,1.626-17.811,2.284-25.665,2.284c-9.258,0-17.496-0.915-24.574-2.234   c-0.504,0.286-1.005,0.563-1.509,0.854c-0.018,0.011-0.037,0.017-0.055,0.027c-44.35,25.622-65.269,58.264-72.978,73.046   c16.618,0.68,55.181-1.139,99.105-26.275C162.948,334.299,171.757,318.584,183.815,304.219   C183.814,304.219,183.815,304.219,183.815,304.219z" fill="#EA6226"/><path d="M214.857,193.007c2.773,7.624,6.199,14.933,10.177,21.749c2.935,2.565,5.77,5.267,8.475,8.078   c0.133-0.077,0.271-0.148,0.405-0.224c-0.42-1.583-0.859-3.16-1.318-4.718c-0.002-0.008-0.005-0.016-0.007-0.024   c-0.001-0.003-0.002-0.007-0.003-0.011c-0.02-0.059-0.039-0.118-0.056-0.178l-0.001,0c-1.948-6.47-4.321-12.979-7.053-19.349   c-1.415-3.299,0.112-7.121,3.412-8.536c3.298-1.415,7.121,0.111,8.536,3.412c2.872,6.696,5.373,13.542,7.44,20.355   c0.605,1.411,1.233,2.811,1.889,4.216c0.455-0.095,0.911-0.183,1.369-0.264c0.265-3.873,0.699-7.757,1.299-11.617   c-1.331-7.767-3.402-15.564-6.177-23.199c-0.003-0.007-0.007-0.014-0.01-0.021c-9.984-27.431-25.661-43.766-34.81-51.498   c-2.04,11.804-3.549,34.394,6.433,61.823C214.856,193.004,214.857,193.005,214.857,193.007z" fill="#EA6226"/><path d="M195.292,209.418c-15.398-8.891-31.481-14.392-47.802-16.351c-4.665-0.565-8.709-0.746-11.981-0.75   c6.018,10.349,19.385,28.645,44.688,43.254c0.001,0,0.002,0.001,0.003,0.002c7.08,4.087,14.393,7.483,21.749,10.117   c3.758,0.08,7.477,0.311,11.129,0.685c-1.367-0.96-2.743-1.896-4.143-2.817c-6.292-3.182-12.548-6.797-18.6-10.754   c-0.034-0.022-0.061-0.052-0.094-0.075c-0.278-0.189-0.539-0.397-0.781-0.625c-0.027-0.025-0.062-0.045-0.089-0.071   c-0.006-0.005-0.01-0.012-0.016-0.017c-0.003-0.003-0.006-0.005-0.009-0.008c-0.066-0.064-0.125-0.135-0.188-0.202   c-0.079-0.084-0.161-0.165-0.235-0.253c-0.062-0.072-0.116-0.15-0.174-0.225c-0.072-0.093-0.147-0.184-0.214-0.28   c-0.054-0.078-0.1-0.16-0.15-0.24c-0.063-0.101-0.13-0.199-0.188-0.303c-0.046-0.083-0.084-0.171-0.126-0.256   c-0.053-0.106-0.11-0.211-0.158-0.32c-0.042-0.098-0.075-0.2-0.113-0.301c-0.038-0.102-0.081-0.201-0.114-0.306   c-0.038-0.12-0.065-0.244-0.097-0.367c-0.022-0.089-0.051-0.176-0.07-0.267c-0.03-0.146-0.049-0.295-0.069-0.443   c-0.01-0.072-0.026-0.142-0.033-0.214c-0.023-0.223-0.035-0.449-0.035-0.678c0-3.59,2.91-6.5,6.5-6.5   c0.318,0,0.629,0.028,0.935,0.072c0.097,0.014,0.191,0.038,0.287,0.056c0.208,0.04,0.413,0.085,0.613,0.145   c0.105,0.031,0.208,0.066,0.311,0.103c0.188,0.066,0.37,0.14,0.55,0.222c0.097,0.044,0.193,0.087,0.287,0.136   c0.051,0.027,0.105,0.046,0.156,0.074c6.369,3.214,12.57,6.795,18.451,10.64c1.547,0.779,3.12,1.539,4.71,2.275   c0.411-0.538,0.832-1.066,1.267-1.584c-2.304-3.161-4.478-6.43-6.501-9.775C208.965,218.144,202.364,213.503,195.292,209.418   C195.292,209.418,195.292,209.418,195.292,209.418z" fill="#EA6226"/><path d="M201.794,198.161c0,0,0.001,0,0.001,0c0.482,0.278,0.956,0.567,1.434,0.85   c-0.195-0.518-0.396-1.033-0.585-1.554c0-0.002-0.002-0.003-0.002-0.005c-7.062-19.402-8.944-36.559-8.763-49.938   c-32.752-38.928-68.542-53.915-84.458-58.986c2.202,16.352,10.568,53.477,42.231,91.98   C168.82,182.928,185.679,188.856,201.794,198.161z" fill="#EA6226"/><path d="M178.811,275.166c0.005-0.064,0.016-0.127,0.023-0.191c0.016-0.146,0.032-0.292,0.059-0.436   c0.015-0.083,0.036-0.163,0.054-0.245c0.027-0.123,0.053-0.245,0.087-0.366c0.026-0.093,0.059-0.182,0.089-0.272   c0.036-0.107,0.069-0.216,0.109-0.32c0.036-0.093,0.079-0.183,0.12-0.273c0.044-0.101,0.086-0.201,0.136-0.299   c0.043-0.086,0.093-0.169,0.141-0.253c0.055-0.098,0.108-0.197,0.168-0.292c0.049-0.077,0.103-0.15,0.155-0.226   c0.067-0.097,0.133-0.194,0.205-0.288c0.052-0.067,0.109-0.13,0.164-0.194c0.08-0.096,0.159-0.191,0.244-0.282   c0.056-0.06,0.116-0.114,0.174-0.171c0.09-0.09,0.18-0.179,0.276-0.263c0.063-0.056,0.131-0.106,0.197-0.159   c0.096-0.078,0.191-0.157,0.293-0.23c0.077-0.055,0.158-0.104,0.237-0.155c0.095-0.063,0.189-0.127,0.288-0.185   c0.098-0.057,0.201-0.105,0.302-0.158c0.087-0.044,0.171-0.091,0.261-0.132c0.12-0.055,0.246-0.101,0.37-0.148   c0.076-0.029,0.15-0.063,0.228-0.089c0.132-0.045,0.268-0.08,0.404-0.117c0.069-0.019,0.136-0.043,0.207-0.06   c0.015-0.004,0.031-0.007,0.046-0.01c0.012-0.003,0.025-0.006,0.038-0.009c7.04-1.652,14.204-2.918,21.302-3.77   c1.951-0.468,3.881-0.967,5.781-1.492c-0.034-0.703-0.052-1.408-0.053-2.115c-3.782-0.937-7.545-2.044-11.254-3.311   c-7.875-0.037-15.909,0.655-23.893,2.065c-0.003,0.001-0.007,0-0.01,0.001c-28.936,5.104-47.659,17.671-56.795,25.322   c11.259,4.059,33.261,9.484,62.037,4.414c0.003,0,0.006-0.001,0.01-0.002c8.024-1.415,15.814-3.516,23.18-6.234   c2.763-2.227,5.624-4.347,8.556-6.352c-1.789,0.15-3.593,0.33-5.406,0.541c-6.91,1.615-14.065,2.872-21.279,3.731   c-0.004,0-0.007,0-0.011,0.001c-0.256,0.03-0.512,0.047-0.765,0.047c-0.008,0-0.015-0.002-0.023-0.002   c-0.335-0.001-0.665-0.033-0.988-0.084c-0.038-0.006-0.077-0.01-0.114-0.016c-0.317-0.057-0.626-0.14-0.928-0.24   c-0.044-0.015-0.089-0.028-0.133-0.045c-0.294-0.105-0.579-0.232-0.853-0.379c-0.046-0.024-0.092-0.05-0.138-0.075   c-0.268-0.151-0.525-0.319-0.769-0.506c-0.043-0.033-0.085-0.068-0.128-0.104c-0.24-0.193-0.468-0.401-0.679-0.628   c-0.033-0.035-0.063-0.073-0.096-0.11c-0.213-0.239-0.413-0.491-0.59-0.762c-0.014-0.021-0.026-0.045-0.04-0.066   c-0.178-0.279-0.335-0.573-0.469-0.881c-0.008-0.02-0.019-0.037-0.027-0.057c-0.134-0.314-0.239-0.644-0.323-0.983   c-0.006-0.026-0.019-0.05-0.025-0.076c-0.005-0.02-0.006-0.039-0.011-0.059c-0.023-0.105-0.04-0.213-0.059-0.32   c-0.019-0.108-0.041-0.217-0.054-0.325c0-0.005-0.002-0.01-0.002-0.015c-0.004-0.038-0.004-0.075-0.008-0.112   c-0.018-0.179-0.033-0.357-0.037-0.535c-0.001-0.046,0.003-0.092,0.003-0.138C178.795,275.502,178.798,275.333,178.811,275.166z" fill="#EA6226"/><path d="M255.451,178.234c0.189,0.521,0.366,1.045,0.55,1.567c0.184-0.522,0.361-1.047,0.55-1.568   c0.005-0.013,0.011-0.025,0.016-0.038c7.284-19.996,17.248-34.629,26.198-44.8c-0.359-50.18-17.906-84.22-26.764-98.216   c-8.857,13.993-26.406,48.028-26.766,98.212c8.948,10.169,18.911,24.799,26.194,44.791   C255.436,178.2,255.445,178.216,255.451,178.234z" fill="#EA6226"/><path d="M249.281,133.389c5.49,6.24,11.371,14.17,16.771,23.98c-3.41,6.18-6.621,13.1-9.432,20.82   c-0.01,0.02-0.01,0.029-0.02,0.04c-0.19,0.52-0.37,1.05-0.549,1.569c-0.181-0.52-0.36-1.05-0.551-1.569   c-0.01-0.011-0.01-0.03-0.02-0.051c-7.29-19.989-17.25-34.62-26.2-44.79c0.36-50.18,17.91-84.22,26.771-98.21   c2.75,4.351,6.35,10.641,10,18.74C257.941,71.889,249.531,98.809,249.281,133.389z" opacity="0.2"/><path d="M168.245,167.774c8.217,1.251,17.819,3.546,28.262,7.59c1.36,6.926,3.348,14.291,6.158,22.012   c0.005,0.021,0.011,0.029,0.011,0.043c0.188,0.52,0.392,1.042,0.588,1.555c-0.472-0.282-0.951-0.573-1.431-0.848   c-0.015-0.002-0.027-0.017-0.048-0.026c-18.433-10.626-35.467-15.433-48.861-17.47c-31.979-38.672-40.416-76.029-42.621-92.441   c4.903,1.564,11.704,4.069,19.707,7.927C135.347,115.096,146.209,141.124,168.245,167.774z" opacity="0.2"/><path d="M128.27,246.204c7.099-4.323,15.929-8.738,26.528-12.353c5.494,4.432,11.751,8.795,18.866,12.904   c0.018,0.013,0.027,0.015,0.036,0.026c0.479,0.277,0.97,0.546,1.45,0.813c-0.543,0.087-1.097,0.172-1.641,0.27   c-0.013,0.008-0.032,0.004-0.054,0.01c-20.951,3.708-37.089,10.976-48.659,18.025c-49.355-9.069-79.831-32.263-92.069-43.418   c4.762-1.954,11.582-4.406,20.192-6.595C69.208,226.996,94.259,239.953,128.27,246.204z" opacity="0.2"/><path d="M148.061,331.981c2.659-7.875,6.586-16.933,12.382-26.515c7.057-0.137,14.656-0.815,22.747-2.242   c0.022-0.001,0.03-0.006,0.044-0.003c0.545-0.096,1.094-0.205,1.634-0.31c-0.36,0.416-0.729,0.838-1.083,1.263   c-0.005,0.014-0.022,0.022-0.035,0.042c-13.666,16.308-21.357,32.249-25.688,45.085c-43.638,24.777-81.892,26.599-98.438,25.921   c2.392-4.558,6.04-10.819,11.229-18.031C90.47,355.231,117.989,349.054,148.061,331.981z" opacity="0.2"/><path d="M218.358,384.968c-3.025-7.742-5.839-17.205-7.558-28.271c5.318-4.641,10.703-10.045,15.984-16.339   c0.016-0.016,0.02-0.024,0.032-0.031c0.356-0.424,0.706-0.86,1.053-1.287c-0.008,0.55-0.02,1.11-0.019,1.664   c0.005,0.013-0.002,0.031,0,0.054c0.014,21.276,4.369,38.433,9.302,51.05c-17.502,47.03-45.636,73.015-58.746,83.131   c-1.098-5.028-2.328-12.17-2.989-21.03C189.185,439.797,206.296,417.376,218.358,384.968z" opacity="0.2"/><path d="M306.268,380.372c-7.294-3.986-15.532-9.427-23.962-16.798c1.091-6.974,1.741-14.574,1.741-22.791   c0.003-0.022,0-0.031,0.005-0.045c0.001-0.554-0.012-1.112-0.021-1.662c0.347,0.427,0.698,0.863,1.056,1.286   c0.012,0.007,0.018,0.026,0.034,0.041c13.688,16.29,28.051,26.633,39.94,33.128c16.822,47.277,11.974,85.267,8.433,101.443   c-4.072-3.146-9.605-7.827-15.808-14.189C319.164,441.125,317.86,412.951,306.268,380.372z" opacity="0.2"/><path d="M370.657,320.344c-8.149,1.635-17.957,2.763-29.153,2.534c-3.646-6.043-8.034-12.283-13.315-18.578   c-0.013-0.019-0.021-0.023-0.025-0.037c-0.355-0.425-0.724-0.845-1.084-1.26c0.54,0.104,1.09,0.212,1.636,0.307   c0.013-0.003,0.03,0.009,0.052,0.009c20.957,3.681,38.607,2.371,51.891-0.296c43.276,25.404,63.98,57.622,71.666,72.29   c-5.142,0.207-12.389,0.179-21.229-0.709C419.587,358.594,400.478,337.85,370.657,320.344z" opacity="0.2"/><path d="M381.396,232.971c-5.191,6.491-11.979,13.659-20.704,20.681c-6.677-2.285-14.05-4.245-22.142-5.673   c-0.021-0.006-0.03-0.004-0.043-0.012c-0.546-0.097-1.098-0.182-1.641-0.269c0.48-0.268,0.972-0.538,1.45-0.816   c0.008-0.01,0.029-0.013,0.046-0.026c18.42-10.651,31.099-23,39.56-33.582c49.481-8.357,86.051,3.015,101.367,9.312   c-3.806,3.463-9.376,8.1-16.719,13.103C443.466,230.821,415.493,227.213,381.396,232.971z" opacity="0.2"/><path d="M333.461,159.137c0.195,8.309-0.396,18.164-2.566,29.151c-6.584,2.541-13.491,5.779-20.608,9.887   c-0.02,0.009-0.025,0.016-0.04,0.019c-0.48,0.276-0.958,0.566-1.43,0.849c0.196-0.514,0.398-1.037,0.586-1.558   c0-0.013,0.015-0.028,0.019-0.049c7.264-20,9.039-37.609,8.719-51.153c32.533-38.208,67.856-53.003,83.637-58.025   c-0.688,5.1-1.976,12.232-4.385,20.784C379.627,117.593,355.88,132.809,333.461,159.137z" opacity="0.2"/><path d="M268.76,182.7c-2.773,7.628-4.845,15.427-6.177,23.196c0.601,3.86,1.035,7.745,1.3,11.617   c0.457,0.081,0.913,0.169,1.367,0.264c0.657-1.408,1.286-2.812,1.894-4.227c2.067-6.813,4.567-13.655,7.437-20.345   c1.416-3.299,5.24-4.826,8.536-3.41c3.3,1.415,4.826,5.237,3.411,8.536c-2.731,6.366-5.104,12.875-7.054,19.348l-0.001,0   c-0.021,0.074-0.045,0.147-0.069,0.22c-0.459,1.56-0.896,3.134-1.315,4.711c0.135,0.076,0.271,0.146,0.405,0.223   c2.702-2.808,5.535-5.508,8.472-8.076c3.982-6.822,7.408-14.131,10.179-21.75c0,0,0.001-0.001,0.001-0.002v0   c9.984-27.431,8.476-50.021,6.437-61.825c-9.15,7.732-24.827,24.068-34.812,51.5C268.767,182.686,268.763,182.693,268.76,182.7z" fill="#EA6226"/><path d="M305.069,147.559c-8.439,8.79-18.77,22.46-26.27,41.959c-1.82,0.511-3.4,1.82-4.21,3.69   c-2.87,6.69-5.37,13.53-7.44,20.34c-0.6,1.42-1.229,2.82-1.89,4.23c-0.45-0.09-0.91-0.181-1.37-0.261   c-0.26-3.869-0.7-7.76-1.3-11.619c1.34-7.771,3.41-15.57,6.18-23.2c0,0,0.01-0.01,0.01-0.02c9.98-27.43,25.66-43.76,34.811-51.5   C304.319,135.369,304.979,140.919,305.069,147.559z" opacity="0.2"/><path d="M220.089,142.769c-0.815,12.158,0.059,29.27,6.847,49.029c-1.066,1.561-1.435,3.58-0.853,5.533   c2.102,6.97,4.583,13.816,7.375,20.364c0.453,1.473,0.871,2.951,1.271,4.455c-0.402,0.221-0.813,0.447-1.217,0.681   c-2.686-2.797-5.524-5.494-8.464-8.065c-3.968-6.813-7.396-14.12-10.179-21.745c0,0,0.001-0.014-0.005-0.021   c-9.986-27.428-8.472-50.016-6.437-61.827C211.679,133.913,215.752,137.74,220.089,142.769z" opacity="0.2"/><path d="M151.912,193.724c7.191,9.838,18.859,22.385,36.76,33.157c0.187,1.881,1.203,3.665,2.904,4.787   c6.09,3.988,12.392,7.638,18.739,10.859c1.294,0.837,2.563,1.701,3.837,2.595c-0.166,0.428-0.336,0.865-0.495,1.304   c-3.855-0.416-7.763-0.658-11.668-0.737c-7.419-2.669-14.741-6.063-21.774-10.115c0,0-0.008-0.012-0.018-0.013   c-25.281-14.592-38.64-32.869-44.673-43.225C139.777,192.346,145.357,192.66,151.912,193.724z" opacity="0.2"/><path d="M132.438,276.582c11.833,2.913,28.836,5.024,49.473,1.771c1.353,1.32,3.277,2.034,5.301,1.8   c7.229-0.859,14.402-2.113,21.335-3.726c1.529-0.191,3.057-0.346,4.608-0.479c0.148,0.434,0.299,0.878,0.459,1.316   c-3.221,2.16-6.37,4.486-9.413,6.936c-7.399,2.725-15.189,4.831-23.182,6.248c0,0-0.014-0.004-0.022,0.001   c-28.746,5.072-50.728-0.342-62.006-4.396C122.257,283.326,126.733,279.98,132.438,276.582z" opacity="0.2"/><path d="M170.781,352.573c10.937-5.375,25.319-14.687,39.037-30.445c1.885,0.143,3.817-0.548,5.218-2.028   c4.985-5.305,9.674-10.877,13.949-16.568c1.048-1.129,2.12-2.229,3.222-3.328c0.392,0.237,0.793,0.48,1.198,0.713   c-1.079,3.726-1.996,7.531-2.752,11.363c-3.917,6.844-8.53,13.465-13.742,19.688c0,0-0.014,0.006-0.017,0.015   c-18.76,22.363-39.079,32.346-50.325,36.489C167.317,364.282,168.594,358.842,170.781,352.573z" opacity="0.2"/><path d="M248.999,386.138c4.923-11.147,9.955-27.525,10.334-48.415c1.535-1.103,2.572-2.873,2.693-4.907   c0.408-7.269,0.419-14.551,0.035-21.658c0.077-1.539,0.19-3.07,0.329-4.621c0.453-0.07,0.917-0.142,1.376-0.224   c1.568,3.547,3.313,7.052,5.195,10.474c1.398,7.761,2.121,15.798,2.129,23.914c0,0-0.007,0.014-0.004,0.022   c0.004,29.19-9.145,49.897-15.096,60.301C253.872,397.335,251.354,392.346,248.999,386.138z" opacity="0.2"/><path d="M330.492,361.573c-3.394-11.703-10.066-27.484-23.204-43.73c0.468-1.831,0.124-3.854-1.091-5.49   c-4.359-5.83-9.032-11.416-13.895-16.613c-0.931-1.229-1.828-2.475-2.719-3.752c0.302-0.345,0.611-0.698,0.91-1.056   c3.481,1.709,7.07,3.272,10.713,4.684c6.06,5.046,11.779,10.738,17.002,16.951c0,0,0.004,0.015,0.012,0.02   c18.767,22.358,25.068,44.102,27.196,55.896C341.423,367.018,336.287,364.815,330.492,361.573z" opacity="0.2"/><path d="M377.13,290.372c-10.122-6.784-25.378-14.584-45.885-18.585c-0.819-1.703-2.383-3.032-4.365-3.504   c-7.087-1.664-14.257-2.939-21.322-3.796c-1.503-0.344-2.991-0.721-4.494-1.126c0.009-0.458,0.02-0.928,0.019-1.395   c3.766-0.928,7.52-2.037,11.217-3.298c7.886-0.029,15.926,0.654,23.92,2.057c0,0,0.013,0.009,0.021,0.008   c28.748,5.064,47.552,17.67,56.764,25.338C389.003,287.517,383.653,289.131,377.13,290.372z" opacity="0.2"/><path d="M367.09,205.851c-12.115,1.309-28.815,5.141-47.097,15.257c-1.722-0.778-3.774-0.792-5.596,0.122   c-6.499,3.281-12.811,6.913-18.773,10.798c-1.373,0.703-2.755,1.371-4.167,2.026c-0.287-0.356-0.581-0.723-0.882-1.08   c2.288-3.131,4.45-6.394,6.473-9.736c6.021-5.091,12.62-9.736,19.646-13.8c0,0,0.016-0.001,0.021-0.008   c25.277-14.599,47.785-17.03,59.771-17.077C374.349,196.032,371.289,200.707,367.09,205.851z" opacity="0.2"/><path d="M284.65,247.451c-0.259-0.518-0.518-0.994-0.793-1.469c-1.665-2.902-3.744-5.495-6.192-7.734   c-0.693-0.641-1.393-1.229-2.107-1.775c-2.323-1.784-4.843-3.233-7.505-4.317c-0.037-0.015-0.07-0.036-0.107-0.051   c-0.158-0.068-0.313-0.143-0.464-0.222c-0.042-0.022-0.088-0.04-0.13-0.063c-0.012-0.002-0.023-0.007-0.035-0.01   c-0.186-0.042-0.37-0.098-0.554-0.157c-0.056-0.018-0.111-0.028-0.167-0.047c-2.973-1.037-6.064-1.627-9.19-1.753   c-0.035-0.001-0.07-0.003-0.105-0.005c-0.862-0.049-1.737-0.049-2.595,0c-0.035,0.002-0.07,0.003-0.105,0.005   c-3.126,0.126-6.218,0.716-9.188,1.753c-0.076,0.026-0.152,0.041-0.228,0.064c-0.163,0.051-0.326,0.102-0.491,0.139   c-0.013,0.003-0.027,0.009-0.041,0.012c-0.041,0.023-0.087,0.04-0.129,0.062c-0.152,0.08-0.308,0.155-0.468,0.224   c-0.036,0.015-0.068,0.035-0.104,0.05c-2.664,1.084-5.183,2.533-7.49,4.305c-0.729,0.557-1.43,1.147-2.097,1.764   c-2.476,2.265-4.554,4.858-6.203,7.73c-0.02,0.035-0.045,0.064-0.065,0.098c-0.06,0.101-0.127,0.193-0.192,0.289   c-0.073,0.108-0.139,0.224-0.217,0.326c-0.09,0.258-0.202,0.51-0.327,0.758c-0.004,0.009-0.007,0.018-0.011,0.026   c-1.212,2.388-2.114,4.913-2.681,7.506c-0.211,0.943-0.367,1.834-0.469,2.681c-0.193,1.458-0.286,2.868-0.286,4.264   c0,1.94,0.171,3.861,0.508,5.711c0.108,0.598,0.231,1.171,0.373,1.757c0.007,0.029,0.013,0.06,0.02,0.09   c0.608,2.533,1.523,4.966,2.723,7.252c0.446,0.863,0.89,1.632,1.376,2.388c1.713,2.696,3.8,5.099,6.221,7.173   c0.484,0.411,1.003,0.828,1.53,1.233c0.016,0.011,0.03,0.023,0.045,0.035c0.022,0.017,0.043,0.034,0.065,0.051   c2.139,1.602,4.495,2.948,6.958,3.968c0.778,0.326,1.635,0.638,2.649,0.967c2.749,0.86,5.646,1.353,8.553,1.443   c0.682,0.02,1.423,0.02,2.155,0c2.882-0.091,5.779-0.583,8.588-1.463c0.948-0.307,1.807-0.62,2.565-0.938   c2.488-1.029,4.845-2.376,7.027-4.012c0.524-0.4,1.079-0.848,1.618-1.305c2.397-2.053,4.483-4.456,6.178-7.122   c0.515-0.8,0.957-1.566,1.372-2.374c1.227-2.336,2.142-4.773,2.746-7.289c0.006-0.024,0.012-0.049,0.019-0.073   c0-0.001,0-0.003,0.001-0.004c0.002-0.009,0.004-0.017,0.006-0.025c0.119-0.464,0.229-0.985,0.365-1.746   c0.341-1.867,0.512-3.785,0.512-5.718c0-1.404-0.093-2.818-0.275-4.202c-0.127-0.961-0.286-1.875-0.474-2.717   C286.765,252.368,285.863,249.842,284.65,247.451z" fill="#FECD0E"/><g><path d="    M243.267,225.47c3.485-1.217,7.209-1.955,11.069-2.111c0.552-0.031,1.103-0.041,1.665-0.041c0.562,0,1.113,0.01,1.665,0.041    c3.859,0.156,7.584,0.895,11.07,2.111 M241.498,226.136c-3.246,1.322-6.264,3.07-8.999,5.171    c-0.885,0.677-1.737,1.395-2.549,2.145c-2.933,2.683-5.44,5.804-7.429,9.269 M270.504,226.136c3.245,1.322,6.262,3.07,8.997,5.171    c0.886,0.677,1.738,1.395,2.549,2.145c2.935,2.683,5.44,5.804,7.429,9.269c0.344,0.592,0.666,1.187,0.968,1.79    c1.436,2.829,2.537,5.867,3.235,9.062c0.238,1.07,0.426,2.164,0.572,3.276c0.219,1.654,0.332,3.34,0.332,5.055    c0,2.342-0.208,4.641-0.614,6.867c-0.135,0.75-0.28,1.488-0.468,2.217c-0.739,3.08-1.852,6.012-3.287,8.748    c-0.509,0.988-1.062,1.945-1.665,2.883c-2.049,3.225-4.566,6.117-7.459,8.594c-0.625,0.529-1.269,1.049-1.925,1.549    c-2.58,1.934-5.399,3.559-8.416,4.807c-1.02,0.428-2.07,0.801-3.133,1.145c-3.287,1.029-6.751,1.645-10.352,1.758    c-0.426,0.012-0.842,0.021-1.269,0.021s-0.843-0.01-1.27-0.021c-3.6-0.113-7.063-0.729-10.351-1.758    c-1.062-0.344-2.112-0.717-3.132-1.145c-3.017-1.248-5.836-2.873-8.417-4.807c-0.655-0.5-1.3-1.02-1.925-1.549    c-2.892-2.477-5.41-5.369-7.459-8.594c-0.603-0.938-1.154-1.895-1.665-2.883c-1.436-2.736-2.548-5.668-3.287-8.748    c-0.178-0.729-0.333-1.457-0.468-2.205c-0.406-2.229-0.614-4.527-0.614-6.877c0-1.705,0.114-3.391,0.333-5.045    c0.135-1.114,0.332-2.217,0.572-3.288c0.698-3.194,1.799-6.232,3.236-9.062" fill="none" stroke="#010101" stroke-linecap="round" stroke-linejoin="round" stroke-miterlimit="10" stroke-width="4"/><g><g><path d="      M256,23.843c0,0-33.288,39.86-33.288,111.101" fill="none" stroke="#010101" stroke-linecap="round" stroke-linejoin="round" stroke-miterlimit="10" stroke-width="4"/><path d="      M256,23.843c0,0,33.287,39.86,33.287,111.101" fill="none" stroke="#010101" stroke-linecap="round" stroke-linejoin="round" stroke-miterlimit="10" stroke-width="4"/></g><g><path d="      M289.291,134.941c0,0.323,0,0.635-0.011,0.947" fill="none" stroke="#010101" stroke-linecap="round" stroke-linejoin="round" stroke-miterlimit="10" stroke-width="4"/><path d="      M273.249,215.806c0,0.021-0.011,0.031-0.021,0.053c-1.498,3.506-3.017,6.699-4.494,9.611" fill="none" stroke="#010101" stroke-linecap="round" stroke-linejoin="round" stroke-miterlimit="10" stroke-width="4"/><path d="      M222.72,135.888c-0.011-0.313-0.011-0.625-0.011-0.947" fill="none" stroke="#010101" stroke-linecap="round" stroke-linejoin="round" stroke-miterlimit="10" stroke-width="4"/><path d="      M243.267,225.47c-1.478-2.912-2.997-6.105-4.495-9.611c-0.01-0.021-0.021-0.032-0.021-0.053" fill="none" stroke="#010101" stroke-linecap="round" stroke-linejoin="round" stroke-miterlimit="10" stroke-width="4"/></g></g><g><g><path d="      M241.248,297.567c-1.706,5.064-3.256,10.775-4.443,17.092c-1.477,7.781-2.403,16.479-2.403,26.061" fill="none" stroke="#010101" stroke-linecap="round" stroke-linejoin="round" stroke-miterlimit="10" stroke-width="4"/><path d="      M277.597,340.717c0-9.58-0.926-18.277-2.403-26.059c-1.187-6.316-2.736-12.027-4.442-17.094" fill="none" stroke="#010101" stroke-linecap="round" stroke-linejoin="round" stroke-miterlimit="10" stroke-width="4"/></g><g><path d="      M255.999,412.803c0,0,21.6-25.863,21.6-72.086" fill="none" stroke="#010101" stroke-linecap="round" stroke-linejoin="round" stroke-miterlimit="10" stroke-width="4"/><path d="      M255.999,412.803c0,0-21.597-25.863-21.597-72.086" fill="none" stroke="#010101" stroke-linecap="round" stroke-linejoin="round" stroke-miterlimit="10" stroke-width="4"/></g></g><g><g><path d="      M290.112,336.16c-6.158-7.334-11.037-14.596-14.918-21.502c-3.143-5.609-5.618-10.977-7.574-15.949" fill="none" stroke="#010101" stroke-linecap="round" stroke-linejoin="round" stroke-miterlimit="10" stroke-width="4"/><path d="      M290.217,279.733c4.557,2.791,9.416,6.16,14.388,10.227c6.129,5.016,12.442,11.09,18.602,18.436" fill="none" stroke="#010101" stroke-linecap="round" stroke-linejoin="round" stroke-miterlimit="10" stroke-width="4"/></g><g><path d="      M323.206,308.395c14.513,17.289,21.951,34.186,25.77,46.93c4.006,13.357,4.026,22.18,4.026,22.18" fill="none" stroke="#010101" stroke-linecap="round" stroke-linejoin="round" stroke-miterlimit="10" stroke-width="4"/><path d="      M290.112,336.16c13.671,16.293,28.067,26.352,39.638,32.447c13.577,7.17,23.252,8.896,23.252,8.896" fill="none" stroke="#010101" stroke-linecap="round" stroke-linejoin="round" stroke-miterlimit="10" stroke-width="4"/></g></g><g><g><path d="      M288.552,282.617c4.691,2.559,10.04,5.076,16.053,7.344c7.406,2.809,15.824,5.232,25.259,6.896" fill="none" stroke="#010101" stroke-linecap="round" stroke-linejoin="round" stroke-miterlimit="10" stroke-width="4"/><path d="      M337.364,254.32c-9.446-1.665-18.184-2.268-26.112-2.164c-6.418,0.082-12.297,0.614-17.571,1.414" fill="none" stroke="#010101" stroke-linecap="round" stroke-linejoin="round" stroke-miterlimit="10" stroke-width="4"/></g><g><path d="      M337.364,254.32c22.367,3.942,38.981,12.17,50.103,19.516c11.526,7.605,17.144,14.275,17.144,14.275" fill="none" stroke="#010101" stroke-linecap="round" stroke-linejoin="round" stroke-miterlimit="10" stroke-width="4"/><path d="      M404.607,288.108c0,0-29.219,16.777-74.74,8.75" fill="none" stroke="#010101" stroke-linecap="round" stroke-linejoin="round" stroke-miterlimit="10" stroke-width="4"/></g></g><g><g><path d="      M335.054,241.201c-8.313,4.795-16.323,8.344-23.803,10.953c-6.055,2.134-11.756,3.631-16.999,4.694" fill="none" stroke="#010101" stroke-linecap="round" stroke-linejoin="round" stroke-miterlimit="10" stroke-width="4"/><path d="      M313.459,203.791c-8.303,4.795-15.387,9.955-21.391,15.126c-4.868,4.183-9.03,8.386-12.567,12.39" fill="none" stroke="#010101" stroke-linecap="round" stroke-linejoin="round" stroke-miterlimit="10" stroke-width="4"/></g><g><path d="      M386.683,186.454c0,0-33.197-5.773-73.228,17.337" fill="none" stroke="#010101" stroke-linecap="round" stroke-linejoin="round" stroke-miterlimit="10" stroke-width="4"/><path d="      M386.683,186.454c0,0-11.598,31.634-51.629,54.745" fill="none" stroke="#010101" stroke-linecap="round" stroke-linejoin="round" stroke-miterlimit="10" stroke-width="4"/></g></g><g><g><path d="      M303.252,195.228c-3.276,9.01-7.137,16.875-11.184,23.689c-3.276,5.524-6.689,10.351-10.019,14.534" fill="none" stroke="#010101" stroke-linecap="round" stroke-linejoin="round" stroke-miterlimit="10" stroke-width="4"/><path d="      M262.659,180.456c-3.277,9.01-5.378,17.519-6.658,25.343c-1.04,6.336-1.53,12.213-1.665,17.561" fill="none" stroke="#010101" stroke-linecap="round" stroke-linejoin="round" stroke-miterlimit="10" stroke-width="4"/></g><g><path d="      M307.612,120.105c0,0-29.142,16.915-44.951,60.351" fill="none" stroke="#010101" stroke-linecap="round" stroke-linejoin="round" stroke-miterlimit="10" stroke-width="4"/><path d="      M307.612,120.105c0,0,11.449,31.688-4.359,75.123" fill="none" stroke="#010101" stroke-linecap="round" stroke-linejoin="round" stroke-miterlimit="10" stroke-width="4"/></g></g><g><g><path d="      M257.665,223.359c-0.135-5.348-0.625-11.225-1.665-17.561c-1.279-7.824-3.381-16.333-6.658-25.343" fill="none" stroke="#010101" stroke-linecap="round" stroke-linejoin="round" stroke-miterlimit="10" stroke-width="4"/><path d="      M208.748,195.228c3.277,9.01,7.136,16.875,11.184,23.689c3.276,5.524,6.69,10.351,10.019,14.534" fill="none" stroke="#010101" stroke-linecap="round" stroke-linejoin="round" stroke-miterlimit="10" stroke-width="4"/></g><g><path d="      M204.391,120.105c0,0-11.452,31.689,4.357,75.125" fill="none" stroke="#010101" stroke-linecap="round" stroke-linejoin="round" stroke-miterlimit="10" stroke-width="4"/><path d="      M204.391,120.105c0,0,29.139,16.914,44.948,60.349" fill="none" stroke="#010101" stroke-linecap="round" stroke-linejoin="round" stroke-miterlimit="10" stroke-width="4"/></g></g><g><g><path d="      M198.543,203.791c8.301,4.795,15.387,9.955,21.39,15.126c4.87,4.183,9.031,8.386,12.567,12.39" fill="none" stroke="#010101" stroke-linecap="round" stroke-linejoin="round" stroke-miterlimit="10" stroke-width="4"/><path d="      M176.946,241.201c8.291,4.785,16.291,8.344,23.761,10.953c6.075,2.134,11.797,3.642,17.041,4.704" fill="none" stroke="#010101" stroke-linecap="round" stroke-linejoin="round" stroke-miterlimit="10" stroke-width="4"/></g><g><path d="      M125.318,186.452c0,0,11.598,31.637,51.628,54.749" fill="none" stroke="#010101" stroke-linecap="round" stroke-linejoin="round" stroke-miterlimit="10" stroke-width="4"/><path d="      M198.543,203.791c-19.351-11.174-37.098-15.596-50.279-17.178c-14.086-1.705-22.95-0.165-22.95-0.165" fill="none" stroke="#010101" stroke-linecap="round" stroke-linejoin="round" stroke-miterlimit="10" stroke-width="4"/></g></g><g><g><path d="      M218.319,253.57c-5.284-0.801-11.184-1.332-17.612-1.414c-7.916-0.094-16.646,0.499-26.071,2.164" fill="none" stroke="#010101" stroke-linecap="round" stroke-linejoin="round" stroke-miterlimit="10" stroke-width="4"/><path d="      M182.136,296.858c9.435-1.664,17.852-4.088,25.258-6.887c6.013-2.277,11.361-4.795,16.053-7.354" fill="none" stroke="#010101" stroke-linecap="round" stroke-linejoin="round" stroke-miterlimit="10" stroke-width="4"/></g><g><path d="      M107.393,288.104c0,0,29.221,16.781,74.742,8.754" fill="none" stroke="#010101" stroke-linecap="round" stroke-linejoin="round" stroke-miterlimit="10" stroke-width="4"/><path d="      M107.393,288.104c0,0,21.718-25.758,67.239-33.784" fill="none" stroke="#010101" stroke-linecap="round" stroke-linejoin="round" stroke-miterlimit="10" stroke-width="4"/></g></g><g><g><path d="      M188.795,308.395c6.159-7.346,12.474-13.42,18.601-18.424c4.973-4.078,9.832-7.447,14.388-10.238" fill="none" stroke="#010101" stroke-linecap="round" stroke-linejoin="round" stroke-miterlimit="10" stroke-width="4"/><path d="      M221.887,336.16c6.159-7.334,11.037-14.596,14.918-21.502c3.143-5.609,5.618-10.977,7.574-15.949" fill="none" stroke="#010101" stroke-linecap="round" stroke-linejoin="round" stroke-miterlimit="10" stroke-width="4"/></g><g><path d="      M221.887,336.16c-13.671,16.293-28.068,26.332-39.626,32.438c-13.587,7.168-23.261,8.896-23.261,8.896" fill="none" stroke="#010101" stroke-linecap="round" stroke-linejoin="round" stroke-miterlimit="10" stroke-width="4"/><path d="      M188.795,308.395c-14.523,17.301-21.96,34.207-25.77,46.939h-0.01c-3.996,13.348-4.015,22.16-4.015,22.16" fill="none" stroke="#010101" stroke-linecap="round" stroke-linejoin="round" stroke-miterlimit="10" stroke-width="4"/></g></g><g><g><path d="      M102.133,79.845c0,0,0.121,51.932,45.914,106.506" fill="none" stroke="#010101" stroke-linecap="round" stroke-linejoin="round" stroke-miterlimit="10" stroke-width="4"/><path d="      M102.133,79.845c0,0,51.12,9.139,96.912,63.713" fill="none" stroke="#010101" stroke-linecap="round" stroke-linejoin="round" stroke-miterlimit="10" stroke-width="4"/></g><g><path d="      M200.457,145.26c-0.467-0.572-0.936-1.134-1.414-1.706" fill="none" stroke="#010101" stroke-linecap="round" stroke-linejoin="round" stroke-miterlimit="10" stroke-width="4"/><path d="      M241.498,226.136c-0.75-3.184-1.644-6.616-2.726-10.277c-0.01-0.021-0.021-0.032-0.021-0.053      c-1.842-6.117-4.225-12.858-7.304-20.037" fill="none" stroke="#010101" stroke-linecap="round" stroke-linejoin="round" stroke-miterlimit="10" stroke-width="4"/><path d="      M193.882,227.354c0,0,0.01,0,0.01,0.01c6.492,4.245,12.672,7.73,18.342,10.581c0.01,0.01,0.021,0.01,0.031,0.021      c3.641,1.841,7.085,3.412,10.257,4.754" fill="none" stroke="#010101" stroke-linecap="round" stroke-linejoin="round" stroke-miterlimit="10" stroke-width="4"/><path d="      M148.263,186.613c-0.072-0.083-0.146-0.176-0.218-0.26" fill="none" stroke="#010101" stroke-linecap="round" stroke-linejoin="round" stroke-miterlimit="10" stroke-width="4"/></g></g><g><g><path d="      M20.26,221.65c0,0,33.474,39.704,103.632,52.077" fill="none" stroke="#010101" stroke-linecap="round" stroke-linejoin="round" stroke-miterlimit="10" stroke-width="4"/><path d="      M20.26,221.65c0,0,45.035-25.858,115.193-13.488" fill="none" stroke="#010101" stroke-linecap="round" stroke-linejoin="round" stroke-miterlimit="10" stroke-width="4"/></g><g><path d="      M138.901,208.795c-1.145-0.219-2.288-0.427-3.444-0.635" fill="none" stroke="#010101" stroke-linecap="round" stroke-linejoin="round" stroke-miterlimit="10" stroke-width="4"/><path d="      M193.882,227.354c0,0,0.01,0,0.01,0.01c6.929,3.487,13.036,7.096,18.342,10.581c0.01,0.01,0.021,0.01,0.031,0.021      c3.444,2.258,6.533,4.463,9.291,6.544" fill="none" stroke="#010101" stroke-linecap="round" stroke-linejoin="round" stroke-miterlimit="10" stroke-width="4"/><path d="      M124.523,273.834c-0.208-0.029-0.427-0.061-0.634-0.104" fill="none" stroke="#010101" stroke-linecap="round" stroke-linejoin="round" stroke-miterlimit="10" stroke-width="4"/><path d="      M185.289,275.688c7.762-0.926,14.784-2.236,20.995-3.705c0.011,0,0.031,0,0.042,0c4.296-1.018,8.209-2.109,11.704-3.203" fill="none" stroke="#010101" stroke-linecap="round" stroke-linejoin="round" stroke-miterlimit="10" stroke-width="4"/></g></g><g><g><path d="      M48.695,382.906c0,0,51.163,8.896,112.858-26.723" fill="none" stroke="#010101" stroke-linecap="round" stroke-linejoin="round" stroke-miterlimit="10" stroke-width="4"/><path d="      M48.695,382.906c0,0,17.875-48.758,79.572-84.377" fill="none" stroke="#010101" stroke-linecap="round" stroke-linejoin="round" stroke-miterlimit="10" stroke-width="4"/></g><g><path d="      M131.94,296.453c-1.217,0.676-2.445,1.373-3.671,2.08" fill="none" stroke="#010101" stroke-linecap="round" stroke-linejoin="round" stroke-miterlimit="10" stroke-width="4"/><path d="      M218.496,270.985c-3.694,0.166-7.761,0.479-12.172,0.998c-0.01,0-0.03,0-0.042,0c-6.347,0.75-13.389,1.916-20.995,3.705" fill="none" stroke="#010101" stroke-linecap="round" stroke-linejoin="round" stroke-miterlimit="10" stroke-width="4"/><path d="      M161.559,356.188c0.489-0.281,0.967-0.572,1.456-0.854h0.01" fill="none" stroke="#010101" stroke-linecap="round" stroke-linejoin="round" stroke-miterlimit="10" stroke-width="4"/><path d="      M209.882,318.196c5.327-5.682,9.853-11.174,13.66-16.281c2.839-3.818,5.285-7.418,7.366-10.705" fill="none" stroke="#010101" stroke-linecap="round" stroke-linejoin="round" stroke-miterlimit="10" stroke-width="4"/></g></g><g><g><path d="      M174.129,488.158c0,0,44.912-26.072,69.279-93.016" fill="none" stroke="#010101" stroke-linecap="round" stroke-linejoin="round" stroke-miterlimit="10" stroke-width="4"/><path d="      M174.129,488.158c0,0-17.647-48.84,6.719-115.785" fill="none" stroke="#010101" stroke-linecap="round" stroke-linejoin="round" stroke-miterlimit="10" stroke-width="4"/></g><g><path d="      M209.882,318.196c4.651-6.23,9.28-11.641,13.66-16.281c3.267-3.484,6.398-6.533,9.291-9.154" fill="none" stroke="#010101" stroke-linecap="round" stroke-linejoin="round" stroke-miterlimit="10" stroke-width="4"/><path d="      M182.261,368.598c-0.479,1.238-0.947,2.508-1.415,3.777" fill="none" stroke="#010101" stroke-linecap="round" stroke-linejoin="round" stroke-miterlimit="10" stroke-width="4"/><path d="      M244.431,392.297c-0.333,0.947-0.676,1.893-1.019,2.852" fill="none" stroke="#010101" stroke-linecap="round" stroke-linejoin="round" stroke-miterlimit="10" stroke-width="4"/><path d="      M256,335.028c0.437-7.771,0.365-14.887,0-21.242c-0.281-4.9-0.739-9.363-1.27-13.318" fill="none" stroke="#010101" stroke-linecap="round" stroke-linejoin="round" stroke-miterlimit="10" stroke-width="4"/></g></g><g><g><path d="      M337.871,488.158c0,0,17.647-48.84-6.718-115.785" fill="none" stroke="#010101" stroke-linecap="round" stroke-linejoin="round" stroke-miterlimit="10" stroke-width="4"/><path d="      M337.871,488.158c0,0-44.912-26.072-69.277-93.016" fill="none" stroke="#010101" stroke-linecap="round" stroke-linejoin="round" stroke-miterlimit="10" stroke-width="4"/></g><g><path d="      M268.599,395.149c-0.343-0.957-0.687-1.904-1.02-2.861" fill="none" stroke="#010101" stroke-linecap="round" stroke-linejoin="round" stroke-miterlimit="10" stroke-width="4"/><path d="      M256,335.028c-0.437-7.771-0.365-14.887,0-21.242c0.281-4.912,0.729-9.363,1.27-13.318" fill="none" stroke="#010101" stroke-linecap="round" stroke-linejoin="round" stroke-miterlimit="10" stroke-width="4"/><path d="      M279.169,292.76c2.882,2.621,6.003,5.658,9.27,9.123c0.011,0.012,0.011,0.021,0.021,0.031      c4.379,4.629,8.998,10.029,13.638,16.25" fill="none" stroke="#010101" stroke-linecap="round" stroke-linejoin="round" stroke-miterlimit="10" stroke-width="4"/><path d="      M331.153,372.375c-0.458-1.27-0.937-2.529-1.404-3.766" fill="none" stroke="#010101" stroke-linecap="round" stroke-linejoin="round" stroke-miterlimit="10" stroke-width="4"/></g></g><g><g><path d="      M463.305,382.906c0,0-17.874-48.758-79.569-84.379" fill="none" stroke="#010101" stroke-linecap="round" stroke-linejoin="round" stroke-miterlimit="10" stroke-width="4"/><path d="      M463.305,382.906c0,0-51.162,8.896-112.857-26.723" fill="none" stroke="#010101" stroke-linecap="round" stroke-linejoin="round" stroke-miterlimit="10" stroke-width="4"/></g><g><path d="      M350.451,356.188c-0.498-0.281-0.988-0.572-1.477-0.863" fill="none" stroke="#010101" stroke-linecap="round" stroke-linejoin="round" stroke-miterlimit="10" stroke-width="4"/><path d="      M281.093,291.209c2.07,3.277,4.515,6.865,7.346,10.674c0.011,0.012,0.011,0.021,0.021,0.031      c3.808,5.098,8.322,10.58,13.638,16.25" fill="none" stroke="#010101" stroke-linecap="round" stroke-linejoin="round" stroke-miterlimit="10" stroke-width="4"/><path d="      M326.659,275.678c-7.563-1.779-14.575-2.945-20.89-3.684c-4.452-0.531-8.552-0.844-12.266-1.01" fill="none" stroke="#010101" stroke-linecap="round" stroke-linejoin="round" stroke-miterlimit="10" stroke-width="4"/><path d="      M380.07,296.442h0.011c1.218,0.688,2.424,1.373,3.652,2.082" fill="none" stroke="#010101" stroke-linecap="round" stroke-linejoin="round" stroke-miterlimit="10" stroke-width="4"/></g></g><g><g><path d="      M491.739,221.652c0,0-45.031-25.86-115.193-13.493" fill="none" stroke="#010101" stroke-linecap="round" stroke-linejoin="round" stroke-miterlimit="10" stroke-width="4"/><path d="      M491.739,221.652c0,0-33.473,39.7-103.631,52.073" fill="none" stroke="#010101" stroke-linecap="round" stroke-linejoin="round" stroke-miterlimit="10" stroke-width="4"/></g><g><path d="      M326.659,275.678c-7.719-0.928-14.7-2.229-20.89-3.684c-4.327-1.02-8.271-2.121-11.798-3.227" fill="none" stroke="#010101" stroke-linecap="round" stroke-linejoin="round" stroke-miterlimit="10" stroke-width="4"/><path d="      M388.111,273.721c-0.218,0.043-0.437,0.072-0.645,0.113" fill="none" stroke="#010101" stroke-linecap="round" stroke-linejoin="round" stroke-miterlimit="10" stroke-width="4"/><path d="      M376.543,208.159c-1.154,0.208-2.299,0.417-3.433,0.635" fill="none" stroke="#010101" stroke-linecap="round" stroke-linejoin="round" stroke-miterlimit="10" stroke-width="4"/><path d="      M318.118,227.354c0,0.01-0.01,0.01-0.01,0.01c-6.93,3.487-13.036,7.096-18.342,10.581c-0.011,0.01-0.021,0.021-0.031,0.021      c-3.443,2.258-6.532,4.463-9.29,6.544" fill="none" stroke="#010101" stroke-linecap="round" stroke-linejoin="round" stroke-miterlimit="10" stroke-width="4"/></g></g><g><g><path d="      M409.868,79.846c0,0-51.119,9.137-96.914,63.71" fill="none" stroke="#010101" stroke-linecap="round" stroke-linejoin="round" stroke-miterlimit="10" stroke-width="4"/><path d="      M409.868,79.846c0,0-0.12,51.929-45.915,106.503" fill="none" stroke="#010101" stroke-linecap="round" stroke-linejoin="round" stroke-miterlimit="10" stroke-width="4"/></g><g><path d="      M363.956,186.353c-0.072,0.084-0.146,0.177-0.23,0.26" fill="none" stroke="#010101" stroke-linecap="round" stroke-linejoin="round" stroke-miterlimit="10" stroke-width="4"/><path d="      M289.478,242.719c3.174-1.343,6.616-2.914,10.257-4.754c0.011,0,0.021-0.011,0.031-0.021c5.669-2.851,11.85-6.337,18.342-10.581      c0,0,0.01,0,0.01-0.01" fill="none" stroke="#010101" stroke-linecap="round" stroke-linejoin="round" stroke-miterlimit="10" stroke-width="4"/><path d="      M312.958,143.556c-0.479,0.571-0.947,1.133-1.414,1.705" fill="none" stroke="#010101" stroke-linecap="round" stroke-linejoin="round" stroke-miterlimit="10" stroke-width="4"/><path d="      M270.504,226.136c0.748-3.184,1.643-6.616,2.725-10.277c0.011-0.021,0.021-0.032,0.021-0.053      c1.842-6.117,4.224-12.858,7.304-20.037" fill="none" stroke="#010101" stroke-linecap="round" stroke-linejoin="round" stroke-miterlimit="10" stroke-width="4"/></g></g></g><circle cx="454.672" cy="33.171" fill="#EA6226" r="12"/><circle cx="318.118" cy="45.171" fill="#EA6226" r="12"/><circle cx="58.484" cy="157.668" fill="#EA6226" r="12"/><circle cx="37.449" cy="318.196" fill="#EA6226" r="12"/><circle cx="281.093" cy="479.123" fill="#EA6226" r="12"/><circle cx="442.672" cy="467.123" fill="#EA6226" r="12"/><g><line fill="none" stroke="#FECD0E" stroke-miterlimit="10" stroke-width="5" x1="484.741" x2="466.672" y1="91.601" y2="109.672"/><line fill="none" stroke="#FECD0E" stroke-miterlimit="10" stroke-width="5" x1="466.672" x2="484.741" y1="91.601" y2="109.672"/></g><g><line fill="none" stroke="#FECD0E" stroke-miterlimit="10" stroke-width="5" x1="475.707" x2="457.637" y1="308.399" y2="326.47"/><line fill="none" stroke="#FECD0E" stroke-miterlimit="10" stroke-width="5" x1="457.637" x2="475.707" y1="308.399" y2="326.47"/></g><g><line fill="none" stroke="#FECD0E" stroke-miterlimit="10" stroke-width="5" x1="389.105" x2="371.036" y1="403.897" y2="421.968"/><line fill="none" stroke="#FECD0E" stroke-miterlimit="10" stroke-width="5" x1="371.036" x2="389.105" y1="403.897" y2="421.968"/></g><g><line fill="none" stroke="#FECD0E" stroke-miterlimit="10" stroke-width="5" x1="182.932" x2="164.863" y1="36.135" y2="54.207"/><line fill="none" stroke="#FECD0E" stroke-miterlimit="10" stroke-width="5" x1="164.863" x2="182.932" y1="36.135" y2="54.207"/></g><g><line fill="none" stroke="#FECD0E" stroke-miterlimit="10" stroke-width="5" x1="67.518" x2="49.449" y1="45.171" y2="63.242"/><line fill="none" stroke="#FECD0E" stroke-miterlimit="10" stroke-width="5" x1="49.449" x2="67.518" y1="45.171" y2="63.242"/></g><g><line fill="none" stroke="#FECD0E" stroke-miterlimit="10" stroke-width="5" x1="55.518" x2="37.449" y1="432.615" y2="450.686"/><line fill="none" stroke="#FECD0E" stroke-miterlimit="10" stroke-width="5" x1="37.449" x2="55.518" y1="432.615" y2="450.686"/></g></g><g><line fill="none" stroke="#FECD0E" stroke-miterlimit="10" stroke-width="5" x1="153.799" x2="135.729" y1="479.123" y2="497.194"/><line fill="none" stroke="#FECD0E" stroke-miterlimit="10" stroke-width="5" x1="135.729" x2="153.799" y1="479.123" y2="497.194"/></g></svg>