<?xml version="1.0" ?><!DOCTYPE svg  PUBLIC '-//W3C//DTD SVG 1.1//EN'  'http://www.w3.org/Graphics/SVG/1.1/DTD/svg11.dtd'><svg enable-background="new 0 0 512 512" height="512px" id="Calque_1" version="1.1" viewBox="0 0 512 512" width="512px" xml:space="preserve" xmlns="http://www.w3.org/2000/svg" xmlns:xlink="http://www.w3.org/1999/xlink"><path d="M142.541,158.519c34.874,20.13,62.107,42.464,72.61,59.131c-0.01-0.2-0.026-0.415-0.049-0.645  c0-0.004-0.001-0.008-0.001-0.012c-0.001-0.011-0.003-0.021-0.004-0.032c-1.269-12.531-19.744-42.383-52.649-75.301  c-7.498-7.496-15.199-14.592-22.889-21.088c-0.027-0.023-0.052-0.047-0.079-0.07c-0.035-0.03-0.069-0.061-0.104-0.092  c-0.017-0.016-0.036-0.031-0.053-0.047c-34.11-28.738-52.573-32.943-55.104-31.146c-1.777,2.512,2.454,20.965,31.137,55  C124.35,148.494,133.485,153.29,142.541,158.519z" fill="#FECD0E"/><path d="M121.177,191.202c38.908,10.43,70.999,24.961,85.445,38.339c-0.061-0.191-0.132-0.396-0.213-0.614  c-0.006-0.016-0.013-0.031-0.019-0.047c-4.453-11.766-30.032-35.832-70.35-59.104c-9.185-5.303-18.449-10.159-27.536-14.434  c-40.589-19.09-59.609-18.376-61.593-15.981c-1.066,2.895,7.801,19.621,44.279,45.059  C100.982,186.217,111.058,188.488,121.177,191.202z" fill="#FECD0E"/><path d="M109.004,228.307c40.265,0,75.008,5.724,92.435,14.901c-0.111-0.172-0.234-0.354-0.372-0.547  c-7.312-10.202-38.257-26.841-83.257-38.903c-10.26-2.752-20.469-5.044-30.346-6.813c-0.034-0.006-0.066-0.014-0.1-0.021  c-0.052-0.01-0.104-0.021-0.156-0.032c-0.031-0.007-0.062-0.012-0.092-0.019c-43.909-7.836-61.982-2.239-63.267,0.582  c-0.28,3.069,12.616,16.928,54.443,32.056C88.252,228.72,98.568,228.307,109.004,228.307z" fill="#FECD0E"/><path d="M283.089,206.403c11.76-4.425,35.846-30.014,59.134-70.361c5.298-9.177,10.146-18.425,14.411-27.491  c0.007-0.015,0.015-0.029,0.021-0.043c0,0,0.001-0.001,0.001-0.002c19.107-40.623,18.38-59.628,15.979-61.606  c-2.887-1.064-19.6,7.79-45.056,44.292c-1.799,9.798-4.07,19.874-6.781,29.984c-10.429,38.907-24.96,70.998-38.339,85.446  C282.656,206.56,282.865,206.488,283.089,206.403z" fill="#FECD0E"/><path d="M397.15,206.486c-34.881,20.134-67.844,32.553-87.521,33.316c0.181,0.093,0.377,0.189,0.59,0.286  c0.01,0.004,0.019,0.007,0.027,0.011c11.448,5.17,46.551,4.1,91.547-7.949c10.265-2.75,20.258-5.871,29.702-9.272  c42.216-15.221,55.133-29.166,54.833-32.259c-1.278-2.795-19.354-8.362-63.188-0.534C414.94,195.738,406.213,201.254,397.15,206.486  z" fill="#FECD0E"/><path d="M353.481,142.542c-20.13,34.875-42.465,62.108-59.134,72.611c0.202-0.01,0.418-0.026,0.649-0.05  c12.504-1.231,42.389-19.712,75.343-52.656c7.486-7.485,14.582-15.186,21.088-22.889c0.02-0.023,0.04-0.044,0.06-0.067  c0.038-0.044,0.077-0.088,0.117-0.131c0.013-0.014,0.024-0.028,0.037-0.042c28.734-34.107,32.937-52.57,31.142-55.099  c-2.514-1.776-20.956,2.451-54.993,31.121C363.515,124.331,358.718,133.473,353.481,142.542z" fill="#FECD0E"/><path d="M379.531,171.641c-28.487,28.477-57.113,49.001-75.921,54.828c0.203,0.044,0.422,0.087,0.659,0.126h0.001  c0.008,0.001,0.016,0.002,0.023,0.003c12.402,2.033,46.031-8.094,86.357-31.371c9.189-5.306,18.031-10.904,26.279-16.64  c0.076-0.053,0.153-0.104,0.23-0.153c36.654-25.549,45.48-42.297,44.391-45.199c-1.976-2.361-20.897-3.041-61.145,15.818  C393.925,156.663,386.917,164.257,379.531,171.641z" fill="#FECD0E"/><path d="M106.843,267.294c38.9-10.419,73.943-13.883,93.147-9.533c-0.147-0.134-0.308-0.272-0.485-0.418  c-9.704-7.971-43.902-16.036-90.501-16.036c-10.585,0-21.044,0.426-31.087,1.266c-44.716,3.775-60.806,13.9-61.317,16.964  c0.512,3.032,16.534,13.083,60.883,16.873C86.871,273.073,96.73,270.002,106.843,267.294z" fill="#FECD0E"/><path d="M390.824,320.797c-38.92-10.43-71.009-24.963-85.447-38.345c0.063,0.199,0.136,0.411,0.222,0.639  c4.424,11.757,30.013,35.842,70.36,59.132c9.197,5.31,18.463,10.165,27.537,14.433c40.593,19.095,59.61,18.378,61.594,15.982  c1.076-2.889-7.768-19.609-44.283-45.06C411.004,325.779,400.928,323.507,390.824,320.797z" fill="#FECD0E"/><path d="M402.996,283.693c-40.259,0-74.998-5.722-92.429-14.897c0.105,0.162,0.22,0.331,0.35,0.51  c0.004,0.006,0.01,0.012,0.014,0.018c0.002,0.003,0.004,0.005,0.006,0.008c7.348,10.232,38.272,26.855,83.254,38.91  c10.245,2.747,20.456,5.04,30.349,6.814c0.029,0.005,0.058,0.013,0.087,0.018c0.056,0.011,0.111,0.022,0.167,0.034  c0.022,0.006,0.047,0.009,0.069,0.015c43.929,7.842,62.006,2.244,63.29-0.577c0.278-3.069-12.622-16.929-54.445-32.058  C423.732,283.279,413.417,283.693,402.996,283.693z" fill="#FECD0E"/><path d="M369.46,353.483c-34.877-20.133-62.111-42.469-72.612-59.137c0.01,0.199,0.025,0.413,0.048,0.642  c0.002,0.019,0.006,0.037,0.008,0.057c1.271,12.531,19.746,42.38,52.649,75.295c7.488,7.489,15.189,14.584,22.889,21.088  c0.025,0.021,0.049,0.044,0.074,0.066c0.039,0.033,0.077,0.068,0.116,0.103c0.02,0.019,0.041,0.036,0.061,0.055  c34.097,28.726,52.56,32.92,55.086,31.132c1.778-2.513-2.454-20.967-31.14-55.004C387.66,363.51,378.527,358.715,369.46,353.483z" fill="#FECD0E"/><path d="M340.359,379.531c-28.479-28.488-49.002-57.114-54.828-75.921c-0.044,0.196-0.085,0.41-0.123,0.64  c-0.003,0.02-0.006,0.04-0.009,0.06c-2.016,12.411,8.105,46.031,31.373,86.342c5.29,9.167,10.889,18.009,16.639,26.279  c0.053,0.076,0.104,0.153,0.153,0.231c25.549,36.651,42.288,45.471,45.199,44.39c2.361-1.976,3.041-20.901-15.818-61.146  C355.339,393.926,347.746,386.918,340.359,379.531z" fill="#FECD0E"/><path d="M114.848,305.513c34.884-20.135,67.85-32.554,87.524-33.313c-0.18-0.093-0.375-0.188-0.587-0.284  c-0.012-0.005-0.023-0.009-0.034-0.015c-11.453-5.171-46.555-4.098-91.544,7.95c-10.256,2.747-20.25,5.866-29.702,9.271  c-42.215,15.22-55.133,29.166-54.833,32.259c1.276,2.795,19.349,8.363,63.186,0.533C97.077,316.249,105.806,310.732,114.848,305.513  z" fill="#FECD0E"/><path d="M434.518,235.589c-9.38,3.335-19.239,6.405-29.36,9.118c-27.905,7.473-53.826,11.369-73.338,11.369  c-7.694,0-14.385-0.609-19.815-1.84c0.143,0.129,0.299,0.264,0.469,0.403c0.015,0.012,0.029,0.024,0.044,0.036  c9.728,7.964,43.912,16.018,90.479,16.018c10.569,0,21.029-0.426,31.089-1.267c44.712-3.773,60.804-13.898,61.315-16.963  C494.886,249.431,478.863,239.381,434.518,235.589z" fill="#FECD0E"/><path d="M158.518,369.459c20.131-34.875,42.464-62.107,59.132-72.61c-0.199,0.01-0.413,0.025-0.641,0.049  c-12.509,1.23-42.393,19.711-75.348,52.654c-7.502,7.504-14.599,15.205-21.089,22.889c-0.024,0.029-0.051,0.057-0.076,0.086  c-0.025,0.029-0.051,0.058-0.077,0.087c-0.019,0.021-0.037,0.042-0.056,0.063c-28.736,34.108-32.94,52.573-31.146,55.103  c2.516,1.774,20.968-2.456,55-31.136C148.495,387.649,153.291,378.514,158.518,369.459z" fill="#FECD0E"/><path d="M228.922,305.593c-0.013,0.005-0.025,0.01-0.038,0.015c-11.764,4.449-35.832,30.028-59.107,70.351  c-5.301,9.183-10.157,18.447-14.434,27.538c-19.09,40.591-18.375,59.608-15.98,61.593c2.884,1.062,19.616-7.797,45.059-44.282  c1.797-9.79,4.068-19.865,6.781-29.983c10.43-38.908,24.961-70.999,38.339-85.445C229.347,305.44,229.141,305.511,228.922,305.593z" fill="#FECD0E"/><path d="M132.469,340.36c28.488-28.479,57.115-49.003,75.923-54.828c-0.197-0.043-0.411-0.085-0.641-0.123  c-0.021-0.003-0.041-0.006-0.061-0.009c-12.413-2.016-46.033,8.104-86.343,31.372c-9.168,5.292-18.01,10.891-26.279,16.64  c-0.076,0.053-0.153,0.104-0.231,0.153c-36.654,25.55-45.479,42.297-44.39,45.198c1.975,2.365,20.899,3.042,61.147-15.819  C118.061,355.353,125.069,347.76,132.469,340.36z" fill="#FECD0E"/><path d="M305.512,397.149c-20.135-34.883-32.552-67.847-33.313-87.522c-0.095,0.183-0.191,0.381-0.29,0.599  c-5.181,11.427-4.116,46.548,7.94,91.568c2.748,10.258,5.868,20.251,9.272,29.702c15.048,41.737,28.851,54.838,32.149,54.838  c0.038,0,0.074-0.002,0.108-0.005c2.796-1.277,8.361-19.351,0.534-63.184C316.248,414.921,310.731,406.192,305.512,397.149z" fill="#FECD0E"/><path d="M242.668,310.927c-0.012,0.009-0.023,0.019-0.036,0.026c-10.202,7.346-26.821,38.275-38.874,83.236  c-2.751,10.261-5.043,20.471-6.813,30.348c-0.006,0.032-0.014,0.064-0.02,0.097c-0.01,0.051-0.021,0.103-0.031,0.153  c-0.006,0.025-0.01,0.051-0.016,0.075c-7.841,43.925-2.244,62.004,0.578,63.289c3.054,0.285,16.927-12.618,32.055-54.438  c-0.792-9.968-1.206-20.285-1.206-30.718c0-40.263,5.723-75.006,14.899-92.434C243.036,310.67,242.857,310.792,242.668,310.927z" fill="#FECD0E"/><path d="M257.76,312.008c-0.126,0.14-0.259,0.294-0.396,0.459c-0.016,0.019-0.03,0.037-0.045,0.055  c-7.962,9.733-16.014,43.913-16.014,90.474c0,10.579,0.426,21.038,1.266,31.089c3.774,44.712,13.898,60.804,16.962,61.316  c3.032-0.514,13.084-16.534,16.876-60.883c-3.337-9.386-6.407-19.245-9.117-29.361C256.875,366.255,253.41,331.211,257.76,312.008z" fill="#FECD0E"/><path d="M206.485,114.846c20.138,34.887,32.555,67.852,33.314,87.528c0.093-0.18,0.188-0.375,0.285-0.588  c0.005-0.012,0.01-0.025,0.016-0.037c5.17-11.453,4.099-46.553-7.95-91.543c-2.749-10.263-5.869-20.256-9.271-29.702  c-15.049-41.74-28.852-54.838-32.151-54.838c-0.038,0-0.074,0.001-0.109,0.005c-2.79,1.288-8.353,19.383-0.534,63.178  C195.733,97.058,201.249,105.784,206.485,114.846z" fill="#FECD0E"/><path d="M269.34,201.068c0.005-0.004,0.011-0.008,0.016-0.012c0.002-0.001,0.004-0.003,0.006-0.004  c10.203-7.34,26.827-38.274,38.88-83.241c2.749-10.251,5.041-20.461,6.813-30.347c0.006-0.034,0.015-0.067,0.021-0.101  c0.01-0.052,0.021-0.103,0.031-0.154c0.007-0.03,0.013-0.062,0.02-0.092c7.844-43.941,2.238-62-0.586-63.279  c-3.102-0.291-16.922,12.623-32.053,54.449c0.793,9.974,1.206,20.292,1.206,30.718c0,40.265-5.724,75.01-14.902,92.437  C268.964,201.329,269.146,201.206,269.34,201.068z" fill="#FECD0E"/><path d="M171.64,132.468c28.478,28.488,49.001,57.115,54.828,75.923c0.043-0.199,0.085-0.414,0.124-0.646  c0.002-0.016,0.004-0.031,0.007-0.047c2.02-12.41-8.1-46.034-31.372-86.35c-5.311-9.192-10.911-18.039-16.643-26.294  c-25.629-36.831-42.446-45.702-45.35-44.607c-2.362,1.973-3.042,20.896,15.82,61.147  C156.652,118.066,164.245,125.073,171.64,132.468z" fill="#FECD0E"/><path d="M254.24,199.99c0.129-0.142,0.263-0.298,0.403-0.468c0.009-0.012,0.019-0.023,0.028-0.035  c7.967-9.727,16.022-43.912,16.022-90.483c0-10.576-0.426-21.039-1.267-31.099c-3.775-44.711-13.899-60.795-16.963-61.306  c-3.033,0.513-13.084,16.534-16.874,60.882c3.335,9.382,6.406,19.241,9.117,29.36C255.125,145.744,258.59,180.787,254.24,199.99z" fill="#FECD0E"/><path d="M266.659,162.459c-3.08,18.561-7.55,31.601-11.989,37.03c-0.011,0.01-0.021,0.02-0.03,0.04  c-0.141,0.17-0.271,0.32-0.4,0.46c4.351-19.2,0.88-54.24-9.54-93.14c-2.71-10.12-5.779-19.98-9.109-29.36  c3.79-44.35,13.84-60.37,16.869-60.89c1.16,0.189,3.32,2.609,5.771,7.939c-4.01,8.75-8.78,25.38-11.14,52.95  c3.33,9.38,6.399,19.24,9.109,29.36C261.59,126.969,265.119,146.059,266.659,162.459z" opacity="0.2"/><path d="M242.086,162.887c1.829,18.725,0.886,32.478-1.997,38.872c-0.008,0.012-0.015,0.024-0.019,0.046  c-0.092,0.2-0.178,0.379-0.268,0.548c-0.767-19.672-13.188-52.62-33.321-87.497c-5.237-9.074-10.754-17.804-16.398-26.002  c-7.817-43.819-2.256-61.895,0.535-63.181c1.17-0.117,3.882,1.661,7.629,6.175c-1.608,9.49-1.913,26.788,2.944,54.029  c5.645,8.198,11.161,16.928,16.398,26.002C228.003,129.918,236.353,147.445,242.086,162.887z" opacity="0.2"/><path d="M218.461,169.661c6.612,17.614,9.262,31.142,8.132,38.064c-0.005,0.014-0.008,0.027-0.006,0.05  c-0.037,0.217-0.074,0.413-0.117,0.598c-5.833-18.803-26.358-47.413-54.832-75.892c-7.407-7.409-14.996-14.414-22.57-20.872  c-18.892-40.303-18.199-59.202-15.835-61.167c1.1-0.416,4.18,0.6,8.967,3.991c0.902,9.583,5.086,26.37,16.828,51.426  c7.574,6.458,15.163,13.462,22.569,20.872C196.325,141.46,208.927,156.229,218.461,169.661z" opacity="0.2"/><path d="M197.394,182.319c10.946,15.302,17.006,27.684,17.707,34.662c-0.001,0.015-0.001,0.028,0.006,0.05  c0.021,0.219,0.036,0.418,0.042,0.608c-10.5-16.652-37.731-38.976-72.605-59.114c-9.072-5.239-18.215-10.041-27.203-14.319  c-28.68-34.04-32.901-52.475-31.127-54.984c0.955-0.687,4.193-0.502,9.695,1.534c3.352,9.022,11.738,24.155,29.564,45.318  c8.987,4.278,18.13,9.08,27.202,14.32C168.713,160.808,184.708,171.812,197.394,182.319z" opacity="0.2"/><path d="M180.321,199.998c14.534,11.948,23.592,22.339,26.075,28.898c0.002,0.015,0.006,0.028,0.019,0.046  c0.077,0.207,0.143,0.395,0.198,0.576c-14.453-13.367-46.533-27.882-85.432-38.308c-10.119-2.712-20.193-4.984-29.981-6.791  c-36.513-25.457-45.362-42.171-44.298-45.054c0.745-0.911,3.92-1.571,9.762-1.028c5.572,7.848,17.589,20.293,40.286,36.122  c9.788,1.806,19.863,4.078,29.981,6.792C147.05,186.643,165.347,193.132,180.321,199.998z" opacity="0.2"/><path d="M168.405,221.493c17.131,7.779,28.569,15.472,32.666,21.165c0.006,0.013,0.013,0.025,0.03,0.04  c0.127,0.18,0.24,0.344,0.341,0.505c-17.42-9.171-52.164-14.888-92.436-14.892c-10.476-0.001-20.795,0.412-30.717,1.201  c-41.857-15.139-54.731-28.993-54.449-32.053c0.483-1.072,3.38-2.532,9.163-3.52c7.414,6.138,22.242,15.05,48.262,24.464  c9.922-0.789,20.242-1.202,30.718-1.199C132.811,217.204,152.165,218.737,168.405,221.493z" opacity="0.2"/><path d="M162.459,245.341c18.561,3.08,31.6,7.55,37.03,11.989c0.01,0.012,0.019,0.021,0.04,0.031  c0.17,0.14,0.321,0.27,0.46,0.399c-19.2-4.35-54.24-0.88-93.14,9.54c-10.119,2.71-19.98,5.78-29.36,9.11  c-44.349-3.79-60.37-13.84-60.89-16.869c0.189-1.161,2.61-3.32,7.94-5.771c8.75,4.01,25.379,8.78,52.95,11.139  c9.38-3.329,19.241-6.399,29.36-9.108C126.968,250.41,146.058,246.881,162.459,245.341z" opacity="0.2"/><path d="M162.887,269.914c18.726-1.829,32.478-0.887,38.872,1.996c0.013,0.009,0.024,0.016,0.046,0.02  c0.2,0.091,0.379,0.178,0.548,0.267c-19.671,0.769-52.62,13.188-87.498,33.321c-9.073,5.237-17.803,10.755-26.001,16.399  c-43.819,7.817-61.895,2.256-63.181-0.535c-0.117-1.171,1.662-3.883,6.176-7.629c9.489,1.608,26.787,1.911,54.029-2.945  c8.199-5.644,16.929-11.161,26.002-16.397C129.917,283.996,147.444,275.647,162.887,269.914z" opacity="0.2"/><path d="M169.661,293.539c17.614-6.613,31.142-9.262,38.064-8.133c0.014,0.006,0.027,0.01,0.05,0.007  c0.217,0.036,0.412,0.074,0.598,0.116c-18.802,5.834-47.413,26.358-75.892,54.832c-7.408,7.407-14.413,14.996-20.871,22.57  c-40.302,18.892-59.202,18.198-61.167,15.835c-0.417-1.101,0.6-4.18,3.991-8.967c9.582-0.902,26.369-5.087,51.425-16.829  c6.459-7.573,13.463-15.162,20.873-22.568C141.459,315.675,156.228,303.073,169.661,293.539z" opacity="0.2"/><path d="M182.319,314.607c15.303-10.947,27.684-17.007,34.662-17.708c0.015,0.002,0.028,0.003,0.05-0.006  c0.219-0.021,0.417-0.035,0.608-0.043c-16.651,10.502-38.976,37.731-59.115,72.606c-5.238,9.072-10.041,18.215-14.318,27.203  c-34.04,28.679-52.475,32.9-54.984,31.126c-0.687-0.955-0.502-4.192,1.534-9.694c9.022-3.352,24.154-11.738,45.317-29.565  c4.279-8.986,9.081-18.13,14.32-27.201C160.807,343.287,171.811,327.292,182.319,314.607z" opacity="0.2"/><path d="M199.998,331.68c11.948-14.535,22.338-23.593,28.898-26.076c0.015-0.002,0.028-0.004,0.046-0.019  c0.206-0.077,0.394-0.142,0.576-0.198c-13.366,14.453-27.882,46.533-38.309,85.432c-2.712,10.119-4.984,20.193-6.789,29.982  c-25.458,36.512-42.171,45.36-45.055,44.296c-0.911-0.744-1.57-3.919-1.027-9.761c7.847-5.572,20.293-17.59,36.121-40.287  c1.807-9.787,4.079-19.862,6.792-29.98C186.643,364.95,193.131,346.653,199.998,331.68z" opacity="0.2"/><path d="M221.493,343.596c7.779-17.133,15.471-28.571,21.164-32.667c0.014-0.006,0.026-0.012,0.04-0.03  c0.179-0.128,0.344-0.239,0.505-0.341c-9.169,17.42-14.888,52.164-14.892,92.436c0,10.477,0.413,20.796,1.203,30.718  c-15.14,41.856-28.995,54.729-32.056,54.448c-1.072-0.483-2.53-3.379-3.518-9.162c6.137-7.414,15.049-22.243,24.463-48.264  c-0.788-9.921-1.201-20.241-1.199-30.717C217.204,379.189,218.736,359.835,221.493,343.596z" opacity="0.2"/><path d="M245.341,349.542c3.08-18.563,7.549-31.603,11.988-37.031c0.012-0.01,0.021-0.019,0.03-0.04  c0.14-0.17,0.271-0.32,0.4-0.46c-4.348,19.199-0.88,54.24,9.539,93.141c2.712,10.119,5.781,19.98,9.112,29.359  c-3.791,44.349-13.842,60.369-16.871,60.89c-1.161-0.189-3.318-2.609-5.77-7.939c4.009-8.75,8.779-25.38,11.139-52.951  c-3.329-9.379-6.399-19.24-9.109-29.359C250.41,385.032,246.88,365.942,245.341,349.542z" opacity="0.2"/><path d="M269.914,349.114c-1.829-18.727-0.887-32.479,1.996-38.872c0.009-0.013,0.016-0.023,0.019-0.047  c0.091-0.2,0.18-0.379,0.268-0.548c0.77,19.671,13.188,52.62,33.321,87.498c5.238,9.072,10.755,17.804,16.4,26.001  c7.816,43.818,2.254,61.895-0.537,63.182c-1.171,0.117-3.881-1.662-7.628-6.176c1.607-9.489,1.911-26.788-2.945-54.03  c-5.644-8.197-11.161-16.928-16.397-26.001C283.997,382.082,275.646,364.556,269.914,349.114z" opacity="0.2"/><path d="M293.539,342.339c-6.613-17.614-9.263-31.143-8.132-38.063c0.005-0.015,0.009-0.027,0.005-0.051  c0.036-0.217,0.076-0.412,0.117-0.598c5.834,18.801,26.358,47.413,54.832,75.892c7.408,7.408,14.996,14.414,22.571,20.871  c18.891,40.302,18.196,59.202,15.834,61.167c-1.102,0.417-4.18-0.601-8.967-3.99c-0.903-9.582-5.087-26.37-16.829-51.428  c-7.573-6.457-15.162-13.462-22.568-20.871C315.676,370.54,303.073,355.772,293.539,342.339z" opacity="0.2"/><path d="M314.606,329.681c-10.947-15.302-17.008-27.684-17.707-34.661c0.001-0.016,0.002-0.029-0.008-0.051  c-0.021-0.219-0.033-0.418-0.042-0.607c10.502,16.65,37.732,38.976,72.606,59.114c9.073,5.238,18.216,10.041,27.204,14.317  c28.678,34.04,32.898,52.476,31.125,54.985c-0.956,0.688-4.192,0.501-9.693-1.534c-3.353-9.021-11.739-24.154-29.566-45.319  c-8.986-4.276-18.13-9.079-27.201-14.318C343.287,351.193,327.292,340.189,314.606,329.681z" opacity="0.2"/><path d="M331.679,312.002c-14.535-11.947-23.594-22.339-26.075-28.897c-0.003-0.016-0.005-0.029-0.021-0.047  c-0.077-0.206-0.14-0.396-0.197-0.576c14.453,13.365,46.534,27.882,85.432,38.309c10.12,2.711,20.194,4.983,29.983,6.788  c36.511,25.458,45.358,42.173,44.296,45.056c-0.746,0.912-3.92,1.569-9.761,1.027c-5.573-7.847-17.591-20.293-40.288-36.123  c-9.787-1.805-19.862-4.077-29.98-6.79C364.95,325.358,346.652,318.868,331.679,312.002z" opacity="0.2"/><path d="M343.595,290.507c-17.133-7.778-28.572-15.472-32.666-21.164c-0.007-0.015-0.013-0.027-0.032-0.04  c-0.128-0.18-0.237-0.347-0.34-0.506c17.42,9.169,52.165,14.888,92.436,14.892c10.478,0,20.796-0.413,30.719-1.203  c41.855,15.141,54.729,28.996,54.448,32.056c-0.484,1.074-3.381,2.53-9.162,3.519c-7.415-6.137-22.244-15.049-48.265-24.465  c-9.921,0.79-20.241,1.202-30.717,1.201C379.188,294.796,359.835,293.264,343.595,290.507z" opacity="0.2"/><path d="M349.542,266.659c-18.563-3.078-31.603-7.549-37.03-11.988c-0.011-0.013-0.02-0.023-0.042-0.03  c-0.17-0.141-0.318-0.273-0.459-0.401c19.199,4.348,54.241,0.879,93.14-9.54c10.121-2.711,19.98-5.781,29.361-9.113  c44.348,3.792,60.368,13.844,60.89,16.872c-0.19,1.163-2.611,3.319-7.939,5.77c-8.751-4.008-25.381-8.779-52.952-11.139  c-9.378,3.331-19.24,6.4-29.359,9.11C385.032,261.591,365.941,265.119,349.542,266.659z" opacity="0.2"/><path d="M349.113,242.086c-18.727,1.831-32.479,0.888-38.871-1.995c-0.014-0.009-0.024-0.018-0.048-0.019  c-0.201-0.092-0.379-0.182-0.548-0.268c19.671-0.77,52.621-13.19,87.497-33.321c9.074-5.239,17.804-10.756,26.002-16.402  c43.818-7.815,61.895-2.252,63.182,0.538c0.117,1.172-1.663,3.881-6.175,7.627c-9.49-1.606-26.789-1.911-54.031,2.946  c-8.196,5.645-16.929,11.162-26.001,16.398C382.083,228.005,364.555,236.354,349.113,242.086z" opacity="0.2"/><path d="M342.339,218.46c-17.614,6.616-31.143,9.264-38.063,8.133c-0.016-0.005-0.028-0.01-0.051-0.005  c-0.219-0.037-0.413-0.077-0.599-0.117c18.801-5.835,47.414-26.36,75.892-54.832c7.409-7.409,14.413-14.998,20.87-22.573  c40.303-18.89,59.203-18.195,61.168-15.833c0.417,1.102-0.602,4.18-3.99,8.966c-9.582,0.904-26.37,5.088-51.428,16.83  c-6.456,7.574-13.463,15.163-20.87,22.569C370.541,196.326,355.771,208.927,342.339,218.46z" opacity="0.2"/><path d="M329.68,197.393c-15.302,10.949-27.684,17.008-34.66,17.708c-0.017-0.001-0.03-0.003-0.051,0.008  c-0.221,0.021-0.419,0.032-0.608,0.042c16.65-10.502,38.977-37.733,59.114-72.605c5.239-9.075,10.04-18.217,14.316-27.206  c34.041-28.677,52.477-32.898,54.986-31.125c0.688,0.957,0.5,4.193-1.534,9.693c-9.021,3.354-24.154,11.74-45.319,29.566  c-4.276,8.987-9.08,18.13-14.317,27.202C351.193,168.714,340.188,184.708,329.68,197.393z" opacity="0.2"/><path d="M312.002,180.32c-11.947,14.537-22.339,23.594-28.896,26.075c-0.017,0.003-0.03,0.005-0.047,0.021  c-0.208,0.078-0.396,0.14-0.577,0.198c13.365-14.454,27.883-46.535,38.309-85.431c2.712-10.122,4.982-20.195,6.787-29.984  c25.459-36.51,42.174-45.359,45.057-44.296c0.912,0.746,1.568,3.921,1.027,9.76c-7.847,5.574-20.293,17.591-36.123,40.289  c-1.805,9.787-4.078,19.862-6.789,29.98C325.358,147.05,318.868,165.348,312.002,180.32z" opacity="0.2"/><path d="M290.506,168.405c-7.777,17.133-15.471,28.572-21.163,32.666c-0.015,0.007-0.027,0.013-0.039,0.032  c-0.182,0.129-0.348,0.238-0.507,0.341c9.169-17.42,14.889-52.167,14.893-92.436c-0.001-10.479-0.415-20.796-1.205-30.719  c15.143-41.855,28.997-54.729,32.057-54.448c1.074,0.484,2.529,3.381,3.519,9.162c-6.137,7.415-15.049,22.244-24.465,48.265  c0.79,9.92,1.201,20.241,1.202,30.716C294.797,132.811,293.263,152.165,290.506,168.405z" opacity="0.2"/><path d="M256,234.279c-11.978,0-21.722,9.744-21.722,21.721c0,11.978,9.744,21.722,21.722,21.722  s21.722-9.744,21.722-21.722C277.721,244.023,267.977,234.279,256,234.279z" fill="#FF50CE"/><g><circle cx="255.999" cy="256.001" fill="none" r="28.222" stroke="#000000" stroke-linecap="round" stroke-linejoin="round" stroke-miterlimit="10" stroke-width="4"/><path d="   M228.992,78.302c3.226-39.595,12.524-68.2,23.493-68.2c10.884,0,20.116,28.158,23.419,67.264c0.83,9.936,1.289,20.574,1.289,31.639   c0,44.58-7.371,82.279-17.51,94.621c-2.277,2.781-4.696,4.271-7.198,4.271c-2.236,0-4.409-1.192-6.475-3.439" fill="none" stroke="#000000" stroke-linecap="round" stroke-linejoin="round" stroke-miterlimit="10" stroke-width="4"/><path d="   M183.923,91.347c-7.135-39.073-5.548-69.117,5.037-71.96c10.511-2.812,26.721,21.991,40.033,58.914   c3.376,9.371,6.571,19.531,9.435,30.224c11.534,43.066,14.175,81.395,7.583,95.932c-1.48,3.27-3.439,5.335-5.857,5.984   c-2.162,0.586-4.568-0.01-7.146-1.65" fill="none" stroke="#000000" stroke-linecap="round" stroke-linejoin="round" stroke-miterlimit="10" stroke-width="4"/><path d="   M143.753,115.607c-16.997-35.9-23.238-65.324-13.749-70.799c9.424-5.441,31.501,14.324,53.918,46.539   c5.687,8.189,11.396,17.167,16.933,26.752c22.29,38.615,34.75,74.941,32.151,90.691c-0.585,3.547-1.927,6.049-4.1,7.305   c-1.949,1.119-4.431,1.173-7.338,0.256" fill="none" stroke="#000000" stroke-linecap="round" stroke-linejoin="round" stroke-miterlimit="10" stroke-width="4"/><path d="   M212.486,226.619c3.045,0.127,5.431-0.564,7.018-2.152c1.768-1.768,2.427-4.536,2.065-8.115   c-1.565-15.898-23.013-47.763-54.525-79.286c-7.828-7.827-15.677-15.026-23.291-21.458v-0.01   c-29.979-25.305-56.422-38.68-64.111-30.992c-7.753,7.754,5.9,34.569,31.629,64.857" fill="none" stroke="#000000" stroke-linecap="round" stroke-linejoin="round" stroke-miterlimit="10" stroke-width="4"/><path d="   M88.609,190.549c-32.684-22.6-52.801-44.963-47.315-54.451c5.431-9.426,34.451-3.345,69.978,13.365   c9.01,4.238,18.445,9.158,28.019,14.686c38.615,22.289,67.572,47.529,73.195,62.471c1.267,3.364,1.352,6.197,0.096,8.369   c-1.129,1.939-3.248,3.228-6.23,3.889" fill="none" stroke="#000000" stroke-linecap="round" stroke-linejoin="round" stroke-miterlimit="10" stroke-width="4"/><path d="   M203.625,252.316c2.695-1.416,4.42-3.207,4.995-5.367c0.649-2.418-0.17-5.145-2.269-8.072   c-9.297-12.973-43.791-29.852-86.858-41.396c-10.682-2.865-21.075-5.177-30.884-6.933c-0.01-0.012-0.01-0.012-0.01-0.012   c-38.626-6.933-68.211-5.293-71.022,5.219c-2.843,10.586,22.386,26.976,59.798,40.341" fill="none" stroke="#000000" stroke-linecap="round" stroke-linejoin="round" stroke-miterlimit="10" stroke-width="4"/><path d="   M78.301,283.008c-39.596-3.227-68.2-12.523-68.2-23.492c0-10.885,28.167-20.118,67.273-23.419   c9.936-0.831,20.564-1.288,31.629-1.288c44.579,0,82.278,7.369,94.621,17.508c2.78,2.278,4.271,4.696,4.271,7.2   c0,2.236-1.193,4.408-3.439,6.475" fill="none" stroke="#000000" stroke-linecap="round" stroke-linejoin="round" stroke-miterlimit="10" stroke-width="4"/><path d="   M208.789,278.992c1.64-2.576,2.237-4.982,1.652-7.145c-0.65-2.418-2.717-4.379-5.985-5.857   c-14.537-6.592-52.865-3.951-95.932,7.582c-10.692,2.863-20.852,6.059-30.223,9.436c-36.922,13.311-61.725,29.52-58.914,40.031   c2.843,10.596,32.886,12.174,71.959,5.037h0.011" fill="none" stroke="#000000" stroke-linecap="round" stroke-linejoin="round" stroke-miterlimit="10" stroke-width="4"/><path d="   M216.351,290.432c0.915-2.908,0.862-5.391-0.256-7.34c-1.256-2.172-3.76-3.514-7.306-4.1c-15.75-2.598-52.076,9.861-90.692,32.15   c-9.573,5.525-18.562,11.246-26.74,16.932h-0.011c-32.215,22.418-51.981,44.494-46.539,53.92   c5.473,9.488,34.898,3.248,70.798-13.748" fill="none" stroke="#000000" stroke-linecap="round" stroke-linejoin="round" stroke-miterlimit="10" stroke-width="4"/><path d="   M226.617,299.514c0.128-3.045-0.565-5.432-2.151-7.02c-1.768-1.766-4.538-2.426-8.115-2.063   c-15.9,1.564-47.764,23.012-79.286,54.523c-7.827,7.828-15.027,15.678-21.459,23.291h-0.01   c-25.303,29.979-38.68,56.422-30.99,64.111c7.752,7.754,34.569-5.9,64.855-31.629" fill="none" stroke="#000000" stroke-linecap="round" stroke-linejoin="round" stroke-miterlimit="10" stroke-width="4"/><path d="   M190.547,423.391c-22.598,32.684-44.962,52.801-54.452,47.316c-9.424-5.432-3.343-34.451,13.365-69.979   c4.239-9.01,9.159-18.445,14.686-28.02c22.29-38.615,47.529-67.572,62.471-73.193c3.365-1.268,6.198-1.354,8.371-0.098   c1.938,1.129,3.226,3.25,3.887,6.23" fill="none" stroke="#000000" stroke-linecap="round" stroke-linejoin="round" stroke-miterlimit="10" stroke-width="4"/><path d="   M252.315,308.375c-1.417-2.693-3.206-4.42-5.368-4.994c-2.417-0.648-5.144,0.17-8.072,2.268   c-12.971,9.297-29.85,43.791-41.395,86.859c-2.864,10.682-5.175,21.076-6.933,30.883c-0.011,0.012-0.011,0.012-0.011,0.012   c-6.933,38.627-5.292,68.211,5.219,71.021c10.585,2.844,26.976-22.385,40.341-59.797" fill="none" stroke="#000000" stroke-linecap="round" stroke-linejoin="round" stroke-miterlimit="10" stroke-width="4"/><path d="   M283.008,433.699c-3.229,39.584-12.525,68.199-23.496,68.199c-10.883,0-20.116-28.168-23.417-67.273   c-0.831-9.936-1.289-20.564-1.289-31.629c0-44.578,7.37-82.279,17.508-94.623c2.279-2.777,4.696-4.27,7.198-4.27   c2.238,0,4.412,1.191,6.477,3.439" fill="none" stroke="#000000" stroke-linecap="round" stroke-linejoin="round" stroke-miterlimit="10" stroke-width="4"/><path d="   M278.992,303.209c-2.578-1.641-4.984-2.236-7.146-1.65c-2.416,0.648-4.377,2.715-5.857,5.984   c-6.59,14.537-3.951,52.865,7.584,95.932c2.863,10.691,6.059,20.852,9.436,30.225c13.311,36.922,29.52,61.725,40.031,58.912   c10.596-2.844,12.172-32.885,5.037-71.959v-0.01" fill="none" stroke="#000000" stroke-linecap="round" stroke-linejoin="round" stroke-miterlimit="10" stroke-width="4"/><path d="   M290.429,295.649c-2.906-0.916-5.389-0.863-7.338,0.254c-2.172,1.258-3.514,3.76-4.102,7.307   c-2.596,15.75,9.863,52.076,32.152,90.691c5.525,9.574,11.246,18.563,16.932,26.74v0.012c22.418,32.215,44.494,51.98,53.92,46.537   c9.486-5.473,3.248-34.898-13.748-70.797" fill="none" stroke="#000000" stroke-linecap="round" stroke-linejoin="round" stroke-miterlimit="10" stroke-width="4"/><path d="   M299.513,285.383c-3.045-0.129-5.432,0.564-7.018,2.152c-1.768,1.766-2.428,4.537-2.066,8.115   c1.564,15.898,23.014,47.762,54.525,79.285c7.828,7.828,15.676,15.025,23.291,21.457v0.012c29.977,25.303,56.42,38.68,64.109,30.99   c7.754-7.752-5.898-34.568-31.627-64.854" fill="none" stroke="#000000" stroke-linecap="round" stroke-linejoin="round" stroke-miterlimit="10" stroke-width="4"/><path d="   M423.39,321.453c32.684,22.588,52.801,44.951,47.316,54.451c-5.432,9.426-34.451,3.344-69.979-13.367   c-9.01-4.236-18.445-9.158-28.02-14.684c-38.615-22.291-67.572-47.531-73.193-62.471c-1.268-3.365-1.355-6.199-0.098-8.371   c1.119-1.938,3.25-3.225,6.23-3.896" fill="none" stroke="#000000" stroke-linecap="round" stroke-linejoin="round" stroke-miterlimit="10" stroke-width="4"/><path d="   M308.375,259.686c-2.693,1.416-4.42,3.205-4.994,5.367c-0.65,2.416,0.158,5.145,2.268,8.061   c9.275,12.973,43.781,29.861,86.859,41.406c10.68,2.863,21.076,5.174,30.883,6.934c0.012,0.01,0.012,0.01,0.012,0.01   c38.627,6.934,68.211,5.295,71.021-5.217c2.844-10.586-22.385-26.975-59.797-40.342" fill="none" stroke="#000000" stroke-linecap="round" stroke-linejoin="round" stroke-miterlimit="10" stroke-width="4"/><path d="   M433.699,228.993c39.584,3.228,68.199,12.524,68.199,23.493c0,10.883-28.168,20.118-67.273,23.418   c-9.936,0.83-20.564,1.289-31.629,1.289c-44.58,0-82.279-7.371-94.623-17.508c-2.777-2.279-4.27-4.697-4.27-7.2   c0-2.236,1.191-4.409,3.439-6.475" fill="none" stroke="#000000" stroke-linecap="round" stroke-linejoin="round" stroke-miterlimit="10" stroke-width="4"/><path d="   M303.209,233.009c-1.641,2.577-2.236,4.983-1.65,7.146c0.648,2.417,2.715,4.377,5.984,5.857   c14.535,6.592,52.865,3.951,95.932-7.582c10.691-2.865,20.852-6.061,30.225-9.437c36.922-13.312,61.725-29.521,58.912-40.032   c-2.844-10.596-32.885-12.172-71.959-5.037h-0.01" fill="none" stroke="#000000" stroke-linecap="round" stroke-linejoin="round" stroke-miterlimit="10" stroke-width="4"/><path d="   M295.648,221.57c-0.916,2.907-0.863,5.389,0.254,7.338c1.258,2.172,3.76,3.514,7.307,4.101c15.75,2.598,52.076-9.862,90.691-32.151   c9.574-5.527,18.563-11.246,26.74-16.934h0.012c32.215-22.417,51.98-44.493,46.537-53.919c-5.473-9.489-34.898-3.247-70.797,13.749   " fill="none" stroke="#000000" stroke-linecap="round" stroke-linejoin="round" stroke-miterlimit="10" stroke-width="4"/><path d="   M285.381,212.486c-0.127,3.047,0.564,5.432,2.154,7.018c1.766,1.769,4.535,2.429,8.115,2.066   c15.898-1.564,47.762-23.014,79.285-54.525c7.828-7.827,15.025-15.676,21.457-23.291h0.012   c25.303-29.979,38.68-56.421,30.99-64.111c-7.752-7.752-34.568,5.9-64.855,31.619v0.011" fill="none" stroke="#000000" stroke-linecap="round" stroke-linejoin="round" stroke-miterlimit="10" stroke-width="4"/><path d="   M321.451,88.609c22.6-32.682,44.953-52.801,54.451-47.326c9.428,5.441,3.346,34.462-13.365,69.989   c-4.236,9.01-9.158,18.446-14.686,28.021c-22.289,38.614-47.529,67.57-62.471,73.193c-3.363,1.268-6.197,1.354-8.369,0.096   c-1.938-1.129-3.227-3.248-3.887-6.229" fill="none" stroke="#000000" stroke-linecap="round" stroke-linejoin="round" stroke-miterlimit="10" stroke-width="4"/><path d="   M259.683,203.625c1.418,2.695,3.207,4.42,5.367,4.996c2.418,0.649,5.145-0.171,8.074-2.269   c12.971-9.298,29.85-43.792,41.395-86.858c2.863-10.682,5.174-21.076,6.932-30.885c0.012-0.01,0.012-0.01,0.012-0.01   c6.934-38.625,5.295-68.211-5.217-71.033c-10.586-2.832-26.977,22.396-40.342,59.799" fill="none" stroke="#000000" stroke-linecap="round" stroke-linejoin="round" stroke-miterlimit="10" stroke-width="4"/></g><circle cx="460.142" cy="54.464" fill="#FECD0E" r="12"/><circle cx="88.862" cy="23.832" fill="#FECD0E" r="12"/><circle cx="31.17" cy="88.862" fill="#FECD0E" r="12"/><circle cx="40.396" cy="446.524" fill="#FECD0E" r="12"/><circle cx="362.492" cy="495.401" fill="#FECD0E" r="12"/><circle cx="479.122" cy="423.139" fill="#FECD0E" r="12"/><g><line fill="none" stroke="#FF50CE" stroke-miterlimit="10" stroke-width="5" x1="497.191" x2="479.122" y1="99.259" y2="117.33"/><line fill="none" stroke="#FF50CE" stroke-miterlimit="10" stroke-width="5" x1="479.122" x2="497.191" y1="99.259" y2="117.33"/></g><g><line fill="none" stroke="#FF50CE" stroke-miterlimit="10" stroke-width="5" x1="443.555" x2="425.486" y1="474.365" y2="492.436"/><line fill="none" stroke="#FF50CE" stroke-miterlimit="10" stroke-width="5" x1="425.486" x2="443.555" y1="474.365" y2="492.436"/></g><g><line fill="none" stroke="#FF50CE" stroke-miterlimit="10" stroke-width="5" x1="109.896" x2="91.827" y1="465.329" y2="483.401"/><line fill="none" stroke="#FF50CE" stroke-miterlimit="10" stroke-width="5" x1="91.827" x2="109.896" y1="465.329" y2="483.401"/></g><g><line fill="none" stroke="#FF50CE" stroke-miterlimit="10" stroke-width="5" x1="40.205" x2="22.135" y1="26.796" y2="44.867"/><line fill="none" stroke="#FF50CE" stroke-miterlimit="10" stroke-width="5" x1="22.135" x2="40.205" y1="26.796" y2="44.867"/></g><g><line fill="none" stroke="#FF50CE" stroke-miterlimit="10" stroke-width="5" x1="406.118" x2="388.049" y1="14.8" y2="32.871"/><line fill="none" stroke="#FF50CE" stroke-miterlimit="10" stroke-width="5" x1="388.049" x2="406.118" y1="14.8" y2="32.871"/></g></svg>