<?xml version="1.0" ?><!DOCTYPE svg  PUBLIC '-//W3C//DTD SVG 1.1//EN'  'http://www.w3.org/Graphics/SVG/1.1/DTD/svg11.dtd'><svg enable-background="new 0 0 512 512" height="512px" id="Calque_1" version="1.1" viewBox="0 0 512 512" width="512px" xml:space="preserve" xmlns="http://www.w3.org/2000/svg" xmlns:xlink="http://www.w3.org/1999/xlink"><polygon fill="#EF783C" points="265.191,347.372 314.11,396.29 314.11,327.11 285.454,327.11 "/><polygon fill="#EF783C" points="115.709,314.11 184.889,314.11 184.889,285.453 164.627,265.192 "/><polygon fill="#EF783C" points="246.807,164.625 197.89,115.709 197.89,184.889 226.542,184.889 "/><polygon fill="#EF783C" points="184.89,226.543 184.89,197.89 115.71,197.89 164.627,246.806 "/><polygon fill="#EF783C" points="197.889,396.289 246.806,347.372 226.543,327.11 197.889,327.11 "/><path d="M232.055,198.182c-4.368,6.41-3.722,15.238,1.959,20.919l1.372,1.372c3.121-1.818,6.498-3.24,10.067-4.189  v-1.919c0-4.401-1.713-8.538-4.824-11.649C238.256,200.342,235.284,198.789,232.055,198.182z" fill="#20ACC3"/><path d="M449.964,144.215c3.112-3.112,4.826-7.25,4.826-11.65c0.001-4.4-1.712-8.536-4.822-11.646l-58.885-58.884  c-3.111-3.111-7.248-4.825-11.648-4.825c-4.401,0-8.538,1.714-11.65,4.825l-40.674,40.673v82.182h82.179L449.964,144.215z" fill="#20ACC3"/><path d="M314.11,97.323V39.802c0-9.083-7.391-16.473-16.475-16.473h-83.271c-9.084,0-16.474,7.39-16.474,16.473  v57.521l58.109,58.109L314.11,97.323z" fill="#20ACC3"/><path d="M207.453,282.809c4.4,0,8.538-1.714,11.65-4.824l1.371-1.371c-1.818-3.12-3.24-6.497-4.189-10.067h-1.92  c-8.036,0-14.735,5.785-16.178,13.406C200.898,281.806,204.097,282.809,207.453,282.809z" fill="#20ACC3"/><polygon fill="#EF783C" points="396.29,197.889 327.11,197.889 327.11,226.546 347.372,246.808 "/><path d="M232.052,313.812c7.619-1.444,13.401-8.143,13.401-16.176v-1.921c-3.57-0.949-6.947-2.371-10.067-4.188  l-1.373,1.372C228.334,298.577,227.687,307.403,232.052,313.812z" fill="#20ACC3"/><polygon fill="#EF783C" points="327.11,314.11 396.29,314.11 347.372,265.193 327.11,285.454 "/><polygon fill="#EF783C" points="314.11,115.707 265.191,164.626 285.455,184.889 314.11,184.889 "/><polygon opacity="0.2" points="314.11,132.709 282.19,164.629 302.46,184.888 285.46,184.888 265.19,164.629 314.11,115.709 "/><polygon opacity="0.2" points="209.91,127.73 209.91,172.871 238.569,172.865 226.548,184.885 197.889,184.892 197.889,115.709 "/><polygon opacity="0.2" points="132.709,197.89 164.629,229.81 184.888,209.54 184.889,226.54 164.629,246.81 115.709,197.889 "/><polygon opacity="0.2" points="127.73,302.09 172.872,302.09 172.865,273.431 184.885,285.451 184.893,314.111 115.709,314.111 "/><polygon opacity="0.2" points="197.89,379.291 229.81,347.371 209.54,327.112 226.54,327.111 246.81,347.37 197.89,396.291 "/><polygon opacity="0.2" points="302.091,384.27 302.091,339.128 273.431,339.136 285.452,327.115 314.111,327.107 314.111,396.291   "/><polygon opacity="0.2" points="379.292,314.11 347.372,282.19 327.112,302.46 327.111,285.46 347.371,265.189 396.292,314.11 "/><polygon opacity="0.2" points="384.27,209.909 339.129,209.909 339.136,238.569 327.115,226.548 327.106,197.888 396.291,197.888   "/><path d="M295.716,266.546c-0.949,3.569-2.371,6.945-4.188,10.065l1.373,1.373c3.11,3.112,7.245,4.825,11.645,4.825  c3.356,0,6.557-1.003,9.269-2.856c-1.442-7.621-8.143-13.406-16.179-13.407H295.716z" fill="#20ACC3"/><path d="M304.547,229.191c-4.399,0-8.536,1.713-11.646,4.825l-1.373,1.373c1.817,3.121,3.24,6.497,4.188,10.066h1.92  c8.035,0,14.735-5.786,16.178-13.407C311.101,230.194,307.903,229.191,304.547,229.191z" fill="#20ACC3"/><path d="M216.284,245.454c0.949-3.57,2.371-6.947,4.189-10.068l-1.371-1.371c-3.111-3.112-7.248-4.825-11.649-4.825  c-3.356,0-6.555,1.003-9.267,2.856c1.442,7.622,8.142,13.409,16.177,13.409H216.284z" fill="#20ACC3"/><path d="M197.889,414.674v57.522c0.001,9.085,7.391,16.477,16.473,16.476h83.275c9.083,0,16.473-7.391,16.473-16.476  v-57.522l-58.111-58.109L197.889,414.674z" fill="#20ACC3"/><path d="M62.035,367.783c-3.111,3.112-4.825,7.249-4.825,11.649s1.714,8.537,4.825,11.647l58.883,58.883  c3.111,3.113,7.248,4.826,11.647,4.826c4.4,0,8.538-1.714,11.65-4.826l40.674-40.674v-82.18h-82.18L62.035,367.783z" fill="#20ACC3"/><path d="M472.197,197.889h-57.523L356.564,256l58.11,58.11h57.522c4.401,0,8.539-1.714,11.651-4.825  c3.111-3.111,4.824-7.247,4.824-11.646v-83.274c0-4.401-1.714-8.538-4.825-11.649C480.735,199.603,476.597,197.889,472.197,197.889z  " fill="#20ACC3"/><path d="M327.11,327.11v82.181l40.674,40.673c3.112,3.112,7.25,4.826,11.651,4.826c4.399,0,8.535-1.713,11.646-4.823  l58.883-58.883c3.113-3.112,4.827-7.249,4.826-11.65c0-4.4-1.714-8.537-4.825-11.648L409.29,327.11H327.11z" fill="#20ACC3"/><path d="M279.942,313.817c4.37-6.409,3.724-15.238-1.958-20.921l-1.37-1.37c-3.121,1.818-6.497,3.24-10.067,4.189  v1.921c-0.001,4.401,1.712,8.537,4.823,11.648C273.743,311.657,276.714,313.21,279.942,313.817z" fill="#20ACC3"/><path d="M279.955,198.187c-7.622,1.442-13.408,8.143-13.408,16.177v1.921c3.569,0.949,6.946,2.371,10.066,4.188  l1.371-1.371c3.112-3.111,4.825-7.248,4.825-11.649C282.809,204.097,281.807,200.898,279.955,198.187z" fill="#20ACC3"/><path d="M155.434,255.999L97.325,197.89l-57.522,0c-9.084,0-16.474,7.39-16.474,16.473v83.272  c0,4.4,1.713,8.537,4.825,11.648s7.249,4.825,11.649,4.825h57.521L155.434,255.999z" fill="#20ACC3"/><path d="M184.89,184.89v-82.181l-40.675-40.674c-3.111-3.111-7.248-4.824-11.648-4.824  c-4.401,0-8.538,1.713-11.649,4.825l-58.883,58.883c-3.112,3.112-4.826,7.248-4.826,11.648s1.714,8.537,4.826,11.648l40.675,40.675  H184.89z" fill="#20ACC3"/><g><path d="   M320.61,39.8v189.18c0,0.09,0,0.17-0.011,0.26c-0.13,12.57-10.369,22.71-22.97,22.71h-7.28c-0.75-6.52-3.319-12.48-7.199-17.38   c-1.67-2.13-3.591-4.05-5.721-5.72c-4.899-3.88-10.859-6.45-17.38-7.2c-1.33-0.16-2.68-0.24-4.05-0.24s-2.72,0.08-4.05,0.24   c-6.52,0.75-12.48,3.32-17.38,7.2c-2.13,1.67-4.05,3.59-5.72,5.72c-3.88,4.9-6.45,10.86-7.2,17.38h-7.29   c-12.6,0-22.83-10.14-22.96-22.71c-0.01-0.09-0.01-0.17-0.01-0.26V39.8c0-12.69,10.28-22.97,22.97-22.97h83.27   C310.32,16.83,320.61,27.11,320.61,39.8z" fill="none" stroke="#000000" stroke-linecap="round" stroke-linejoin="round" stroke-miterlimit="10" stroke-width="4"/><path d="   M282.58,223.7l-5.15,5.15c-4.899-3.88-10.859-6.45-17.38-7.2c-1.33-0.16-2.68-0.24-4.05-0.24s-2.72,0.08-4.05,0.24   c-6.52,0.75-12.48,3.32-17.38,7.2c-2.13,1.67-4.05,3.59-5.72,5.72c-3.88,4.9-6.45,10.86-7.2,17.38c-0.16,1.33-0.24,2.68-0.24,4.05   s0.08,2.72,0.24,4.05c0.76,6.521,3.33,12.48,7.2,17.38l-5.15,5.15c-8.92,8.91-23.32,8.97-32.3,0.18c-0.07-0.06-0.13-0.12-0.19-0.18   L57.44,148.81c-8.97-8.97-8.98-23.52,0-32.49l58.88-58.88c8.97-8.97,23.52-8.97,32.49,0l133.77,133.77   c0.06,0.06,0.12,0.12,0.18,0.19C291.55,200.38,291.49,214.79,282.58,223.7z" fill="none" stroke="#000000" stroke-linecap="round" stroke-linejoin="round" stroke-miterlimit="10" stroke-width="4"/><path d="   M221.65,251.95c-0.16,1.33-0.24,2.68-0.24,4.05s0.08,2.72,0.24,4.05c0.76,6.521,3.33,12.48,7.2,17.38   c1.67,2.12,3.59,4.051,5.72,5.721c4.9,3.88,10.86,6.449,17.38,7.199v7.29c0,12.591-10.14,22.83-22.71,22.96   c-0.09,0.011-0.17,0.011-0.26,0.011H39.8c-12.69,0-22.97-10.29-22.97-22.971v-83.28c0-12.69,10.29-22.97,22.97-22.97h189.18   c0.09,0,0.17,0,0.26,0.01c12.57,0.13,22.71,10.36,22.71,22.96v7.29c-6.52,0.75-12.48,3.32-17.38,7.2   c-2.13,1.67-4.05,3.59-5.72,5.72C224.97,239.47,222.4,245.43,221.65,251.95z" fill="none" stroke="#000000" stroke-linecap="round" stroke-linejoin="round" stroke-miterlimit="10" stroke-width="4"/><path d="   M282.76,320.6c-0.06,0.07-0.12,0.131-0.18,0.19L256,347.37l-64.61,64.61l-42.58,42.579c-8.97,8.971-23.52,8.971-32.49,0   l-58.88-58.88c-8.97-8.97-8.97-23.52,0-32.489l42.58-42.58L164.63,256l26.58-26.58c0.06-0.06,0.12-0.12,0.19-0.18   c8.98-8.79,23.39-8.73,32.3,0.18l5.15,5.15c-3.88,4.9-6.45,10.86-7.2,17.38c-0.16,1.33-0.24,2.68-0.24,4.05s0.08,2.72,0.24,4.05   c0.76,6.521,3.33,12.48,7.2,17.38c1.67,2.12,3.59,4.051,5.72,5.721c4.9,3.88,10.86,6.449,17.38,7.199   c1.33,0.16,2.68,0.24,4.05,0.24s2.72-0.08,4.05-0.24c6.521-0.75,12.48-3.319,17.38-7.199l5.15,5.149   C291.49,297.21,291.55,311.62,282.76,320.6z" fill="none" stroke="#000000" stroke-linecap="round" stroke-linejoin="round" stroke-miterlimit="10" stroke-width="4"/><path d="   M320.61,283.02V472.2c0,12.68-10.29,22.97-22.98,22.97h-83.27c-12.68,0-22.97-10.29-22.97-22.97V283.02c0-0.09,0-0.17,0.01-0.26   c0.13-12.569,10.37-22.72,22.96-22.71h7.29c0.76,6.521,3.33,12.48,7.2,17.38c1.67,2.12,3.59,4.051,5.72,5.721   c4.9,3.88,10.86,6.449,17.38,7.199c1.33,0.16,2.68,0.24,4.05,0.24s2.72-0.08,4.05-0.24c6.521-0.75,12.48-3.319,17.38-7.199   c2.13-1.67,4.051-3.601,5.721-5.721c3.869-4.899,6.439-10.859,7.199-17.38h7.28c12.601,0,22.84,10.141,22.97,22.71   C320.61,282.85,320.61,282.93,320.61,283.02z" fill="none" stroke="#000000" stroke-linecap="round" stroke-linejoin="round" stroke-miterlimit="10" stroke-width="4"/><path d="   M454.559,395.68l-58.88,58.88c-8.97,8.971-23.52,8.971-32.489,0l-42.58-42.579l-91.19-91.19c-0.06-0.06-0.12-0.12-0.18-0.19   c-8.79-8.979-8.73-23.39,0.18-32.3l5.15-5.149c4.9,3.88,10.86,6.449,17.38,7.199c1.33,0.16,2.68,0.24,4.05,0.24   s2.72-0.08,4.05-0.24c6.521-0.75,12.48-3.319,17.38-7.199c2.13-1.67,4.051-3.601,5.721-5.721c3.869-4.899,6.439-10.859,7.199-17.38   c0.16-1.33,0.24-2.68,0.24-4.05s-0.08-2.72-0.24-4.05c-0.75-6.52-3.319-12.48-7.199-17.38l5.149-5.15   c8.91-8.91,23.32-8.97,32.3-0.18c0.07,0.06,0.131,0.12,0.19,0.18l91.19,91.19l42.579,42.58   C463.53,372.16,463.53,386.71,454.559,395.68z" fill="none" stroke="#000000" stroke-linecap="round" stroke-linejoin="round" stroke-miterlimit="10" stroke-width="4"/><path d="   M495.17,214.36v83.28c0,12.681-10.28,22.971-22.97,22.971H283.019c-0.09,0-0.17,0-0.26-0.011   c-12.569-0.13-22.72-10.369-22.71-22.96v-7.29c6.521-0.75,12.48-3.319,17.38-7.199c2.13-1.67,4.051-3.601,5.721-5.721   c3.869-4.899,6.439-10.859,7.199-17.38c0.16-1.33,0.24-2.68,0.24-4.05s-0.08-2.72-0.24-4.05c-0.75-6.52-3.319-12.48-7.199-17.38   c-1.67-2.13-3.591-4.05-5.721-5.72c-4.899-3.88-10.859-6.45-17.38-7.2v-7.29c0-12.6,10.141-22.83,22.71-22.96   c0.09-0.01,0.17-0.01,0.26-0.01H472.2C484.88,191.39,495.17,201.67,495.17,214.36z" fill="none" stroke="#000000" stroke-linecap="round" stroke-linejoin="round" stroke-miterlimit="10" stroke-width="4"/><path d="   M454.559,148.81l-42.579,42.58L347.37,256l-26.58,26.58c-0.06,0.06-0.12,0.12-0.19,0.18c-8.979,8.79-23.39,8.73-32.3-0.18   l-5.149-5.15c3.869-4.899,6.439-10.859,7.199-17.38c0.16-1.33,0.24-2.68,0.24-4.05s-0.08-2.72-0.24-4.05   c-0.75-6.52-3.319-12.48-7.199-17.38c-1.67-2.13-3.591-4.05-5.721-5.72c-4.899-3.88-10.859-6.45-17.38-7.2   c-1.33-0.16-2.68-0.24-4.05-0.24s-2.72,0.08-4.05,0.24c-6.52,0.75-12.48,3.32-17.38,7.2l-5.15-5.15   c-8.91-8.92-8.97-23.32-0.18-32.3c0.06-0.07,0.12-0.13,0.18-0.19L256,164.63l64.61-64.61l42.58-42.58   c8.97-8.97,23.52-8.98,32.489,0l58.88,58.88C463.53,125.29,463.53,139.84,454.559,148.81z" fill="none" stroke="#000000" stroke-linecap="round" stroke-linejoin="round" stroke-miterlimit="10" stroke-width="4"/></g><circle cx="256" cy="255.999" fill="#EF783C" r="27.744"/><g><path d="M242.001,370.563l14-14l58.109,58.111v57.529c0,9.08-7.39,16.471-16.47,16.471h-27.999   c9.079,0,16.47-7.391,16.47-16.471v-57.529L242.001,370.563z" opacity="0.2"/><path d="M270,141.437l-14,14l-58.11-58.111v-57.53c0-9.079,7.39-16.47,16.47-16.47h28   c-9.08,0-16.469,7.391-16.469,16.47v57.53L270,141.437z" opacity="0.2"/></g><g><path d="M327.109,346.907v-19.8l82.181,0.002l40.679,40.68c6.421,6.42,6.422,16.871,0.001,23.292l-19.798,19.798   c6.42-6.42,6.42-16.871-0.001-23.292l-40.68-40.68H327.109z" opacity="0.2"/><path d="M184.891,165.092v19.799l-82.181-0.001l-40.68-40.68c-6.42-6.42-6.421-16.871,0-23.292l19.798-19.798   c-6.42,6.42-6.419,16.871,0,23.291l40.68,40.68L184.891,165.092z" opacity="0.2"/></g><g><path d="M370.563,269.999l-14.001-14l58.112-58.109l57.529,0c9.079,0,16.471,7.389,16.471,16.469v27.999   c0-9.079-7.391-16.469-16.471-16.469h-57.53L370.563,269.999z" opacity="0.2"/><path d="M141.437,242l14,14L97.326,314.11h-57.53c-9.079,0-16.47-7.389-16.47-16.47v-27.999   c0,9.079,7.391,16.469,16.47,16.469h57.53L141.437,242z" opacity="0.2"/></g><g><path d="M346.908,184.891h-19.801l0.003-82.181l40.68-40.679c6.42-6.42,16.871-6.422,23.292-0.001l19.798,19.798   c-6.42-6.42-16.871-6.42-23.292,0.001l-40.68,40.68V184.891z" opacity="0.2"/><path d="M165.093,327.11l19.799-0.001l-0.001,82.181l-40.68,40.68c-6.42,6.42-16.871,6.422-23.292,0l-19.798-19.798   c6.42,6.42,16.871,6.419,23.291-0.001l40.68-40.68L165.093,327.11z" opacity="0.2"/></g><circle cx="466.785" cy="483.17" fill="#20ACC3" r="12"/><circle cx="488.673" cy="101.12" fill="#20ACC3" r="12"/><circle cx="410.88" cy="23.329" fill="#20ACC3" r="12"/><circle cx="143.006" cy="16.83" fill="#20ACC3" r="12"/><circle cx="50.709" cy="35.329" fill="#20ACC3" r="12"/><circle cx="50.709" cy="461.288" fill="#20ACC3" r="12"/><g><line fill="none" stroke="#EF783C" stroke-miterlimit="10" stroke-width="5" x1="365.596" x2="347.527" y1="477.099" y2="495.17"/><line fill="none" stroke="#EF783C" stroke-miterlimit="10" stroke-width="5" x1="347.527" x2="365.596" y1="477.099" y2="495.17"/></g><g><line fill="none" stroke="#EF783C" stroke-miterlimit="10" stroke-width="5" x1="140.041" x2="121.971" y1="479.639" y2="497.71"/><line fill="none" stroke="#EF783C" stroke-miterlimit="10" stroke-width="5" x1="121.971" x2="140.041" y1="479.639" y2="497.71"/></g><g><line fill="none" stroke="#EF783C" stroke-miterlimit="10" stroke-width="5" x1="41.395" x2="23.326" y1="349.947" y2="368.018"/><line fill="none" stroke="#EF783C" stroke-miterlimit="10" stroke-width="5" x1="23.326" x2="41.395" y1="349.947" y2="368.018"/></g><g><line fill="none" stroke="#EF783C" stroke-miterlimit="10" stroke-width="5" x1="497.709" x2="479.639" y1="389.673" y2="407.744"/><line fill="none" stroke="#EF783C" stroke-miterlimit="10" stroke-width="5" x1="479.639" x2="497.709" y1="389.673" y2="407.744"/></g><g><line fill="none" stroke="#EF783C" stroke-miterlimit="10" stroke-width="5" x1="475.819" x2="457.75" y1="28.714" y2="46.785"/><line fill="none" stroke="#EF783C" stroke-miterlimit="10" stroke-width="5" x1="457.75" x2="475.819" y1="28.714" y2="46.785"/></g><g><line fill="none" stroke="#EF783C" stroke-miterlimit="10" stroke-width="5" x1="41.395" x2="23.326" y1="82.765" y2="100.837"/><line fill="none" stroke="#EF783C" stroke-miterlimit="10" stroke-width="5" x1="23.326" x2="41.395" y1="82.765" y2="100.837"/></g></svg>