<?xml version="1.0" ?><!DOCTYPE svg  PUBLIC '-//W3C//DTD SVG 1.1//EN'  'http://www.w3.org/Graphics/SVG/1.1/DTD/svg11.dtd'><svg enable-background="new 0 0 512 512" height="512px" id="Calque_1" version="1.1" viewBox="0 0 512 512" width="512px" xml:space="preserve" xmlns="http://www.w3.org/2000/svg" xmlns:xlink="http://www.w3.org/1999/xlink"><path d="M363.892,156.029c-1.812,15.967-7.75,32.476-17.662,49.128c1.031,1.825,2.015,3.685,2.935,5.576  c14.194,3.84,28.33,12.944,42.067,27.117c2.995,3.085,5.818,6.218,8.48,9.357c13.634-12.76,22.152-29.737,25.315-50.589  c7.155-47.352-14.852-102.198-23.927-122.212c-18.579,16.22-35.154,20.845-50.603,22.19  C361.701,115.406,366.22,135.346,363.892,156.029z" fill="#EA6226"/><path d="M366.508,364.489c-3.489,0-7.001-0.198-10.536-0.597c-15.97-1.813-32.479-7.75-49.129-17.662  c-1.823,1.03-3.683,2.015-5.576,2.935c-3.838,14.192-12.941,28.328-27.115,42.067c-3.091,2.998-6.223,5.821-9.358,8.48  c12.761,13.634,29.737,22.152,50.589,25.316c47.341,7.162,102.194-14.85,122.212-23.928c-16.216-18.574-20.843-35.145-22.188-50.589  C399.809,359.799,383.435,364.489,366.508,364.489z" fill="#EA6226"/><path d="M402.971,261.585c-12.563,10.003-28.427,17.478-47.203,22.251c-0.56,2.018-1.181,4.028-1.871,6.018  c7.314,12.756,10.873,29.191,10.572,48.93c-0.069,4.387-0.289,8.598-0.623,12.635c18.658,0.604,36.694-5.384,53.67-17.894  c38.535-28.413,61.749-82.752,69.481-103.319c-24.578-1.67-39.573-10.124-51.463-20.098  C430.151,231.332,419.243,248.62,402.971,261.585z" fill="#EA6226"/><path d="M250.414,402.971c-10.002-12.561-17.477-28.425-22.249-47.202c-2.021-0.561-4.032-1.181-6.022-1.872  c-12.257,7.028-27.914,10.59-46.633,10.59c-0.761,0-1.524-0.006-2.295-0.018c-4.382-0.069-8.593-0.288-12.633-0.623  c-0.605,18.665,5.383,36.693,17.894,53.671c28.456,38.59,82.762,61.769,103.319,69.485c1.67-24.583,10.124-39.577,20.099-51.466  C280.669,430.151,263.38,419.243,250.414,402.971z" fill="#EA6226"/><path d="M148.109,355.971c1.812-15.972,7.75-32.481,17.663-49.129c-1.034-1.828-2.018-3.688-2.936-5.576  c-14.191-3.837-28.327-12.941-42.066-27.115c-2.996-3.087-5.82-6.219-8.481-9.357c-13.635,12.761-22.153,29.738-25.316,50.588  c-7.154,47.35,14.853,102.197,23.927,122.212c18.58-16.222,35.154-20.846,50.603-22.189  C150.299,396.59,145.779,376.651,148.109,355.971z" fill="#EA6226"/><path d="M156.03,148.108c15.968,1.811,32.477,7.75,49.127,17.663c1.83-1.034,3.689-2.018,5.576-2.935  c3.839-14.193,12.943-28.329,27.116-42.067c3.086-2.996,6.218-5.82,9.357-8.481c-12.761-13.634-29.738-22.153-50.589-25.314  c-47.423-7.168-102.22,14.842-122.216,23.921c16.225,18.582,20.849,35.158,22.195,50.607  C115.408,150.299,135.347,145.78,156.03,148.108z" fill="#EA6226"/><path d="M109.031,250.414c12.56-10.002,28.424-17.477,47.201-22.249c0.56-2.018,1.181-4.028,1.871-6.019  c-7.314-12.753-10.873-29.189-10.573-48.93c0.069-4.38,0.289-8.592,0.625-12.635c-18.666-0.606-36.692,5.383-53.669,17.893  c-38.535,28.416-61.75,82.754-69.483,103.321c24.581,1.67,39.574,10.125,51.463,20.1C81.849,280.67,92.757,263.38,109.031,250.414z" fill="#EA6226"/><path d="M307.509,166.169c0.269,0.155,0.54,0.303,0.808,0.46c0.157,0.093,0.315,0.185,0.473,0.278  c0.355,0.212,0.705,0.434,1.059,0.65c0.593,0.363,1.188,0.723,1.774,1.098c0.078,0.05,0.156,0.101,0.235,0.151  c0.344,0.221,0.68,0.452,1.021,0.677c0.587,0.387,1.174,0.774,1.752,1.173c0.163,0.112,0.327,0.223,0.489,0.335  c0.249,0.174,0.492,0.356,0.74,0.533c0.535,0.38,1.068,0.761,1.597,1.151c0.284,0.211,0.568,0.423,0.851,0.637  c0.25,0.188,0.499,0.378,0.747,0.569c0.388,0.299,0.774,0.601,1.159,0.905c0.388,0.308,0.772,0.62,1.156,0.933  c0.054,0.044,0.109,0.087,0.163,0.132c0.184,0.15,0.372,0.296,0.555,0.448c0.273,0.227,0.541,0.46,0.813,0.69  c0.382,0.324,0.761,0.65,1.138,0.979c0.331,0.289,0.665,0.575,0.993,0.869c0.188,0.167,0.37,0.34,0.556,0.509  c0.35,0.316,0.696,0.635,1.04,0.957c0.421,0.393,0.839,0.789,1.253,1.188c0.195,0.188,0.393,0.373,0.586,0.562  c0.225,0.22,0.446,0.444,0.669,0.667c0.466,0.464,0.924,0.935,1.381,1.407c0.239,0.248,0.485,0.488,0.723,0.738  c0.067,0.071,0.131,0.145,0.197,0.216c0.043,0.045,0.083,0.091,0.126,0.137c0.452,0.481,0.896,0.971,1.339,1.461  c0.332,0.368,0.667,0.734,0.994,1.107c0.084,0.095,0.171,0.188,0.254,0.284c0.358,0.411,0.705,0.833,1.057,1.249  c0.318,0.377,0.64,0.751,0.953,1.132c0.162,0.198,0.322,0.396,0.483,0.595c0.228,0.282,0.447,0.569,0.672,0.854  c0.041,0.051,0.082,0.103,0.122,0.155c0.249,0.316,0.507,0.625,0.752,0.943c5.856-10.861,9.8-21.546,11.788-31.92  c-3.639-0.293-7.435-0.487-11.394-0.55c-12.732-0.193-23.725,1.348-32.91,4.594c0.035,0.019,0.069,0.04,0.104,0.06  c0.282,0.155,0.559,0.321,0.84,0.479C306.914,165.827,307.212,165.998,307.509,166.169z" fill="#EA6226"/><path d="M230.906,155.5c0.867-0.216,1.737-0.421,2.61-0.615c0.206-0.045,0.41-0.096,0.616-0.14  c1.064-0.229,2.132-0.439,3.204-0.634c0.287-0.052,0.575-0.099,0.863-0.148c0.821-0.142,1.644-0.275,2.47-0.397  c0.33-0.049,0.659-0.098,0.989-0.144c0.966-0.133,1.936-0.255,2.908-0.361c0.128-0.014,0.256-0.032,0.385-0.045  c1.093-0.115,2.19-0.209,3.291-0.29c0.31-0.023,0.621-0.041,0.931-0.061c0.833-0.054,1.668-0.098,2.505-0.132  c0.325-0.013,0.65-0.027,0.977-0.038c0.196-0.006,0.391-0.018,0.586-0.023c0.917-0.023,1.835-0.036,2.755-0.036  c0.001,0,0.002,0,0.003,0h0h0c1.08,0,2.158,0.019,3.235,0.052c0.357,0.011,0.713,0.032,1.069,0.046  c0.722,0.03,1.442,0.061,2.162,0.105c0.42,0.026,0.84,0.061,1.259,0.092c0.654,0.048,1.309,0.099,1.96,0.159  c0.442,0.041,0.884,0.088,1.324,0.135c0.632,0.067,1.263,0.138,1.893,0.216c0.214,0.026,0.429,0.045,0.643,0.073  c-3.54-11.804-8.321-22.114-14.244-30.847c-2.813,2.397-5.623,4.937-8.4,7.633c-9.118,8.838-15.812,17.703-20.009,26.479  c0.191-0.056,0.385-0.103,0.576-0.158c0.811-0.232,1.623-0.456,2.439-0.667C230.239,155.668,230.572,155.583,230.906,155.5z" fill="#EA6226"/><path d="M351.471,338.581c0.193-12.711-1.348-23.726-4.593-32.911c-0.016,0.029-0.033,0.058-0.049,0.086  c-0.199,0.362-0.41,0.717-0.613,1.076c-0.121,0.213-0.242,0.426-0.364,0.638c-0.164,0.285-0.322,0.574-0.489,0.857  c-0.085,0.144-0.168,0.288-0.254,0.432c-0.254,0.427-0.52,0.847-0.779,1.271c-0.323,0.525-0.642,1.053-0.974,1.572  c-0.051,0.08-0.102,0.161-0.153,0.241c-0.258,0.4-0.527,0.794-0.79,1.19c-0.343,0.518-0.684,1.035-1.036,1.547  c-0.127,0.184-0.251,0.369-0.379,0.553c-0.175,0.25-0.358,0.494-0.535,0.743c-0.013,0.017-0.025,0.034-0.037,0.051  c-0.35,0.492-0.7,0.983-1.059,1.469c-0.229,0.311-0.459,0.619-0.691,0.926c-0.194,0.258-0.392,0.514-0.589,0.77  c-0.271,0.353-0.544,0.703-0.82,1.052c-0.345,0.438-0.696,0.869-1.049,1.301c-0.182,0.224-0.358,0.451-0.543,0.673  c-0.197,0.237-0.401,0.471-0.601,0.707c-0.369,0.436-0.742,0.868-1.118,1.298c-0.255,0.291-0.507,0.586-0.765,0.874  c-0.174,0.195-0.352,0.386-0.527,0.579c-0.342,0.377-0.687,0.75-1.034,1.122c-0.356,0.382-0.716,0.76-1.078,1.137  c-0.2,0.207-0.396,0.418-0.598,0.624c-0.242,0.247-0.489,0.49-0.733,0.735c-0.413,0.413-0.831,0.82-1.251,1.227  c-0.28,0.271-0.554,0.551-0.837,0.819c-0.062,0.059-0.126,0.114-0.188,0.172c-0.069,0.066-0.143,0.13-0.213,0.195  c-0.429,0.402-0.865,0.797-1.301,1.192c-0.404,0.366-0.807,0.734-1.217,1.095c-0.104,0.093-0.208,0.188-0.313,0.279  c-0.36,0.313-0.73,0.616-1.095,0.925c-0.43,0.363-0.855,0.729-1.291,1.087c-0.175,0.144-0.352,0.286-0.528,0.429  c-0.313,0.253-0.632,0.498-0.947,0.747c-0.348,0.274-0.687,0.557-1.037,0.826c10.859,5.856,21.545,9.799,31.921,11.787  C351.216,346.338,351.408,342.543,351.471,338.581z" fill="#EA6226"/><path d="M261.585,109.03c10.003,12.565,17.479,28.429,22.251,47.202c2.016,0.56,4.025,1.18,6.018,1.871  c12.757-7.316,29.195-10.882,48.93-10.574c4.384,0.07,8.596,0.29,12.636,0.625c0.605-18.667-5.384-36.695-17.894-53.668  c-28.455-38.591-82.763-61.771-103.321-69.488c-1.669,24.584-10.124,39.579-20.099,51.468  C231.33,81.848,248.62,92.756,261.585,109.03z" fill="#EA6226"/><path d="M313.976,149.536c-9.09,1.73-17.16,4.61-24.119,8.61c-1.99-0.7-4-1.32-6.01-1.87  c-4.781-18.78-12.25-34.64-22.25-47.21c-12.971-16.27-30.261-27.18-51.481-32.56c9.97-11.891,18.43-26.891,20.101-51.471  c6.979,2.62,17.869,7.04,30.31,13.221c-3.311,17.04-10.371,28.659-18.411,38.25c21.219,5.38,38.51,16.29,51.481,32.56  C302.377,120.107,309.207,133.677,313.976,149.536z" opacity="0.2"/><path d="M221.714,139.723c-5.204,7.651-8.874,15.394-10.966,23.143c-1.903,0.912-3.762,1.895-5.572,2.927  c-16.66-9.899-33.156-15.832-49.115-17.649c-20.677-2.332-40.617,2.179-59.426,13.379c-1.358-15.458-5.983-32.046-22.182-50.608  c6.788-3.083,17.613-7.657,30.781-12.084c9.708,14.39,12.932,27.598,14.029,40.065c18.808-11.2,38.75-15.712,59.425-13.379  C192.702,127.115,207.127,131.882,221.714,139.723z" opacity="0.2"/><path d="M149.536,198.024c1.73,9.09,4.61,17.16,8.61,24.119c-0.701,1.99-1.32,4-1.871,6.01  c-18.78,4.781-34.639,12.25-47.209,22.25c-16.27,12.972-27.18,30.262-32.56,51.48c-11.891-9.969-26.891-18.43-51.471-20.1  c2.62-6.979,7.04-17.869,13.221-30.311c17.04,3.311,28.659,10.371,38.25,18.41c5.379-21.219,16.29-38.51,32.559-51.48  C120.106,209.623,133.677,202.793,149.536,198.024z" opacity="0.2"/><path d="M139.723,290.286c7.65,5.204,15.394,8.874,23.143,10.966c0.912,1.903,1.895,3.762,2.927,5.572  c-9.898,16.66-15.832,33.155-17.649,49.115c-2.332,20.677,2.179,40.617,13.379,59.426c-15.457,1.358-32.046,5.982-50.607,22.183  c-3.083-6.788-7.658-17.613-12.084-30.781c14.39-9.708,27.599-12.932,40.064-14.029c-11.2-18.808-15.711-38.749-13.379-59.425  C127.115,319.298,131.881,304.872,139.723,290.286z" opacity="0.2"/><path d="M198.024,362.464c9.089-1.729,17.16-4.61,24.119-8.61c1.991,0.701,4,1.32,6.009,1.871  c4.781,18.779,12.25,34.639,22.25,47.209c12.972,16.27,30.262,27.18,51.48,32.56c-9.969,11.891-18.43,26.891-20.1,51.471  c-6.979-2.62-17.869-7.04-30.311-13.221c3.311-17.04,10.371-28.659,18.41-38.25c-21.219-5.38-38.51-16.29-51.481-32.559  C209.623,391.894,202.792,378.323,198.024,362.464z" opacity="0.2"/><path d="M290.286,372.277c5.204-7.649,8.874-15.394,10.966-23.143c1.903-0.912,3.762-1.895,5.572-2.926  c16.66,9.897,33.155,15.831,49.115,17.647c20.677,2.332,40.617-2.179,59.426-13.379c1.358,15.457,5.982,32.047,22.183,50.608  c-6.788,3.082-17.614,7.657-30.781,12.084c-9.708-14.391-12.932-27.599-14.029-40.064c-18.808,11.199-38.749,15.712-59.425,13.38  C319.298,384.885,304.872,380.119,290.286,372.277z" opacity="0.2"/><path d="M362.464,313.976c-1.729-9.089-4.61-17.159-8.61-24.118c0.701-1.99,1.32-3.999,1.871-6.009  c18.779-4.782,34.639-12.25,47.209-22.251c16.27-12.972,27.18-30.261,32.56-51.481c11.891,9.969,26.891,18.431,51.471,20.1  c-2.62,6.979-7.04,17.87-13.221,30.311c-17.04-3.312-28.659-10.371-38.25-18.41c-5.38,21.218-16.29,38.509-32.559,51.481  C391.893,302.377,378.323,309.208,362.464,313.976z" opacity="0.2"/><path d="M372.276,221.714c-7.65-5.204-15.394-8.873-23.143-10.965c-0.912-1.903-1.895-3.761-2.926-5.572  c9.897-16.66,15.831-33.155,17.647-49.115c2.332-20.677-2.179-40.617-13.379-59.426c15.457-1.358,32.047-5.982,50.608-22.182  c3.082,6.788,7.657,17.614,12.084,30.781c-14.391,9.708-27.599,12.931-40.064,14.029c11.199,18.808,15.711,38.749,13.38,59.425  C384.885,192.702,380.119,207.128,372.276,221.714z" opacity="0.2"/><path d="M281.116,356.496c-0.887,0.221-1.777,0.431-2.67,0.629c-0.19,0.042-0.38,0.088-0.57,0.129  c-1.068,0.23-2.142,0.441-3.219,0.637c-0.281,0.052-0.563,0.097-0.846,0.146c-0.826,0.144-1.654,0.276-2.484,0.399  c-0.328,0.049-0.655,0.098-0.984,0.143c-0.966,0.134-1.935,0.255-2.906,0.361c-0.13,0.015-0.259,0.032-0.39,0.046  c-1.093,0.115-2.19,0.21-3.29,0.29c-0.31,0.023-0.62,0.041-0.931,0.061c-0.832,0.054-1.666,0.098-2.502,0.132  c-0.327,0.014-0.653,0.028-0.98,0.038c-1.112,0.035-2.226,0.059-3.344,0.059c-1.081,0-2.161-0.02-3.239-0.053  c-0.348-0.011-0.694-0.031-1.042-0.045c-0.731-0.03-1.462-0.062-2.191-0.106c-0.412-0.025-0.823-0.06-1.234-0.09  c-0.664-0.049-1.326-0.1-1.987-0.161c-0.437-0.041-0.871-0.088-1.307-0.134c-0.633-0.066-1.265-0.138-1.896-0.216  c-0.216-0.027-0.433-0.046-0.648-0.074c3.541,11.806,8.32,22.115,14.242,30.847c2.811-2.396,5.621-4.936,8.403-7.634  c9.117-8.837,15.811-17.701,20.008-26.479c-0.17,0.05-0.341,0.091-0.511,0.14c-0.842,0.242-1.686,0.474-2.532,0.693  C281.75,356.335,281.433,356.417,281.116,356.496z" fill="#EA6226"/><path d="M359.565,256L359.565,256c0,1.081-0.02,2.16-0.053,3.237c-0.011,0.352-0.031,0.702-0.046,1.054  c-0.029,0.728-0.061,1.456-0.105,2.182c-0.025,0.413-0.06,0.823-0.09,1.235c-0.049,0.662-0.1,1.324-0.161,1.985  c-0.041,0.437-0.087,0.872-0.134,1.309c-0.066,0.634-0.138,1.267-0.217,1.898c-0.026,0.214-0.045,0.431-0.073,0.645  c11.806-3.54,22.114-8.321,30.846-14.243c-2.397-2.813-4.937-5.624-7.632-8.4c-8.837-9.118-17.702-15.811-26.479-20.009  c0.052,0.176,0.095,0.354,0.146,0.531c0.238,0.832,0.468,1.666,0.685,2.502c0.084,0.323,0.167,0.646,0.248,0.97  c0.219,0.875,0.426,1.754,0.621,2.635c0.044,0.201,0.093,0.4,0.136,0.601c0.229,1.065,0.439,2.134,0.635,3.207  c0.053,0.288,0.099,0.577,0.148,0.865c0.143,0.819,0.274,1.64,0.396,2.463c0.049,0.333,0.099,0.665,0.145,0.998  c0.133,0.959,0.253,1.921,0.358,2.886c0.015,0.136,0.034,0.271,0.048,0.407c0.115,1.091,0.209,2.187,0.29,3.285  c0.023,0.312,0.041,0.625,0.062,0.938c0.053,0.83,0.097,1.661,0.131,2.494c0.014,0.328,0.028,0.656,0.038,0.985  c0.035,1.11,0.059,2.223,0.059,3.339C359.565,255.997,359.565,255.998,359.565,256L359.565,256z" fill="#EA6226"/><path d="M293.035,338.666c0.002-0.001,0.003-0.002,0.005-0.003c3.611-1.617,7.123-3.479,10.438-5.536  c0.003-0.002,0.007-0.003,0.01-0.005l0.004-0.003v-0.001c16.916-10.438,30.113-26.376,37.16-44.876l0.012-0.031  c1.412-3.685,2.575-7.47,3.457-11.25c0.001-0.005,0.003-0.009,0.004-0.014l0.005-0.021v-0.001  c1.616-6.775,2.437-13.816,2.437-20.926c0-12.899-2.658-25.358-7.899-37.034c-0.001-0.002-0.003-0.005-0.004-0.007  c-1.612-3.604-3.474-7.115-5.534-10.437c-0.001-0.001-0.002-0.003-0.003-0.005l-0.005-0.008c0,0-0.001-0.001-0.001-0.001  c-0.652-1.057-1.326-2.099-2.021-3.126c-10.419-15.414-25.51-27.425-42.854-34.032c-0.004-0.002-0.009-0.003-0.013-0.004  c-3.697-1.417-7.486-2.582-11.262-3.461l-0.042-0.01h-0.001c-6.774-1.617-13.815-2.437-20.927-2.437c-12.9,0-25.36,2.658-37.032,7.9  v0c0,0-0.001,0-0.001,0l-0.01,0.004c0,0,0,0-0.001,0c-3.581,1.6-7.093,3.462-10.436,5.534l-0.011,0.007  c-16.917,10.438-30.114,26.375-37.161,44.875l-0.001,0c-0.001,0.004-0.002,0.009-0.004,0.013c-1.413,3.688-2.577,7.475-3.459,11.254  l-0.012,0.051c0,0,0,0,0,0.001c-0.135,0.564-0.255,1.132-0.379,1.7c-1.36,6.246-2.057,12.702-2.057,19.225  c0,0.807,0.01,1.611,0.031,2.414c0.311,12.045,2.954,23.679,7.867,34.618l0.004,0.01c0,0.001,0,0.001,0.001,0.002  c1.603,3.585,3.463,7.095,5.531,10.429l0.01,0.017c6.889,11.163,16.183,20.692,27.016,27.918c5.583,3.724,11.568,6.848,17.86,9.244  l0.042,0.016c3.676,1.408,7.458,2.57,11.241,3.452c0.004,0.001,0.009,0.003,0.013,0.004l0.021,0.005l0-0.001  c6.775,1.616,13.816,2.437,20.925,2.437C268.901,346.564,281.361,343.906,293.035,338.666L293.035,338.666L293.035,338.666z" fill="#FECD0E"/><path d="M204.552,345.865c-0.294-0.169-0.591-0.332-0.883-0.504c-0.146-0.086-0.292-0.171-0.437-0.257  c-0.396-0.236-0.785-0.482-1.178-0.724c-0.555-0.341-1.112-0.677-1.661-1.027c-0.082-0.053-0.164-0.104-0.246-0.157  c-0.364-0.234-0.721-0.479-1.082-0.719c-0.562-0.371-1.124-0.741-1.678-1.123c-0.167-0.116-0.336-0.229-0.503-0.346  c-0.257-0.18-0.508-0.367-0.763-0.549c-0.522-0.371-1.043-0.743-1.559-1.124c-0.29-0.214-0.577-0.43-0.864-0.646  c-0.255-0.192-0.509-0.387-0.762-0.582c-0.38-0.293-0.758-0.588-1.135-0.886c-0.396-0.313-0.789-0.633-1.181-0.952  c-0.036-0.029-0.072-0.058-0.107-0.087c-0.201-0.165-0.406-0.323-0.606-0.489c-0.268-0.223-0.53-0.451-0.795-0.677  c-0.387-0.327-0.77-0.658-1.151-0.991c-0.327-0.284-0.655-0.566-0.978-0.854c-0.193-0.173-0.382-0.351-0.574-0.525  c-0.346-0.313-0.689-0.63-1.031-0.949c-0.417-0.389-0.832-0.781-1.243-1.178c-0.201-0.193-0.405-0.385-0.604-0.58  c-0.22-0.216-0.437-0.436-0.655-0.652c-0.473-0.471-0.938-0.948-1.401-1.428c-0.231-0.239-0.469-0.472-0.697-0.713  c-0.104-0.108-0.202-0.223-0.305-0.332c-0.007-0.008-0.014-0.016-0.021-0.022c-0.464-0.494-0.919-0.996-1.374-1.5  c-0.318-0.353-0.639-0.703-0.953-1.061c-0.09-0.103-0.183-0.201-0.273-0.304c-0.374-0.429-0.734-0.868-1.101-1.304  c-0.297-0.352-0.598-0.7-0.89-1.057c-0.166-0.202-0.33-0.404-0.494-0.607c-0.232-0.288-0.457-0.581-0.687-0.871  c-0.066-0.085-0.133-0.169-0.199-0.253c-0.219-0.28-0.447-0.552-0.664-0.834c-5.857,10.859-9.8,21.545-11.789,31.922  c3.637,0.293,7.432,0.486,11.39,0.549c12.717,0.191,23.727-1.348,32.913-4.593c-0.029-0.016-0.057-0.033-0.086-0.05  c-0.347-0.19-0.687-0.393-1.032-0.588C204.991,346.115,204.771,345.99,204.552,345.865z" fill="#EA6226"/><path d="M166.622,203.696c0.096-0.164,0.192-0.327,0.289-0.49c0.206-0.346,0.422-0.686,0.632-1.029  c0.369-0.604,0.735-1.208,1.116-1.804c0.048-0.074,0.095-0.148,0.143-0.223c0.222-0.345,0.455-0.683,0.681-1.026  c0.387-0.587,0.774-1.173,1.174-1.752c0.113-0.165,0.225-0.33,0.339-0.494c0.171-0.246,0.352-0.485,0.525-0.73  c0.38-0.535,0.761-1.069,1.151-1.597c0.213-0.288,0.428-0.575,0.645-0.861c0.188-0.249,0.376-0.496,0.566-0.742  c0.298-0.387,0.598-0.771,0.9-1.153c0.311-0.393,0.627-0.781,0.943-1.169c0.042-0.051,0.082-0.103,0.124-0.153  c0.152-0.185,0.297-0.374,0.45-0.558c0.226-0.272,0.458-0.538,0.687-0.808c0.325-0.383,0.653-0.764,0.984-1.143  c0.289-0.331,0.575-0.665,0.868-0.992c0.167-0.187,0.339-0.37,0.508-0.556c0.316-0.348,0.634-0.694,0.955-1.038  c0.394-0.422,0.791-0.841,1.191-1.256c0.188-0.195,0.374-0.393,0.563-0.586c0.217-0.222,0.438-0.441,0.658-0.661  c0.473-0.474,0.952-0.941,1.433-1.406c0.24-0.231,0.472-0.469,0.714-0.698c0.088-0.083,0.18-0.163,0.268-0.246  c0.025-0.024,0.052-0.047,0.077-0.07c0.499-0.469,1.005-0.928,1.513-1.387c0.352-0.317,0.702-0.637,1.058-0.95  c0.097-0.085,0.191-0.174,0.289-0.259c0.438-0.383,0.889-0.753,1.334-1.128c0.342-0.288,0.681-0.58,1.026-0.864  c0.209-0.172,0.42-0.342,0.63-0.513c0.269-0.217,0.543-0.427,0.814-0.642c0.116-0.092,0.231-0.183,0.347-0.274  c0.262-0.206,0.518-0.419,0.782-0.623c-10.861-5.857-21.546-9.8-31.92-11.789c-0.294,3.64-0.487,7.436-0.55,11.392  c-0.193,12.711,1.348,23.726,4.593,32.911c0.021-0.039,0.044-0.077,0.066-0.116c0.133-0.242,0.275-0.478,0.41-0.719  c0.196-0.349,0.396-0.697,0.595-1.043C166.336,204.199,166.475,203.945,166.622,203.696z" fill="#EA6226"/><path d="M152.535,251.709c0.029-0.728,0.061-1.455,0.105-2.181c0.026-0.415,0.06-0.828,0.09-1.241  c0.048-0.663,0.1-1.325,0.161-1.985c0.04-0.432,0.086-0.863,0.131-1.294c0.068-0.644,0.14-1.286,0.22-1.927  c0.026-0.208,0.044-0.417,0.071-0.625c-11.806,3.541-22.115,8.321-30.847,14.243c2.397,2.813,4.937,5.623,7.634,8.402  c8.838,9.118,17.702,15.812,26.479,20.008c-0.05-0.171-0.092-0.345-0.141-0.516c-0.242-0.84-0.473-1.683-0.692-2.529  c-0.082-0.313-0.162-0.627-0.241-0.941c-0.223-0.895-0.435-1.792-0.634-2.692c-0.041-0.183-0.085-0.364-0.125-0.547  c-0.23-1.071-0.442-2.147-0.638-3.227c-0.05-0.278-0.095-0.557-0.144-0.835c-0.144-0.831-0.278-1.664-0.402-2.499  c-0.048-0.324-0.096-0.647-0.141-0.973c-0.135-0.974-0.257-1.949-0.364-2.929c-0.013-0.123-0.03-0.245-0.043-0.368  c-0.115-1.096-0.209-2.194-0.291-3.296c-0.022-0.309-0.04-0.617-0.06-0.925c-0.054-0.835-0.098-1.671-0.132-2.51  c-0.013-0.325-0.027-0.65-0.038-0.977c-0.035-1.112-0.058-2.228-0.058-3.346c0-1.082,0.019-2.162,0.052-3.24  C152.5,252.409,152.52,252.059,152.535,251.709z" fill="#EA6226"/><g><path d="   M290.557,165.275c-3.922-1.503-7.969-2.757-12.12-3.724" fill="none" stroke="#000000" stroke-linecap="round" stroke-linejoin="round" stroke-miterlimit="10" stroke-width="4"/><path d="   M165.274,221.443c-1.504,3.923-2.756,7.969-3.725,12.122" fill="none" stroke="#000000" stroke-linecap="round" stroke-linejoin="round" stroke-miterlimit="10" stroke-width="4"/><path d="   M173.35,306.905c-2.221-3.58-4.208-7.322-5.944-11.209" fill="none" stroke="#000000" stroke-linecap="round" stroke-linejoin="round" stroke-miterlimit="10" stroke-width="4"/><path d="   M216.304,167.407c-3.886,1.736-7.628,3.725-11.209,5.943" fill="none" stroke="#000000" stroke-linecap="round" stroke-linejoin="round" stroke-miterlimit="10" stroke-width="4"/><path d="   M233.565,350.449c-4.154-0.967-8.201-2.219-12.121-3.723" fill="none" stroke="#000000" stroke-linecap="round" stroke-linejoin="round" stroke-miterlimit="10" stroke-width="4"/><path d="   M306.904,338.651c-3.581,2.223-7.324,4.207-11.208,5.945" fill="none" stroke="#000000" stroke-linecap="round" stroke-linejoin="round" stroke-miterlimit="10" stroke-width="4"/><path d="   M344.595,216.304c-1.738-3.886-3.723-7.626-5.944-11.208" fill="none" stroke="#000000" stroke-linecap="round" stroke-linejoin="round" stroke-miterlimit="10" stroke-width="4"/><path d="   M350.45,278.436c-0.968,4.154-2.221,8.201-3.725,12.121" fill="none" stroke="#000000" stroke-linecap="round" stroke-linejoin="round" stroke-miterlimit="10" stroke-width="4"/><path d="M216.304,167.407   c12.122-5.443,25.55-8.471,39.695-8.471c7.716,0,15.237,0.896,22.437,2.615" fill="none" stroke="#010101" stroke-miterlimit="10" stroke-width="4"/><path d="M290.557,165.275   c20.071,7.646,36.957,21.772,48.094,39.821c11.226-17.906,17.045-34.485,18.782-49.795c2.81-24.959-5.281-46.498-18.676-64.672   c-37.046-50.242-114.755-74.719-114.755-74.719c0,33.84-12.21,50.009-26.409,64.637" fill="none" stroke="#010101" stroke-miterlimit="10" stroke-width="4"/><path d="M155.301,154.567   c-0.733,5.729-1.164,11.943-1.272,18.748c-0.32,21.163,3.922,36.795,11.245,48.128c7.646-20.07,21.772-36.955,39.821-48.093" fill="none" stroke="#010101" stroke-miterlimit="10" stroke-width="4"/><path d="M165.274,221.443   c7.646-20.07,21.772-36.955,39.821-48.093" fill="none" stroke="#010101" stroke-miterlimit="10" stroke-width="4"/><path d="M216.304,167.407   c12.122-5.443,25.55-8.471,39.695-8.471c7.716,0,15.237,0.896,22.437,2.615c-4.728-20.574-12.34-36.419-21.936-48.471   c-15.648-19.643-36.599-29.15-58.908-32.533c-61.736-9.329-134.002,28.307-134.002,28.307   c23.939,23.939,26.751,44.012,27.037,64.387" fill="none" stroke="#010101" stroke-miterlimit="10" stroke-width="4"/><path d="M113.082,255.501   c3.546,4.546,7.628,9.255,12.355,14.126c14.717,15.184,28.772,23.242,41.969,26.068c-5.444-12.119-8.47-25.549-8.47-39.695   c0-7.717,0.895-15.236,2.613-22.436" fill="none" stroke="#010101" stroke-miterlimit="10" stroke-width="4"/><path d="M161.55,233.565   c-1.719,7.199-2.613,14.719-2.613,22.436c0,14.146,3.025,27.574,8.47,39.695" fill="none" stroke="#010101" stroke-miterlimit="10" stroke-width="4"/><path d="M165.274,221.443   c7.646-20.07,21.772-36.955,39.821-48.093c-17.905-11.228-34.484-17.046-49.794-18.783c-24.959-2.811-46.498,5.282-64.672,18.676   C40.387,210.29,15.91,287.996,15.91,287.996c33.841,0,50.009,12.211,64.636,26.41" fill="none" stroke="#010101" stroke-miterlimit="10" stroke-width="4"/><path d="M173.35,306.905   c11.137,18.047,28.021,32.176,48.094,39.822c-11.334,7.322-26.966,11.566-48.13,11.244c-6.804-0.107-13.017-0.537-18.747-1.271" fill="none" stroke="#010101" stroke-miterlimit="10" stroke-width="4"/><path d="M173.35,306.905   c11.137,18.047,28.021,32.176,48.094,39.822" fill="none" stroke="#010101" stroke-miterlimit="10" stroke-width="4"/><path d="M167.406,295.696   c-5.444-12.119-8.47-25.549-8.47-39.695c0-7.717,0.895-15.236,2.613-22.436c-20.572,4.727-36.418,12.338-48.469,21.934   c-19.643,15.65-29.15,36.597-32.535,58.908c-9.327,61.736,28.309,134.002,28.309,134.002c23.939-23.939,44.012-26.75,64.387-27.035   " fill="none" stroke="#010101" stroke-miterlimit="10" stroke-width="4"/><path d="M255.499,398.92   c4.547-3.547,9.257-7.631,14.128-12.355c15.184-14.717,23.241-28.773,26.069-41.969c-12.12,5.441-25.549,8.469-39.696,8.469   c-7.718,0-15.235-0.896-22.435-2.613" fill="none" stroke="#010101" stroke-miterlimit="10" stroke-width="4"/><path d="M233.565,350.449   c7.199,1.719,14.717,2.615,22.435,2.615c14.146,0,27.575-3.027,39.696-8.469" fill="none" stroke="#010101" stroke-miterlimit="10" stroke-width="4"/><path d="M221.444,346.727   c-20.072-7.646-36.956-21.775-48.094-39.822c-11.228,17.902-17.046,34.486-18.783,49.795c-2.811,24.957,5.282,46.498,18.676,64.674   c37.046,50.24,114.753,74.717,114.753,74.717c0-33.842,12.212-50.01,26.411-64.637" fill="none" stroke="#010101" stroke-miterlimit="10" stroke-width="4"/><path d="M356.7,357.432   c0.733-5.729,1.162-11.941,1.271-18.746c0.322-21.162-3.923-36.797-11.245-48.129c-7.646,20.07-21.773,36.957-39.821,48.094" fill="none" stroke="#010101" stroke-miterlimit="10" stroke-width="4"/><path d="M306.904,338.651   c18.048-11.137,32.176-28.021,39.821-48.094" fill="none" stroke="#010101" stroke-miterlimit="10" stroke-width="4"/><path d="M295.696,344.596   c-12.12,5.441-25.549,8.469-39.696,8.469c-7.718,0-15.235-0.896-22.435-2.613c4.727,20.572,12.336,36.418,21.933,48.469   c15.65,19.643,36.598,29.15,58.908,32.535c61.735,9.328,134.002-28.309,134.002-28.309c-23.938-23.939-26.75-44.012-27.035-64.389" fill="none" stroke="#010101" stroke-miterlimit="10" stroke-width="4"/><path d="M398.92,256.502   c-3.546-4.547-7.629-9.258-12.354-14.128c-14.718-15.184-28.774-23.24-41.97-26.07c5.442,12.122,8.47,25.551,8.47,39.696   c0,7.715-0.896,15.237-2.614,22.436" fill="none" stroke="#010101" stroke-miterlimit="10" stroke-width="4"/><path d="M346.725,290.557   c-7.646,20.072-21.773,36.957-39.821,48.094c17.903,11.227,34.486,17.045,49.795,18.783c24.958,2.809,46.498-5.281,64.674-18.676   c50.241-37.045,74.717-114.752,74.717-114.752c-33.841,0-50.01-12.212-64.638-26.41" fill="none" stroke="#010101" stroke-miterlimit="10" stroke-width="4"/><path d="M357.432,155.301   c-5.729-0.733-11.942-1.163-18.748-1.272c-21.161-0.321-36.794,3.924-48.128,11.246c20.071,7.646,36.957,21.772,48.094,39.82" fill="none" stroke="#010101" stroke-miterlimit="10" stroke-width="4"/><path d="M344.595,216.304   c5.442,12.122,8.47,25.552,8.47,39.696c0,7.714-0.896,15.238-2.614,22.435" fill="none" stroke="#010101" stroke-miterlimit="10" stroke-width="4"/><path d="M290.557,165.275   c20.071,7.646,36.957,21.772,48.094,39.821" fill="none" stroke="#010101" stroke-miterlimit="10" stroke-width="4"/><path d="M344.595,216.304   c5.442,12.122,8.47,25.552,8.47,39.696c0,7.714-0.896,15.238-2.614,22.435c20.573-4.727,36.419-12.338,48.47-21.934   c19.643-15.65,29.149-36.599,32.534-58.909c9.329-61.737-28.309-134.001-28.309-134.001   c-23.939,23.938-44.012,26.749-64.387,27.035" fill="none" stroke="#010101" stroke-miterlimit="10" stroke-width="4"/><path d="M256.501,113.082   c-4.547,3.545-9.257,7.628-14.127,12.355c-15.184,14.717-23.241,28.772-26.07,41.97c12.122-5.443,25.551-8.471,39.695-8.471   c7.716,0,15.237,0.896,22.437,2.615" fill="none" stroke="#010101" stroke-miterlimit="10" stroke-width="4"/></g><circle cx="474.998" cy="357.432" fill="#EA6226" r="12"/><circle cx="453.964" cy="63.593" fill="#EA6226" r="12"/><circle cx="74.402" cy="33.566" fill="#EA6226" r="12"/><circle cx="338.651" cy="472.464" fill="#EA6226" r="12"/><circle cx="154.567" cy="484.464" fill="#EA6226" r="12"/><circle cx="34.036" cy="389.532" fill="#EA6226" r="12"/><g><line fill="none" stroke="#FECD0E" stroke-miterlimit="10" stroke-width="5" x1="466.477" x2="448.408" y1="460.464" y2="478.535"/><line fill="none" stroke="#FECD0E" stroke-miterlimit="10" stroke-width="5" x1="448.408" x2="466.477" y1="460.464" y2="478.535"/></g><g><line fill="none" stroke="#FECD0E" stroke-miterlimit="10" stroke-width="5" x1="472.033" x2="453.964" y1="154.378" y2="172.449"/><line fill="none" stroke="#FECD0E" stroke-miterlimit="10" stroke-width="5" x1="453.964" x2="472.033" y1="154.378" y2="172.449"/></g><g><line fill="none" stroke="#FECD0E" stroke-miterlimit="10" stroke-width="5" x1="367.024" x2="348.955" y1="33.566" y2="51.637"/><line fill="none" stroke="#FECD0E" stroke-miterlimit="10" stroke-width="5" x1="348.955" x2="367.024" y1="33.566" y2="51.637"/></g><g><line fill="none" stroke="#FECD0E" stroke-miterlimit="10" stroke-width="5" x1="165.615" x2="147.546" y1="24.531" y2="42.602"/><line fill="none" stroke="#FECD0E" stroke-miterlimit="10" stroke-width="5" x1="147.546" x2="165.615" y1="24.531" y2="42.602"/></g><g><line fill="none" stroke="#FECD0E" stroke-miterlimit="10" stroke-width="5" x1="43.071" x2="25.002" y1="139.048" y2="157.119"/><line fill="none" stroke="#FECD0E" stroke-miterlimit="10" stroke-width="5" x1="25.002" x2="43.071" y1="139.048" y2="157.119"/></g><g><line fill="none" stroke="#FECD0E" stroke-miterlimit="10" stroke-width="5" x1="43.071" x2="25.002" y1="475.429" y2="493.5"/><line fill="none" stroke="#FECD0E" stroke-miterlimit="10" stroke-width="5" x1="25.002" x2="43.071" y1="475.429" y2="493.5"/></g></svg>