<?xml version="1.0" encoding="utf-8"?>

<!DOCTYPE svg PUBLIC "-//W3C//DTD SVG 1.1//EN" "http://www.w3.org/Graphics/SVG/1.1/DTD/svg11.dtd">
<svg version="1.1" id="Layer_1" xmlns="http://www.w3.org/2000/svg" xmlns:xlink="http://www.w3.org/1999/xlink" x="0px" y="0px"
	 viewBox="0 0 1283.44 1644.662" enable-background="new 0 0 1283.44 1644.662" xml:space="preserve">
<path d="M1235.875,502.294c-18.834-15.872-34.21-34.992-51.051-52.735c-8.352-8.799-9.837-17.888-2.988-28.705
	c5.633-8.896,1.312-15.87-9.358-16.48c-3.808-0.218-7.661,0.424-11.498,0.581c-13.718,0.564,2.637-7.14-28.371-12.236
	c-18.457-3.034-162.439-183.031-174.314-169.226c-6.182,7.186,26.429,36.492,147.313,164.503c6.513,6.897-0.008,9.2-8.612,13.26
	c-54.218,25.58-12.71,42.14-95.931,97.669c-13.63,9.095-47.501,33.781-49.089,50.143c-0.299,3.076-1.477,3.962-4.871,4.638
	c-6.944,1.383-9.314-2.976-12.347-7.343c-49.574-71.367-63.842-72.963-69.88-99.172c-15.493-67.258-63.982-126.068-133.127-123.808
	c-22.718,0.743,13.017-29.924,15.798-15.05c1.944,10.401,23.479,3.778,34.31-6.29c5.877-5.463,1.333-11.509-0.003-17.348
	c-1.592-6.959,2.531-22.512,6.881-23.557c6.079-1.46,9.707,2.635,17.337,8.401c24.096,18.21,23.514-28.715,7.095-47.396
	c-31.207-35.507-4.225-51.16-20.896-79.218c-6.41-10.789-5.74-24.708-13.62-34.295c-5.819-7.079-6.638-13.91-6.063-21.989
	c3.994-56.105-32.434-73.822-28.436-56.427c2.054,8.937-0.079,17.538-1.204,26.287c-1.802,14.019-3.556,15.072-16.749,9.281
	c-60.618-26.611-78.52,28.297-81.302-12.202c-0.613-8.917,0.189-17.708,3.189-26.22c2.096-5.946-1.578-8.556-8.719,1.522
	c-27.215,38.406-11.226,78.236-21.118,103.824c-16.284,42.121,22.996,76.45,20.052,94.775
	c-4.763,29.658-10.853,49.974-23.975,50.693c-55.872,3.064-58.576-5.668-90.396,0.53
	c-91.993,17.921-272.917,103.746-345.614,220.986c-54.491,87.88-35.431,79.254-62.529,130.238
	c-20.35,38.287-6.968,81.605-34.783,126.482c-10.869,17.536-0.315,17.216-10.355,31.147c-4.717,6.544-9.716,13.444-12.759,20.971
	c-2.416,5.977-1.527,13.223-7.7,16.995c-8.289,5.064-17.208,3.957-15.073,25.248c13.458,134.216,11.742,140.217,22.067,150.372
	c16.446,16.176,92.45,10.7,114.916,7.984c40.671-4.916,46.855-19.866,50.249-48.987c11.645-99.901,14.65-106.726,6.201-116.399
	c-12.615-14.443-34.417-0.654-34.456-39.098c-0.048-46.78-22.847-47.42-33.411-64.128c-8.256-13.06,11.422-30.319,3.634-50.74
	c-10.057-26.372-12.148-30.482-5.584-40.95c1.944-3.101,33.136-38.299,54.017-57.889c36.316-34.071,57.682-74.704,64.661-86.346
	c39.709-66.242,135.236-54.683,116.25-15.458c-43.136,89.121-74.814,168.461-78.143,176.362
	c-22.783,54.07-58.613,111.093-45.497,173.165c10.148,48.028,20.837,46.711,13.352,56.459
	c-15.417,20.08-31.541,39.739-42.993,62.525c-5.617,11.178-7.001,20.583-15.287,30.183c-69.625,80.669-66.354,88.758-96.59,120.763
	c-26.723,28.286-81.323,71.767-101.302,144.904c-10.365,37.943-18.065,88.925,6.534,120.304
	c15.267,19.475-10.181,23.742-0.951,31.636c16.931,14.481,60.686,78.102,74.864,68.1c5.129-3.618,1.478-9.987-0.457-14.552
	c-10.527-24.84-18.398-64.283-15.099-93.312c0.36-3.169,3.547-7.195-0.903-9.513c-11.764-6.13-16.362,12.79-23.702,17.844
	c-16.582,11.418-25.51-32.226-26.779-52.412c-8.17-129.958,135.493-187.902,246.185-328.806
	c22.654-28.838,27.637-44.231,34.542-32.034c35.325,62.395,32.518,72.776,53.086,106.525
	c30.301,49.719-65.073,81.853-71.307,122.704c-3.677,24.092-11.773,47.323-11.514,72.264c0.315,30.394-12.024,58.735-18.097,88.117
	c-12.068,58.383-10.665,77.649-27.942,101.269c-16.518,22.582-26.81,76.81,0.025,85.397c27.482,8.794,52.081-29.541,107.54-46.348
	c10.985-3.329,24.088-1.827,33.769-8.847c4.942-3.583,9.019-8.682,13.648-12.701c42.408-36.815,30.628-22.288,45.05-33.35
	c48.706-37.354-12.008-50.298,27.916-62.426c17.258-5.243,56.895-6.434,50.868-28.984c-2.193-8.205-2.575-16.172-0.114-24.424
	c1.339-4.492,5.94-10.385,1.239-13.659c-4.048-2.82-8.175,3.318-11.794,5.858c-7.999,5.614-15.773,11.984-15.929,23.069
	c-0.308,21.89,2.045,13.426-64.282,31.382c-12.342,3.341-21.423,23.114-12.567,30.948c18.472,16.343-31.174,10.267-81.905,12.412
	c-6.052,0.256-6.867-2.88-7.798-8.033c-8.277-45.816,65.686-117.072,71.27-131.309c15.747-40.146,32.569-56.608,45.534-81.422
	c10.798-20.667,31.375-29.655,45.766-49.283c6.464-8.816,9.297-4.975-0.167-81.143c-2.868-23.08-2.909-46.497-7.839-69.326
	c-0.437-2.022-0.338-4.286,1.669-5.609c3.945-2.601,10.119,7.26,18.569,11.96c111.709,62.131,177.618,78.02,150.952,138.638
	c-5.98,13.594-17.047,23.191-25.96,34.47c-16.641,21.058-27.396,45.282-37.52,69.778c-20.552,49.729-7.704,66.103-16.116,109.421
	c-14.288,73.582-10.887,84.26-22.103,148.066c-8.905,50.657-31.779,53.193-33.836,90.223c-0.536,9.655-2.67,20.21,7.987,27.211
	c43.427,28.529,93.075-23.078,180.06-31.994c9.854-1.01,44.415-26.277,53.908-47.921c11.444-26.094,27.066-2.861,54.034-11.189
	c18.679-5.768,35.427-17.871,56.153-17.166c4.813,0.164,18.959-10.807-27.016-13.076c-13.184-0.651-25.639,4.065-38.669,4.123
	c-20.931,0.093-41.87,0.105-62.789,0.709c-28.198,0.814-6.116,26.873-24.632,26.32c-59.419-1.776-63.084,8.653-78.6-3.844
	c-19.355-15.589-45.068,4.128-1.988-115.597c7.612-21.153,14.576-43.053,32.505-58.76c12.47-10.924,69.083-130.998,77.064-152.138
	c6.783-17.97,94.343-92.583,11.176-160.654c-37.936-31.05-101.936-133.718-127.428-158.63c-45.382-44.349-6.703-12.206-67.861-88.38
	c-14.405-17.943,3.312-15.745-4.695-54.375c-1.932-9.321,4.24-15.41,6.651-23.957c6.002-21.279,13.744-40.641,34.981-52.772
	c48.045-27.445,37.3-37.78,75.31-56.547c62.198-30.709,37.785-23.585,97.199-67.727c31.881-23.686,44.018,47.841,154.371,126.862
	c25.066,17.948,46.054-5.964,53.124-9.334c50.648-24.145,86.677-142.942,105.383-143.201
	c113.631-1.569,81.632-56.536,113.489-20.838C1278.534,570.089,1282.344,541.454,1235.875,502.294z M164.215,754.867
	c13.526,14.756,18.969,32.921,19.084,52.446c0.132,22.313-3.433,15.108-27.651,14.985c-0.503-0.003-90.248-0.252-90.217,0.251
	c-0.736-10.847,4.554-23.728,11.832-31.85c12.511-13.961,6.749,9.762,50.119-4.182c4.986-1.603,5.756-7.461,4.236-12.276
	c-4.789-15.18,5.578-10.445,14.276-19.498C153.05,747.294,157.028,747.026,164.215,754.867z"/>
</svg>
